<?xml version="1.0" encoding="utf-8"?>
<!-- Generator: Adobe Illustrator 27.5.0, SVG Export Plug-In . SVG Version: 6.00 Build 0)  -->
<svg version="1.1" id="Capa_1" xmlns="http://www.w3.org/2000/svg" xmlns:xlink="http://www.w3.org/1999/xlink" x="0px" y="0px"
	 viewBox="0 0 425.2 425.2" style="enable-background:new 0 0 425.2 425.2;" xml:space="preserve">
<g>
	<rect x="0.002" y="0.002" style="fill:#FFFFFF;" width="425.196" height="425.196"/>
	
		<ellipse transform="matrix(0.9998 -0.0178 0.0178 0.9998 -4.0034 3.9243)" style="fill:#93CED4;" cx="217.848" cy="226.245" rx="113.202" ry="113.203"/>
	<circle style="fill:#93CED4;" cx="213.249" cy="153.523" r="129.3"/>
	<path style="fill:#93CED4;" d="M229.607,253.526c0-41.507,33.647-75.154,75.153-75.154c41.506,0,75.153,33.647,75.153,75.154
		c0,41.504-33.647,75.152-75.153,75.152C263.254,328.679,229.607,295.03,229.607,253.526z"/>
	<path style="fill:#93CED4;" d="M61.681,253.526c0-41.507,33.647-75.154,75.153-75.154s75.153,33.647,75.153,75.154
		c0,41.504-33.647,75.152-75.153,75.152S61.681,295.03,61.681,253.526z"/>
	<path style="fill:#6C8D3A;" d="M399.528,376.485c0,4.51-8.115,8.164-18.126,8.164h-33.296c8.036,0,14.551,3.656,14.551,8.164
		c0,4.51-6.515,8.164-14.551,8.164H77.093c-8.037,0-14.551-3.654-14.551-8.164c0-4.508,6.514-8.164,14.551-8.164H43.797
		c-10.011,0-18.126-3.654-18.126-8.164c0-4.508,8.115-8.164,18.126-8.164h1.508c-3.816-1.496-6.262-3.783-6.262-6.35
		c0-4.508,7.535-8.164,16.83-8.164h7.305c-6.405-1.01-11.073-4.125-11.073-7.814c0-4.51,6.967-8.164,15.563-8.164H56.501
		c-9.258,0-16.763-3.656-16.763-8.164c0-4.51,7.505-8.164,16.763-8.164h1.395c-3.529-1.498-5.791-3.783-5.791-6.35
		c0-4.51,6.967-8.166,15.563-8.166h289.865c8.595,0,15.563,3.656,15.563,8.166c0,2.566-2.262,4.852-5.791,6.35h1.395
		c9.258,0,16.763,3.654,16.763,8.164c0,4.508-7.505,8.164-16.763,8.164h-11.166c8.595,0,15.563,3.654,15.563,8.164
		c0,3.689-4.668,6.805-11.073,7.814h7.305c9.295,0,16.83,3.656,16.83,8.164c0,2.566-2.446,4.853-6.262,6.35h1.508
		C391.413,368.321,399.528,371.978,399.528,376.485z"/>
	<g>
		<g>
			<polygon style="fill:#A3704A;" points="365.102,264.038 364.205,266.726 233.067,264.038 231.275,255.368 233.067,254.472 
				365.102,254.472 			"/>
			<rect x="231.275" y="255.368" style="fill:#C49A6C;" width="132.93" height="11.357"/>
		</g>
		<g>
			<polygon style="fill:#A3704A;" points="365.102,301.396 364.205,304.085 233.067,301.396 231.275,292.728 233.067,291.831 
				365.102,291.831 			"/>
			<rect x="231.275" y="292.728" style="fill:#C49A6C;" width="132.93" height="11.357"/>
		</g>
		<g>
			<g>
				<polygon style="fill:#A3704A;" points="252.186,308.979 239.783,308.979 239.783,250.802 243.6,243.704 245.984,243.704 
					252.186,250.802 				"/>
				<polygon style="fill:#C49A6C;" points="249.8,308.979 237.398,308.979 237.398,250.802 243.6,243.704 249.8,250.802 				"/>
				<polygon style="fill:#FBCBBB;" points="240.155,303.044 237.398,308.979 237.398,250.802 243.6,243.704 239.201,251.972 				"/>
			</g>
			<g>
				<path style="fill:#D1D3D4;" d="M245.193,261.085c-0.682,0.684-1.79,0.684-2.473,0c-0.684-0.684-0.683-1.789,0-2.473
					s1.791-0.684,2.473,0C245.877,259.296,245.876,260.401,245.193,261.085z"/>
				<path style="fill:#E6E7E8;" d="M244.95,260.843c-0.548,0.547-1.436,0.547-1.985,0c-0.548-0.549-0.548-1.438,0-1.986
					c0.549-0.549,1.438-0.549,1.985,0C245.498,259.405,245.498,260.294,244.95,260.843z"/>
				<path style="fill:#A7A9AC;" d="M243.058,261.085c-0.092,0.094-0.244,0.094-0.337,0l0,0c-0.093-0.092-0.093-0.244,0-0.338
					l1.724-1.723c0.093-0.094,0.244-0.094,0.337,0l0,0c0.094,0.094,0.094,0.244,0,0.338L243.058,261.085z"/>
			</g>
			<g>
				<path style="fill:#D1D3D4;" d="M245.193,296.722c0.684,0.682,0.684,1.789,0,2.473c-0.682,0.684-1.79,0.684-2.473,0
					c-0.684-0.684-0.684-1.791,0-2.473C243.403,296.038,244.512,296.038,245.193,296.722z"/>
				<path style="fill:#E6E7E8;" d="M244.951,296.966c0.547,0.547,0.547,1.438,0,1.984c-0.549,0.549-1.438,0.549-1.986,0
					c-0.548-0.547-0.549-1.438,0-1.984C243.514,296.417,244.402,296.417,244.951,296.966z"/>
				<path style="fill:#A7A9AC;" d="M245.193,298.857c0.093,0.094,0.093,0.244,0,0.338l0,0c-0.092,0.094-0.243,0.094-0.337,0
					l-1.724-1.725c-0.094-0.092-0.094-0.242,0-0.336l0,0c0.093-0.094,0.244-0.094,0.337,0L245.193,298.857z"/>
			</g>
		</g>
		<g>
			<g>
				<polygon style="fill:#A3704A;" points="278.473,308.979 266.07,308.979 266.07,250.802 269.888,243.704 272.272,243.704 
					278.473,250.802 				"/>
				<polygon style="fill:#C49A6C;" points="276.088,308.979 263.686,308.979 263.686,250.802 269.888,243.704 276.088,250.802 				
					"/>
				<polygon style="fill:#FBCBBB;" points="266.442,303.044 263.686,308.979 263.686,250.802 269.888,243.704 265.488,251.972 				
					"/>
			</g>
			<g>
				<path style="fill:#D1D3D4;" d="M271.482,261.085c-0.683,0.684-1.79,0.684-2.474,0c-0.683-0.684-0.683-1.789,0-2.473
					c0.684-0.684,1.791-0.684,2.474,0C272.164,259.296,272.164,260.401,271.482,261.085z"/>
				<path style="fill:#E6E7E8;" d="M271.237,260.843c-0.548,0.547-1.436,0.547-1.985,0c-0.548-0.549-0.548-1.438,0-1.986
					c0.548-0.549,1.438-0.549,1.985,0C271.786,259.405,271.786,260.294,271.237,260.843z"/>
				<path style="fill:#A7A9AC;" d="M269.346,261.085c-0.094,0.094-0.244,0.094-0.338,0l0,0c-0.093-0.092-0.093-0.244,0-0.338
					l1.724-1.723c0.094-0.094,0.244-0.094,0.338,0l0,0c0.093,0.094,0.093,0.244,0,0.338L269.346,261.085z"/>
			</g>
			<g>
				<path style="fill:#D1D3D4;" d="M271.48,296.722c0.684,0.682,0.684,1.789,0,2.473c-0.682,0.684-1.789,0.684-2.472,0
					c-0.684-0.684-0.684-1.791,0-2.473C269.691,296.038,270.799,296.038,271.48,296.722z"/>
				<path style="fill:#E6E7E8;" d="M271.237,296.966c0.549,0.547,0.549,1.438,0,1.984c-0.548,0.549-1.438,0.549-1.985,0
					c-0.548-0.547-0.548-1.438,0-1.984C269.8,296.417,270.69,296.417,271.237,296.966z"/>
				<path style="fill:#A7A9AC;" d="M271.48,298.857c0.094,0.094,0.094,0.244,0,0.338l0,0c-0.092,0.094-0.243,0.094-0.336,0
					l-1.725-1.725c-0.093-0.092-0.093-0.242,0-0.336l0,0c0.094-0.094,0.244-0.094,0.338,0L271.48,298.857z"/>
			</g>
		</g>
		<g>
			<g>
				<polygon style="fill:#A3704A;" points="304.76,308.979 292.358,308.979 292.358,250.802 296.175,243.704 298.56,243.704 
					304.76,250.802 				"/>
				<polygon style="fill:#C49A6C;" points="302.376,308.979 289.974,308.979 289.974,250.802 296.175,243.704 302.376,250.802 				
					"/>
				<polygon style="fill:#FBCBBB;" points="292.729,303.044 289.974,308.979 289.974,250.802 296.175,243.704 291.775,251.972 				
					"/>
			</g>
			<g>
				<path style="fill:#D1D3D4;" d="M297.769,261.085c-0.682,0.684-1.79,0.684-2.473,0c-0.684-0.684-0.683-1.789,0-2.473
					s1.791-0.684,2.473,0C298.452,259.296,298.451,260.401,297.769,261.085z"/>
				<path style="fill:#E6E7E8;" d="M297.525,260.843c-0.549,0.547-1.438,0.547-1.986,0c-0.548-0.549-0.548-1.438,0-1.986
					c0.548-0.549,1.438-0.549,1.986,0C298.073,259.405,298.073,260.294,297.525,260.843z"/>
				<path style="fill:#A7A9AC;" d="M295.632,261.085c-0.092,0.094-0.243,0.094-0.336,0l0,0c-0.093-0.092-0.093-0.244,0-0.338
					l1.724-1.723c0.093-0.094,0.244-0.094,0.337,0l0,0c0.094,0.094,0.094,0.244,0,0.338L295.632,261.085z"/>
			</g>
			<g>
				<path style="fill:#D1D3D4;" d="M297.769,296.722c0.684,0.682,0.684,1.789,0,2.473c-0.682,0.684-1.79,0.684-2.473,0
					c-0.684-0.684-0.684-1.791,0-2.473C295.978,296.038,297.087,296.038,297.769,296.722z"/>
				<path style="fill:#E6E7E8;" d="M297.525,296.966c0.548,0.547,0.548,1.438,0,1.984c-0.549,0.549-1.438,0.549-1.986,0
					c-0.548-0.547-0.548-1.438,0-1.984C296.087,296.417,296.977,296.417,297.525,296.966z"/>
				<path style="fill:#A7A9AC;" d="M297.769,298.857c0.093,0.094,0.093,0.244,0,0.338l0,0c-0.093,0.094-0.244,0.094-0.336,0
					l-1.725-1.725c-0.094-0.092-0.094-0.242,0-0.336l0,0c0.093-0.094,0.244-0.094,0.337,0L297.769,298.857z"/>
			</g>
		</g>
		<g>
			<g>
				<polygon style="fill:#A3704A;" points="331.047,308.979 318.646,308.979 318.646,250.802 322.463,243.704 324.848,243.704 
					331.047,250.802 				"/>
				<polygon style="fill:#C49A6C;" points="328.663,308.979 316.261,308.979 316.261,250.802 322.463,243.704 328.663,250.802 				
					"/>
				<polygon style="fill:#FBCBBB;" points="319.017,303.044 316.261,308.979 316.261,250.802 322.463,243.704 318.063,251.972 				
					"/>
			</g>
			<g>
				<path style="fill:#D1D3D4;" d="M324.056,261.085c-0.683,0.684-1.79,0.684-2.473,0c-0.683-0.684-0.683-1.789,0-2.473
					c0.683-0.684,1.79-0.684,2.473,0C324.739,259.296,324.739,260.401,324.056,261.085z"/>
				<path style="fill:#E6E7E8;" d="M323.813,260.843c-0.549,0.547-1.439,0.547-1.986,0c-0.548-0.549-0.548-1.438,0-1.986
					c0.548-0.549,1.438-0.549,1.986,0C324.361,259.405,324.36,260.294,323.813,260.843z"/>
				<path style="fill:#A7A9AC;" d="M321.92,261.085c-0.094,0.094-0.243,0.094-0.337,0l0,0c-0.093-0.092-0.093-0.244,0-0.338
					l1.724-1.723c0.094-0.094,0.244-0.094,0.337,0l0,0c0.094,0.094,0.094,0.244,0,0.338L321.92,261.085z"/>
			</g>
			<g>
				<path style="fill:#D1D3D4;" d="M324.056,296.722c0.684,0.682,0.684,1.789,0,2.473c-0.683,0.684-1.79,0.684-2.473,0
					c-0.683-0.684-0.683-1.791,0-2.473C322.266,296.038,323.373,296.038,324.056,296.722z"/>
				<path style="fill:#E6E7E8;" d="M323.813,296.966c0.548,0.547,0.549,1.438,0,1.984c-0.549,0.549-1.439,0.549-1.986,0
					c-0.548-0.547-0.548-1.438,0-1.984C322.374,296.417,323.264,296.417,323.813,296.966z"/>
				<path style="fill:#A7A9AC;" d="M324.056,298.857c0.094,0.094,0.094,0.244,0,0.338l0,0c-0.093,0.094-0.244,0.094-0.336,0
					l-1.725-1.725c-0.093-0.092-0.093-0.242,0-0.336l0,0c0.093-0.094,0.244-0.094,0.338,0L324.056,298.857z"/>
			</g>
		</g>
		<g>
			<g>
				<polygon style="fill:#A3704A;" points="357.335,308.979 344.934,308.979 344.934,250.802 348.75,243.704 351.134,243.704 
					357.335,250.802 				"/>
				<polygon style="fill:#C49A6C;" points="354.95,308.979 342.549,308.979 342.549,250.802 348.75,243.704 354.95,250.802 				"/>
				<polygon style="fill:#FBCBBB;" points="345.305,303.044 342.549,308.979 342.549,250.802 348.75,243.704 344.351,251.972 				
					"/>
			</g>
			<g>
				<path style="fill:#D1D3D4;" d="M350.344,261.085c-0.683,0.684-1.791,0.684-2.473,0c-0.684-0.684-0.683-1.789,0-2.473
					c0.682-0.684,1.79-0.684,2.473,0C351.027,259.296,351.026,260.401,350.344,261.085z"/>
				<path style="fill:#E6E7E8;" d="M350.101,260.843c-0.549,0.547-1.438,0.547-1.987,0c-0.548-0.549-0.548-1.438,0-1.986
					c0.549-0.549,1.438-0.549,1.987,0C350.648,259.405,350.648,260.294,350.101,260.843z"/>
				<path style="fill:#A7A9AC;" d="M348.207,261.085c-0.093,0.094-0.243,0.094-0.336,0l0,0c-0.093-0.092-0.093-0.244,0-0.338
					l1.724-1.723c0.093-0.094,0.244-0.094,0.337,0l0,0c0.094,0.094,0.094,0.244,0,0.338L348.207,261.085z"/>
			</g>
			<g>
				<path style="fill:#D1D3D4;" d="M350.344,296.722c0.684,0.682,0.684,1.789,0,2.473c-0.683,0.684-1.791,0.684-2.473,0
					c-0.684-0.684-0.684-1.791,0-2.473C348.553,296.038,349.661,296.038,350.344,296.722z"/>
				<path style="fill:#E6E7E8;" d="M350.101,296.966c0.548,0.547,0.548,1.438,0,1.984c-0.549,0.549-1.438,0.549-1.987,0
					c-0.548-0.547-0.548-1.438,0-1.984C348.662,296.417,349.552,296.417,350.101,296.966z"/>
				<path style="fill:#A7A9AC;" d="M350.344,298.857c0.093,0.094,0.093,0.244,0,0.338l0,0c-0.093,0.094-0.244,0.094-0.337,0
					l-1.724-1.725c-0.094-0.092-0.094-0.242,0-0.336l0,0c0.092-0.094,0.244-0.094,0.337,0L350.344,298.857z"/>
			</g>
		</g>
	</g>
	<g>
		<g>
			<polygon style="fill:#A3704A;" points="207.303,266.974 206.407,269.661 75.27,266.974 73.477,258.304 75.27,257.407 
				207.303,257.407 			"/>
			<rect x="73.477" y="258.304" style="fill:#C49A6C;" width="132.931" height="11.357"/>
		</g>
		<g>
			<polygon style="fill:#A3704A;" points="207.303,304.333 206.407,307.021 75.27,304.333 73.477,295.663 75.27,294.767 
				207.303,294.767 			"/>
			<rect x="73.477" y="295.663" style="fill:#C49A6C;" width="132.931" height="11.357"/>
		</g>
		<g>
			<g>
				<polygon style="fill:#A3704A;" points="94.388,311.915 81.985,311.915 81.985,253.737 85.801,246.64 88.186,246.64 
					94.388,253.737 				"/>
				<polygon style="fill:#C49A6C;" points="92.002,311.915 79.601,311.915 79.601,253.737 85.801,246.64 92.002,253.737 				"/>
				<polygon style="fill:#FBCBBB;" points="82.356,305.979 79.601,311.915 79.601,253.737 85.801,246.64 81.402,254.907 				"/>
			</g>
			<g>
				<path style="fill:#D1D3D4;" d="M87.396,264.022c-0.683,0.682-1.79,0.682-2.473,0c-0.684-0.684-0.683-1.791,0-2.475
					c0.683-0.682,1.79-0.682,2.473,0C88.078,262.232,88.078,263.339,87.396,264.022z"/>
				<path style="fill:#E6E7E8;" d="M87.151,263.778c-0.548,0.547-1.437,0.549-1.985,0c-0.548-0.549-0.548-1.438,0-1.986
					c0.549-0.549,1.438-0.549,1.985,0C87.7,262.341,87.7,263.229,87.151,263.778z"/>
				<path style="fill:#A7A9AC;" d="M85.26,264.022c-0.093,0.092-0.244,0.092-0.337,0l0,0c-0.094-0.094-0.094-0.246,0-0.338
					l1.724-1.725c0.093-0.092,0.244-0.092,0.337,0l0,0c0.093,0.094,0.093,0.244,0,0.338L85.26,264.022z"/>
			</g>
			<g>
				<path style="fill:#D1D3D4;" d="M87.396,299.657c0.683,0.684,0.683,1.791,0,2.475c-0.683,0.682-1.79,0.682-2.473,0
					c-0.684-0.684-0.684-1.791,0-2.475C85.605,298.974,86.713,298.974,87.396,299.657z"/>
				<path style="fill:#E6E7E8;" d="M87.152,299.901c0.548,0.549,0.548,1.438,0,1.986c-0.549,0.549-1.438,0.547-1.986,0
					c-0.548-0.549-0.549-1.438,0-1.986C85.715,299.353,86.604,299.353,87.152,299.901z"/>
				<path style="fill:#A7A9AC;" d="M87.396,301.794c0.093,0.092,0.093,0.244,0,0.338l0,0c-0.093,0.092-0.244,0.092-0.337,0
					l-1.724-1.725c-0.094-0.094-0.094-0.244,0-0.338l0,0c0.093-0.094,0.244-0.094,0.337,0L87.396,301.794z"/>
			</g>
		</g>
		<g>
			<g>
				<polygon style="fill:#A3704A;" points="120.675,311.915 108.272,311.915 108.272,253.737 112.089,246.64 114.474,246.64 
					120.675,253.737 				"/>
				<polygon style="fill:#C49A6C;" points="118.289,311.915 105.888,311.915 105.888,253.737 112.089,246.64 118.289,253.737 				
					"/>
				<polygon style="fill:#FBCBBB;" points="108.645,305.979 105.888,311.915 105.888,253.737 112.089,246.64 107.689,254.907 				
					"/>
			</g>
			<g>
				<path style="fill:#D1D3D4;" d="M113.684,264.022c-0.684,0.682-1.79,0.682-2.474,0c-0.683-0.684-0.683-1.791,0-2.475
					c0.684-0.682,1.79-0.682,2.474,0C114.366,262.232,114.366,263.339,113.684,264.022z"/>
				<path style="fill:#E6E7E8;" d="M113.439,263.778c-0.549,0.547-1.438,0.549-1.985,0c-0.549-0.549-0.549-1.438,0-1.986
					c0.548-0.549,1.437-0.549,1.985,0C113.988,262.341,113.987,263.229,113.439,263.778z"/>
				<path style="fill:#A7A9AC;" d="M111.548,264.022c-0.094,0.092-0.244,0.092-0.338,0l0,0c-0.093-0.094-0.093-0.246,0-0.338
					l1.724-1.725c0.094-0.092,0.244-0.092,0.337,0l0,0c0.094,0.094,0.094,0.244,0,0.338L111.548,264.022z"/>
			</g>
			<g>
				<path style="fill:#D1D3D4;" d="M113.683,299.657c0.684,0.684,0.684,1.791,0,2.475c-0.683,0.682-1.789,0.682-2.473,0
					c-0.683-0.684-0.683-1.791,0-2.475C111.894,298.974,113,298.974,113.683,299.657z"/>
				<path style="fill:#E6E7E8;" d="M113.439,299.901c0.548,0.549,0.549,1.438,0,1.986c-0.549,0.549-1.438,0.547-1.985,0
					c-0.549-0.549-0.549-1.438,0-1.986C112.002,299.353,112.891,299.353,113.439,299.901z"/>
				<path style="fill:#A7A9AC;" d="M113.683,301.794c0.094,0.092,0.094,0.244,0,0.338l0,0c-0.093,0.092-0.244,0.092-0.337,0
					l-1.724-1.725c-0.093-0.094-0.093-0.244,0-0.338l0,0c0.093-0.094,0.243-0.094,0.338,0L113.683,301.794z"/>
			</g>
		</g>
		<g>
			<g>
				<polygon style="fill:#A3704A;" points="146.962,311.915 134.561,311.915 134.561,253.737 138.376,246.64 140.761,246.64 
					146.962,253.737 				"/>
				<polygon style="fill:#C49A6C;" points="144.577,311.915 132.176,311.915 132.176,253.737 138.376,246.64 144.577,253.737 				
					"/>
				<polygon style="fill:#FBCBBB;" points="134.932,305.979 132.176,311.915 132.176,253.737 138.376,246.64 133.978,254.907 				
					"/>
			</g>
			<g>
				<path style="fill:#D1D3D4;" d="M139.971,264.022c-0.683,0.682-1.79,0.682-2.473,0c-0.684-0.684-0.684-1.791,0-2.475
					c0.683-0.682,1.79-0.682,2.473,0C140.654,262.232,140.653,263.339,139.971,264.022z"/>
				<path style="fill:#E6E7E8;" d="M139.728,263.778c-0.549,0.547-1.439,0.549-1.987,0c-0.548-0.549-0.548-1.438,0-1.986
					c0.549-0.549,1.438-0.549,1.987,0C140.275,262.341,140.275,263.229,139.728,263.778z"/>
				<path style="fill:#A7A9AC;" d="M137.835,264.022c-0.094,0.092-0.245,0.092-0.337,0l0,0c-0.094-0.094-0.094-0.246,0-0.338
					l1.724-1.725c0.093-0.092,0.244-0.092,0.337,0l0,0c0.094,0.094,0.094,0.244,0,0.338L137.835,264.022z"/>
			</g>
			<g>
				<path style="fill:#D1D3D4;" d="M139.971,299.657c0.684,0.684,0.684,1.791,0,2.475c-0.683,0.682-1.79,0.682-2.473,0
					c-0.684-0.684-0.684-1.791,0-2.475C138.181,298.974,139.288,298.974,139.971,299.657z"/>
				<path style="fill:#E6E7E8;" d="M139.728,299.901c0.548,0.549,0.548,1.438,0,1.986c-0.549,0.549-1.439,0.547-1.987,0
					c-0.548-0.549-0.548-1.438,0-1.986C138.289,299.353,139.179,299.353,139.728,299.901z"/>
				<path style="fill:#A7A9AC;" d="M139.971,301.794c0.093,0.092,0.093,0.244,0,0.338l0,0c-0.093,0.092-0.244,0.092-0.337,0
					l-1.725-1.725c-0.093-0.094-0.093-0.244,0-0.338l0,0c0.093-0.094,0.244-0.094,0.337,0L139.971,301.794z"/>
			</g>
		</g>
		<g>
			<g>
				<polygon style="fill:#A3704A;" points="173.249,311.915 160.848,311.915 160.848,253.737 164.664,246.64 167.049,246.64 
					173.249,253.737 				"/>
				<polygon style="fill:#C49A6C;" points="170.864,311.915 158.463,311.915 158.463,253.737 164.664,246.64 170.864,253.737 				
					"/>
				<polygon style="fill:#FBCBBB;" points="161.219,305.979 158.463,311.915 158.463,253.737 164.664,246.64 160.265,254.907 				
					"/>
			</g>
			<g>
				<path style="fill:#D1D3D4;" d="M166.258,264.022c-0.683,0.682-1.79,0.682-2.474,0c-0.683-0.684-0.683-1.791,0-2.475
					c0.684-0.682,1.791-0.682,2.474,0C166.941,262.232,166.941,263.339,166.258,264.022z"/>
				<path style="fill:#E6E7E8;" d="M166.015,263.778c-0.549,0.547-1.438,0.549-1.986,0c-0.549-0.549-0.549-1.438,0-1.986
					c0.548-0.549,1.438-0.549,1.986,0C166.564,262.341,166.563,263.229,166.015,263.778z"/>
				<path style="fill:#A7A9AC;" d="M164.122,264.022c-0.094,0.092-0.244,0.092-0.338,0l0,0c-0.093-0.094-0.093-0.246,0-0.338
					l1.725-1.725c0.094-0.092,0.244-0.092,0.337,0l0,0c0.094,0.094,0.094,0.244,0,0.338L164.122,264.022z"/>
			</g>
			<g>
				<path style="fill:#D1D3D4;" d="M166.258,299.657c0.684,0.684,0.684,1.791,0,2.475c-0.683,0.682-1.79,0.682-2.474,0
					c-0.683-0.684-0.683-1.791,0-2.475C164.468,298.974,165.575,298.974,166.258,299.657z"/>
				<path style="fill:#E6E7E8;" d="M166.015,299.901c0.548,0.549,0.549,1.438,0,1.986c-0.549,0.549-1.438,0.547-1.986,0
					c-0.549-0.549-0.549-1.438,0-1.986C164.576,299.353,165.466,299.353,166.015,299.901z"/>
				<path style="fill:#A7A9AC;" d="M166.258,301.794c0.094,0.092,0.094,0.244,0,0.338l0,0c-0.093,0.092-0.244,0.092-0.337,0
					l-1.725-1.725c-0.092-0.094-0.092-0.244,0-0.338l0,0c0.094-0.094,0.244-0.094,0.338,0L166.258,301.794z"/>
			</g>
		</g>
		<g>
			<g>
				<polygon style="fill:#A3704A;" points="199.537,311.915 187.136,311.915 187.136,253.737 190.951,246.64 193.336,246.64 
					199.537,253.737 				"/>
				<polygon style="fill:#C49A6C;" points="197.152,311.915 184.751,311.915 184.751,253.737 190.951,246.64 197.152,253.737 				
					"/>
				<polygon style="fill:#FBCBBB;" points="187.507,305.979 184.751,311.915 184.751,253.737 190.951,246.64 186.553,254.907 				
					"/>
			</g>
			<g>
				<path style="fill:#D1D3D4;" d="M192.546,264.022c-0.683,0.682-1.791,0.682-2.474,0c-0.684-0.684-0.683-1.791,0-2.475
					c0.683-0.682,1.791-0.682,2.474,0C193.23,262.232,193.229,263.339,192.546,264.022z"/>
				<path style="fill:#E6E7E8;" d="M192.303,263.778c-0.549,0.547-1.438,0.549-1.987,0c-0.548-0.549-0.548-1.438,0-1.986
					c0.549-0.549,1.439-0.549,1.987,0C192.851,262.341,192.851,263.229,192.303,263.778z"/>
				<path style="fill:#A7A9AC;" d="M190.409,264.022c-0.093,0.092-0.244,0.092-0.337,0l0,0c-0.093-0.094-0.093-0.246,0-0.338
					l1.725-1.725c0.093-0.092,0.243-0.092,0.337,0l0,0c0.094,0.094,0.094,0.244,0,0.338L190.409,264.022z"/>
			</g>
			<g>
				<path style="fill:#D1D3D4;" d="M192.546,299.657c0.684,0.684,0.684,1.791,0,2.475c-0.683,0.682-1.791,0.682-2.474,0
					c-0.684-0.684-0.684-1.791,0-2.475C190.755,298.974,191.863,298.974,192.546,299.657z"/>
				<path style="fill:#E6E7E8;" d="M192.303,299.901c0.548,0.549,0.548,1.438,0,1.986c-0.549,0.549-1.438,0.547-1.987,0
					c-0.548-0.549-0.548-1.438,0-1.986C190.864,299.353,191.754,299.353,192.303,299.901z"/>
				<path style="fill:#A7A9AC;" d="M192.546,301.794c0.093,0.092,0.093,0.244,0,0.338l0,0c-0.093,0.092-0.244,0.092-0.338,0
					l-1.724-1.725c-0.093-0.094-0.093-0.244,0-0.338l0,0c0.093-0.094,0.244-0.094,0.337,0L192.546,301.794z"/>
			</g>
		</g>
	</g>
</g>
<path style="fill:#53712C;" d="M86.65,364.55c0,8.564,59.465,15.507,132.821,15.507s132.823-6.942,132.823-15.507
	c0-8.565-59.467-15.508-132.823-15.508S86.65,355.984,86.65,364.55z"/>
<g>
	<rect x="262.482" y="184.055" style="fill:#6D6E71;" width="8.883" height="80.217"/>
	<rect x="262.482" y="184.055" style="fill:#BCBEC0;" width="4.441" height="80.217"/>
	<rect x="258.406" y="235.52" width="17.989" height="41.189"/>
	<path style="fill:#BE1E2D;" d="M111.345,327.234h219.829c0,0,17.903-42.344-64.293-64.201l-57.779-13.4v21.861h-97.756V327.234z"/>
	<path style="fill:#A7A9AC;" d="M266.88,263.033l-24.561-5.695c1.655,7.177,1.685,14.62-0.459,21.719
		c-5.083,16.832-19.716,26.039-35.899,30.535c-17.706,4.915-36.981,6.85-54.976,2.564c-13.601-3.239-28.221-8.017-39.64-16.66
		v31.739h219.829C331.173,327.234,349.076,284.891,266.88,263.033z"/>
	<rect x="109.893" y="188.992" style="fill:#BE1E2D;" width="21.76" height="138.243"/>
	<rect x="98.294" y="326.322" style="fill:#430000;" width="246.588" height="18.751"/>
	<g>
		<path style="fill:#ED1C24;" d="M253.857,341.654c-1.524-3.944-2.36-8.229-2.36-12.71c0-19.5,15.809-35.309,35.31-35.309
			c19.501,0,35.309,15.809,35.309,35.309c0,4.48-0.836,8.766-2.36,12.71h15.313c1.065-4.058,1.634-8.316,1.634-12.707
			c0-27.559-22.34-49.899-49.897-49.899c-27.557,0-49.896,22.341-49.896,49.899c0,4.391,0.568,8.649,1.634,12.707H253.857z"/>
		<g>
			<g>
				<path style="fill:#282829;" d="M322.853,328.5c0,19.908-16.138,36.049-36.047,36.049c-19.91,0-36.047-16.141-36.047-36.049
					c0-19.907,16.138-36.045,36.047-36.045C306.715,292.455,322.853,308.593,322.853,328.5z"/>
				<g>
					<path style="fill:#282829;" d="M308.021,343.181c-0.579-0.246-0.849-0.912-0.603-1.493l3.56-8.38
						c0.246-0.581,0.914-0.852,1.492-0.603l15.508,6.584c0.577,0.246,0.849,0.915,0.604,1.493l-3.561,8.383
						c-0.244,0.579-0.913,0.849-1.492,0.604L308.021,343.181z"/>
					<path style="fill:#282829;" d="M245.637,316.69c-0.579-0.246-0.849-0.915-0.604-1.494l3.56-8.382
						c0.243-0.58,0.915-0.849,1.493-0.604l15.506,6.583c0.581,0.249,0.852,0.915,0.604,1.497l-3.56,8.382
						c-0.246,0.576-0.915,0.846-1.493,0.603L245.637,316.69z"/>
				</g>
				<g>
					<path style="fill:#282829;" d="M300.784,350.022c-0.444-0.446-0.444-1.166,0-1.61l6.442-6.439c0.443-0.443,1.164-0.443,1.609,0
						l11.911,11.916c0.444,0.443,0.444,1.167,0,1.61l-6.442,6.438c-0.442,0.444-1.163,0.444-1.607,0L300.784,350.022z"/>
					<path style="fill:#282829;" d="M252.867,302.09c-0.445-0.446-0.445-1.166,0-1.609l6.439-6.44c0.445-0.446,1.166-0.446,1.61,0
						l11.912,11.916c0.444,0.443,0.444,1.167,0,1.61l-6.439,6.439c-0.447,0.443-1.167,0.443-1.611,0L252.867,302.09z"/>
				</g>
				<g>
					<path style="fill:#282829;" d="M291.903,353.578c-0.255-0.575,0.003-1.247,0.58-1.502l8.33-3.684
						c0.572-0.254,1.246,0.007,1.499,0.579l6.817,15.409c0.254,0.573-0.008,1.248-0.582,1.5l-8.328,3.687
						c-0.573,0.254-1.247-0.007-1.502-0.582L291.903,353.578z"/>
					<path style="fill:#282829;" d="M264.484,291.597c-0.253-0.575,0.006-1.248,0.581-1.503l8.328-3.683
						c0.574-0.255,1.245,0.006,1.503,0.579l6.815,15.409c0.255,0.575-0.006,1.248-0.583,1.502l-8.327,3.684
						c-0.574,0.255-1.249-0.007-1.504-0.579L264.484,291.597z"/>
				</g>
				<g>
					<path style="fill:#282829;" d="M312.423,323.024c-0.577,0.252-1.248-0.013-1.499-0.588l-3.642-8.347
						c-0.251-0.576,0.012-1.248,0.588-1.499l15.442-6.736c0.579-0.253,1.248,0.011,1.5,0.588l3.641,8.349
						c0.251,0.576-0.012,1.248-0.588,1.497L312.423,323.024z"/>
					<path style="fill:#282829;" d="M250.3,350.123c-0.576,0.25-1.247-0.012-1.5-0.588l-3.641-8.349
						c-0.25-0.576,0.013-1.248,0.588-1.5l15.445-6.736c0.576-0.248,1.246,0.013,1.497,0.591l3.642,8.348
						c0.251,0.575-0.014,1.247-0.587,1.499L250.3,350.123z"/>
				</g>
				<g>
					<path style="fill:#282829;" d="M301.692,306.559c-0.237,0.582-0.901,0.861-1.481,0.625l-8.434-3.439
						c-0.584-0.239-0.863-0.902-0.623-1.484l6.358-15.601c0.238-0.582,0.903-0.861,1.484-0.624l8.434,3.437
						c0.582,0.24,0.861,0.903,0.625,1.485L301.692,306.559z"/>
					<path style="fill:#282829;" d="M276.1,369.318c-0.238,0.581-0.905,0.864-1.483,0.623l-8.433-3.436
						c-0.582-0.237-0.861-0.903-0.624-1.484l6.363-15.602c0.235-0.582,0.901-0.863,1.483-0.627l8.433,3.44
						c0.581,0.236,0.861,0.901,0.624,1.484L276.1,369.318z"/>
				</g>
				<g>
					<path style="fill:#282829;" d="M308.838,314.009c-0.446,0.443-1.165,0.443-1.609,0l-6.442-6.438
						c-0.443-0.447-0.443-1.167,0-1.611l11.914-11.915c0.445-0.443,1.165-0.443,1.61,0l6.441,6.441c0.444,0.444,0.444,1.165,0,1.607
						L308.838,314.009z"/>
					<path style="fill:#282829;" d="M260.91,361.935c-0.44,0.444-1.163,0.444-1.61,0l-6.437-6.44c-0.447-0.447-0.447-1.166,0-1.613
						l11.914-11.912c0.444-0.444,1.165-0.444,1.61,0l6.44,6.439c0.443,0.447,0.443,1.167,0,1.611L260.91,361.935z"/>
				</g>
				<g>
					<path style="fill:#282829;" d="M312.272,333.68c-0.628,0-1.138-0.511-1.138-1.137v-9.108c0-0.627,0.51-1.14,1.138-1.14h16.847
						c0.628,0,1.14,0.513,1.14,1.14v9.108c0,0.626-0.511,1.137-1.14,1.137H312.272z"/>
					<path style="fill:#282829;" d="M244.493,333.68c-0.628,0-1.138-0.511-1.138-1.137v-9.108c0-0.627,0.51-1.14,1.138-1.14h16.85
						c0.629,0,1.14,0.513,1.14,1.14v9.108c0,0.626-0.51,1.137-1.14,1.137H244.493z"/>
				</g>
				<g>
					<path style="fill:#282829;" d="M292.5,302.525c0,0.627-0.513,1.14-1.14,1.14h-9.107c-0.628,0-1.141-0.513-1.141-1.14v-16.849
						c0-0.631,0.513-1.14,1.141-1.14h9.107c0.627,0,1.14,0.509,1.14,1.14V302.525z"/>
					<path style="fill:#282829;" d="M292.5,370.301c0,0.628-0.513,1.138-1.14,1.138h-9.107c-0.628,0-1.141-0.51-1.141-1.138v-16.848
						c0-0.63,0.513-1.141,1.141-1.141h9.107c0.627,0,1.14,0.511,1.14,1.141V370.301z"/>
				</g>
			</g>
			<path style="fill:#828487;" d="M315.287,327.99c0,15.728-12.749,28.479-28.481,28.479c-15.729,0-28.481-12.752-28.481-28.479
				c0-15.73,12.752-28.482,28.481-28.482C302.538,299.508,315.287,312.26,315.287,327.99z"/>
			<path style="fill:#6B6C6F;" d="M311.724,327.99c0,13.761-11.153,24.917-24.918,24.917c-13.763,0-24.918-11.156-24.918-24.917
				c0-13.762,11.155-24.92,24.918-24.92C300.571,303.07,311.724,314.228,311.724,327.99z"/>
			<path style="fill:#CDCFD0;" d="M300.787,327.99c0,7.72-6.259,13.979-13.98,13.979c-7.721,0-13.98-6.26-13.98-13.979
				c0-7.723,6.259-13.981,13.98-13.981C294.527,314.009,300.787,320.268,300.787,327.99z"/>
		</g>
	</g>
	<polygon points="157.724,271.683 144.172,271.683 136.178,223.946 149.732,221.679 	"/>
	<polygon points="193.985,245.6 198.293,271.298 202.11,271.298 197.857,245.6 	"/>
	<rect x="148.69" y="262.733" width="37.444" height="8.949"/>
	<g>
		<path style="fill:#ED1C24;" d="M110.469,336.889c-1.764-4.574-2.734-9.543-2.734-14.738c0-22.621,18.336-40.957,40.955-40.957
			c22.619,0,40.958,18.336,40.958,40.957c0,5.195-0.971,10.164-2.737,14.738h17.759c1.237-4.705,1.897-9.645,1.897-14.738
			c0-31.967-25.912-57.878-57.876-57.878c-31.964,0-57.876,25.911-57.876,57.878c0,5.094,0.66,10.033,1.899,14.738H110.469z"/>
		<g>
			<g>
				<path style="fill:#282829;" d="M190.504,321.636c0,23.09-18.724,41.81-41.814,41.81c-23.091,0-41.811-18.721-41.811-41.81
					c0-23.093,18.719-41.811,41.811-41.811C171.78,279.825,190.504,298.543,190.504,321.636z"/>
				<g>
					<path style="fill:#282829;" d="M173.297,338.661c-0.674-0.285-0.982-1.059-0.7-1.73l4.128-9.724
						c0.29-0.671,1.064-0.982,1.735-0.698l17.986,7.639c0.672,0.285,0.985,1.062,0.699,1.733l-4.127,9.721
						c-0.285,0.671-1.06,0.982-1.73,0.701L173.297,338.661z"/>
					<path style="fill:#282829;" d="M100.939,307.936c-0.672-0.287-0.987-1.062-0.702-1.733l4.129-9.723
						c0.286-0.673,1.062-0.984,1.729-0.699l17.99,7.639c0.67,0.284,0.983,1.058,0.699,1.73l-4.13,9.723
						c-0.285,0.672-1.058,0.986-1.731,0.702L100.939,307.936z"/>
				</g>
				<g>
					<path style="fill:#282829;" d="M164.903,346.597c-0.516-0.516-0.516-1.353,0-1.866l7.471-7.47c0.514-0.516,1.352-0.516,1.868,0
						l13.817,13.823c0.516,0.513,0.516,1.35,0,1.864l-7.474,7.469c-0.516,0.516-1.35,0.516-1.865,0L164.903,346.597z"/>
					<path style="fill:#282829;" d="M109.324,290.999c-0.516-0.516-0.516-1.352,0-1.868l7.471-7.468
						c0.515-0.516,1.353-0.516,1.866,0l13.82,13.823c0.513,0.513,0.513,1.35-0.003,1.865l-7.469,7.468
						c-0.517,0.516-1.351,0.516-1.867,0L109.324,290.999z"/>
				</g>
				<g>
					<path style="fill:#282829;" d="M154.602,350.724c-0.295-0.666,0.006-1.448,0.671-1.742l9.663-4.275
						c0.668-0.294,1.449,0.006,1.743,0.672l7.905,17.875c0.294,0.665-0.006,1.445-0.674,1.742l-9.66,4.271
						c-0.666,0.294-1.446-0.006-1.741-0.671L154.602,350.724z"/>
					<path style="fill:#282829;" d="M122.796,278.829c-0.293-0.665,0.009-1.448,0.675-1.742l9.661-4.274
						c0.667-0.294,1.445,0.007,1.741,0.675l7.908,17.872c0.294,0.666-0.009,1.445-0.678,1.742l-9.66,4.272
						c-0.666,0.294-1.446-0.007-1.743-0.673L122.796,278.829z"/>
				</g>
				<g>
					<path style="fill:#282829;" d="M178.402,315.283c-0.667,0.291-1.445-0.015-1.736-0.681l-4.226-9.684
						c-0.291-0.669,0.017-1.446,0.684-1.739l17.914-7.813c0.669-0.291,1.446,0.015,1.737,0.681l4.224,9.685
						c0.291,0.668-0.014,1.447-0.682,1.739L178.402,315.283z"/>
					<path style="fill:#282829;" d="M106.346,346.714c-0.671,0.291-1.448-0.016-1.738-0.681l-4.224-9.685
						c-0.293-0.665,0.015-1.444,0.684-1.738l17.91-7.814c0.669-0.294,1.448,0.015,1.738,0.684l4.223,9.682
						c0.292,0.669-0.012,1.449-0.683,1.738L106.346,346.714z"/>
				</g>
				<g>
					<path style="fill:#282829;" d="M165.956,296.186c-0.274,0.675-1.043,0.998-1.72,0.723l-9.781-3.99
						c-0.678-0.274-1.001-1.046-0.725-1.721l7.379-18.096c0.274-0.676,1.047-0.999,1.721-0.724l9.78,3.988
						c0.677,0.276,1.002,1.047,0.725,1.723L165.956,296.186z"/>
					<path style="fill:#282829;" d="M136.273,368.979c-0.274,0.671-1.046,0.998-1.723,0.722l-9.78-3.988
						c-0.678-0.275-0.998-1.047-0.726-1.722l7.381-18.096c0.276-0.676,1.047-0.999,1.722-0.724l9.783,3.988
						c0.673,0.276,0.999,1.048,0.723,1.723L136.273,368.979z"/>
				</g>
				<g>
					<path style="fill:#282829;" d="M174.246,304.822c-0.516,0.516-1.353,0.516-1.868,0l-7.468-7.467
						c-0.517-0.517-0.517-1.353,0-1.869l13.816-13.816c0.516-0.52,1.351-0.52,1.869,0l7.468,7.468c0.515,0.516,0.515,1.352,0,1.864
						L174.246,304.822z"/>
					<path style="fill:#282829;" d="M118.654,360.414c-0.513,0.516-1.351,0.516-1.865,0l-7.471-7.472
						c-0.514-0.515-0.514-1.353,0-1.865l13.819-13.819c0.516-0.52,1.354-0.52,1.867,0l7.47,7.468c0.516,0.519,0.516,1.353,0,1.868
						L118.654,360.414z"/>
				</g>
				<g>
					<path style="fill:#282829;" d="M178.229,327.643c-0.731,0-1.322-0.59-1.322-1.32v-10.561c0-0.733,0.591-1.323,1.322-1.323
						h19.541c0.729,0,1.32,0.591,1.32,1.323v10.561c0,0.73-0.591,1.32-1.32,1.32H178.229z"/>
					<path style="fill:#282829;" d="M99.61,327.643c-0.726,0-1.316-0.59-1.316-1.32v-10.561c0-0.733,0.59-1.323,1.316-1.323h19.545
						c0.729,0,1.319,0.591,1.319,1.323v10.561c0,0.73-0.59,1.32-1.319,1.32H99.61z"/>
				</g>
				<g>
					<path style="fill:#282829;" d="M155.294,291.507c0,0.726-0.592,1.315-1.32,1.315H143.41c-0.73,0-1.32-0.59-1.32-1.315v-19.546
						c0-0.729,0.591-1.319,1.32-1.319h10.563c0.729,0,1.32,0.591,1.32,1.319V291.507z"/>
					<path style="fill:#282829;" d="M155.294,370.119c0,0.728-0.592,1.319-1.32,1.319H143.41c-0.73,0-1.32-0.591-1.32-1.319v-19.543
						c0-0.728,0.591-1.318,1.32-1.318h10.563c0.729,0,1.32,0.591,1.32,1.318V370.119z"/>
				</g>
			</g>
			<circle style="fill:#828487;" cx="148.69" cy="321.038" r="33.035"/>
			<path style="fill:#6B6C6F;" d="M177.594,321.038c0,15.964-12.939,28.906-28.904,28.906c-15.961,0-28.902-12.942-28.902-28.906
				c0-15.961,12.941-28.901,28.902-28.901C164.655,292.137,177.594,305.077,177.594,321.038z"/>
			<path style="fill:#CDCFD0;" d="M164.91,321.038c0,8.959-7.263,16.22-16.219,16.22c-8.955,0-16.216-7.261-16.216-16.22
				c0-8.955,7.261-16.216,16.216-16.216C157.647,304.822,164.91,312.083,164.91,321.038z"/>
		</g>
	</g>
	<rect x="178.98" y="244.8" transform="matrix(0.8531 -0.5218 0.5218 0.8531 -100.2178 137.4763)" width="30.017" height="3.762"/>
	<polygon style="fill:#BE1E2D;" points="218.461,284.891 191.208,182.189 199.933,180.45 227.186,283.15 	"/>
	<rect x="100.462" y="176.299" width="121.621" height="15.511"/>
	<rect x="258.672" y="177.589" style="fill:#BCBEC0;" width="16.502" height="6.466"/>
	<g>
		<rect x="213.87" y="285.19" style="fill:#6C0007;" width="4.232" height="29.368"/>
		<rect x="219.472" y="285.19" style="fill:#6C0007;" width="4.229" height="29.368"/>
		<rect x="225.073" y="285.19" style="fill:#6C0007;" width="4.231" height="29.368"/>
		<rect x="230.674" y="285.19" style="fill:#6C0007;" width="4.232" height="29.368"/>
	</g>
</g>
<path style="fill:#D1D3D4;" d="M292.545,86.781c-4.467-0.697-8.907,0.869-10.722,5.104c-4.228,2.495-5.408,6.54-4.674,10.305
	c-0.276,0.403-0.523,0.821-0.721,1.267c-0.673,0.324-1.287,0.755-1.849,1.263c-4.789-0.936-9.603,2.196-11.05,6.792
	c-0.341,1.084-0.522,2.136-0.564,3.144c-2.45,1.812-4.213,4.593-4.579,8.066c-0.293,2.793,0.555,5.196,2.061,7.051
	c-0.06,1.377,0.158,2.817,0.714,4.287c-0.099,0.702-0.128,1.407-0.09,2.105c-0.07-0.087-0.128-0.174-0.204-0.261
	c-2.719-3.228-7.264-2.907-10.687-1.379c-8.267,3.689-6.56,16.795,0.36,20.847c0.053,0.03,0.107,0.058,0.159,0.087
	c1.132,2.195,2.792,4.136,4.887,5.579c0.027,0.066,0.051,0.135,0.079,0.198c0.348,0.815,0.764,1.539,1.234,2.184
	c2.788,10.04,14.83,8.977,21.191,3.62c2.252-1.896,3.635-4.595,4.148-7.447c2.652-3.875,3.921-8.616,2.531-12.575
	c0.151-1.019,0.199-2.015,0.147-2.981c1.787-3.347,2.628-7.18,1.794-10.725c0.749-3.262,0.004-6.354-1.696-8.866
	c0.279-0.191,0.554-0.387,0.824-0.591c5.325-1.819,8.626-6.567,9.322-11.615c0.796-1.083,1.483-2.294,2.06-3.595
	c0.598-1.351,1.011-2.754,1.223-4.164c1.052-1.323,1.869-2.797,2.235-4.454C302.043,93.851,299.228,87.822,292.545,86.781z"/>
</svg>
