<?xml version="1.0" encoding="utf-8"?>
<!-- Generator: Adobe Illustrator 27.5.0, SVG Export Plug-In . SVG Version: 6.00 Build 0)  -->
<svg version="1.1" xmlns="http://www.w3.org/2000/svg" xmlns:xlink="http://www.w3.org/1999/xlink" x="0px" y="0px"
	 viewBox="0 0 500 500" style="enable-background:new 0 0 500 500;" xml:space="preserve">
<g id="BACKGROUND">
	<rect style="fill:#F9E6D4;" width="500" height="500"/>
</g>
<g id="OBJECTS">
	<g>
		<defs>
			<rect id="SVGID_1_" width="500" height="500"/>
		</defs>
		<clipPath id="SVGID_00000145019096936997935000000009272342881287311752_">
			<use xlink:href="#SVGID_1_"  style="overflow:visible;"/>
		</clipPath>
		<g style="clip-path:url(#SVGID_00000145019096936997935000000009272342881287311752_);">
			<g>
				<path style="fill:#25564D;" d="M514.896,134.84c-7.289,5.169-15.423,8.6-25.677,8.352c-6.997-0.169-13.778-2.505-20.108-5.493
					c-5.413-2.555-11.172-5.697-17.034-4.484c-8.531,1.764-13.148,11.9-21.542,14.229c-3.015,0.836-6.248,0.557-9.272-0.244
					c-20.569-5.448-17.085-28.111-31.642-38.95c-4.909-3.655-11.612-4.486-16.106-8.641c-5.553-5.134-6.047-13.917-3.88-21.162
					c2.167-7.245,6.484-13.64,9.427-20.605c7.93-18.768-9.488-34.988,2.527-53.874c14.157-22.252,33.864-8.354,52.708-16.57
					c4.455-1.942,8.22-5.138,12.085-8.083c4.969-3.787,10.268-7.254,16.147-9.37c10.402-3.744,22.844-2.702,31.445,4.243
					c8.602,6.945,12.121,20.151,6.636,29.749c2.011,11.079,12.404,16.239,21.933,22.236c9.53,5.997,19.62,15.226,17.817,26.34
					c-1.291,7.957-8.509,13.997-9.714,21.968c-2.84,18.789,17.25,29.275-0.198,46.576
					C525.381,126.084,520.377,130.953,514.896,134.84z"/>
				<path style="fill:#19443C;" d="M474.005,62.445c1.668-0.931,3.008-2.606,3.542-4.429c0.534-1.823,0.252-3.757-0.747-5.113
					c-1.804,0.8-3.13,2.007-3.773,3.896C472.384,58.687,472.954,61.035,474.005,62.445z"/>
				<path style="fill:#357266;" d="M468.416,43.534c1.585-1.067,2.78-2.848,3.161-4.709c0.38-1.861-0.062-3.765-1.17-5.033
					c-1.731,0.947-2.952,2.26-3.436,4.196C466.487,39.924,467.251,42.216,468.416,43.534z"/>
				<path style="fill:#357266;" d="M492.245,66.208c1.22,1.471,3.111,2.483,5.001,2.675c1.89,0.193,3.74-0.437,4.892-1.666
					c-1.115-1.628-2.543-2.712-4.518-3C495.645,63.929,493.44,64.917,492.245,66.208z"/>
				<path style="fill:#19443C;" d="M444.947,63.84c0.47-1.852,0.173-3.976-0.785-5.617c-0.958-1.64-2.557-2.764-4.228-2.971
					c-0.658,1.86-0.693,3.653,0.238,5.418C441.103,62.436,443.2,63.635,444.947,63.84z"/>
				<path style="fill:#357266;" d="M444.947,43.84c0.47-1.852,0.173-3.976-0.785-5.617c-0.958-1.64-2.557-2.764-4.228-2.971
					c-0.658,1.86-0.693,3.653,0.238,5.418C441.103,42.436,443.2,43.635,444.947,43.84z"/>
				<path style="fill:#357266;" d="M403.793,63.593c-1.445-1.25-3.477-1.938-5.372-1.817c-1.896,0.12-3.617,1.046-4.551,2.447
					c1.368,1.422,2.955,2.257,4.95,2.217C400.814,66.4,402.826,65.063,403.793,63.593z"/>
				<path style="fill:#357266;" d="M403.331,16.222c-0.604-1.813-2-3.441-3.691-4.306c-1.691-0.865-3.644-0.948-5.163-0.22
					c0.45,1.921,1.388,3.45,3.124,4.434C399.336,17.114,401.749,16.992,403.331,16.222z"/>
				<path style="fill:#19443C;" d="M395.759,84.318c-1.511-1.169-3.578-1.744-5.464-1.519c-1.886,0.224-3.554,1.243-4.41,2.693
					c1.444,1.345,3.074,2.092,5.064,1.942C392.939,87.284,394.875,85.838,395.759,84.318z"/>
				<path style="fill:#357266;" d="M422.795,77.513c-1.193-1.492-3.066-2.537-4.952-2.763c-1.886-0.226-3.747,0.371-4.92,1.579
					c1.086,1.647,2.495,2.757,4.464,3.08C419.356,79.732,421.578,78.783,422.795,77.513z"/>
				<path style="fill:#357266;" d="M434.558,123.741c-1.908,0.103-3.847,1.019-5.128,2.421c-1.281,1.403-1.878,3.264-1.577,4.921
					c1.972,0.074,3.694-0.426,5.102-1.84C434.362,127.829,434.882,125.47,434.558,123.741z"/>
				<path style="fill:#357266;" d="M470.977,115.928c0.404,1.868,1.615,3.638,3.203,4.681c1.588,1.043,3.52,1.337,5.108,0.779
					c-0.239-1.959-1.005-3.58-2.624-4.746C475.045,115.475,472.633,115.335,470.977,115.928z"/>
				<path style="fill:#19443C;" d="M483.977,108.928c0.404,1.868,1.615,3.638,3.203,4.681c1.588,1.043,3.52,1.337,5.108,0.779
					c-0.239-1.959-1.005-3.58-2.624-4.746C488.045,108.475,485.633,108.335,483.977,108.928z"/>
				<path style="fill:#19443C;" d="M415.947,43.84c0.47-1.852,0.173-3.976-0.785-5.617c-0.958-1.64-2.557-2.764-4.228-2.971
					c-0.658,1.86-0.693,3.653,0.238,5.418C412.103,42.436,414.2,43.635,415.947,43.84z"/>
				
					<path style="opacity:0.58;fill:none;stroke:#14332D;stroke-width:1.4;stroke-linecap:round;stroke-linejoin:round;stroke-miterlimit:10;" d="
					M429.947,29.84c0.47-1.852,0.173-3.976-0.785-5.617c-0.958-1.64-2.557-2.764-4.228-2.971c-0.658,1.86-0.693,3.653,0.238,5.418
					C426.103,28.436,428.2,29.635,429.947,29.84z"/>
				
					<path style="opacity:0.58;fill:none;stroke:#14332D;stroke-width:1.4998;stroke-linecap:round;stroke-linejoin:round;stroke-miterlimit:10;" d="
					M432.489,97.062c-2.152-0.173-4.53,0.461-6.289,1.676c-1.759,1.215-2.862,2.987-2.916,4.685c2.181,0.36,4.22,0.109,6.122-1.099
					C431.309,101.116,432.444,98.835,432.489,97.062z"/>
				<path style="fill:#19443C;" d="M457.383,18.607c1.351-1.351,2.184-3.327,2.201-5.227c0.017-1.9-0.782-3.683-2.112-4.716
					c-1.518,1.261-2.465,2.784-2.569,4.777C454.799,15.432,455.987,17.536,457.383,18.607z"/>
				
					<path style="opacity:0.58;fill:none;stroke:#14332D;stroke-width:1.4;stroke-linecap:round;stroke-linejoin:round;stroke-miterlimit:10;" d="
					M486.306,39.641c1.893-0.255,3.754-1.323,4.918-2.824s1.611-3.403,1.179-5.031c-1.971,0.083-3.648,0.72-4.938,2.242
					C486.174,35.551,485.844,37.944,486.306,39.641z"/>
				<path style="fill:#25564D;" d="M443.668,152.064c2.087-1.081,3.799-3.09,4.526-5.312c0.727-2.221,0.453-4.611-0.722-6.317
					c-2.249,0.915-3.926,2.348-4.79,4.646C441.818,147.38,442.429,150.29,443.668,152.064z"/>
				<path style="fill:#25564D;" d="M369.735,39.041c0.112,2.348,1.223,4.742,2.938,6.329c1.716,1.588,4.001,2.336,6.042,1.98
					c0.107-2.426-0.495-4.548-2.223-6.292C374.764,39.314,371.865,38.655,369.735,39.041z"/>
				<path style="fill:#19443C;" d="M465.986,140.943c-0.517,2.293-0.082,4.896,1.15,6.883c1.232,1.986,3.236,3.316,5.298,3.515
					c0.748-2.31,0.732-4.516-0.471-6.656C470.761,142.544,468.141,141.138,465.986,140.943z"/>
				<path style="fill:#F9E6D4;" d="M395.828,108.752c-2.35-0.066-4.821,0.862-6.533,2.453c-1.712,1.591-2.631,3.813-2.429,5.876
					c2.41,0.29,4.573-0.151,6.441-1.743C395.176,113.746,396.052,110.905,395.828,108.752z"/>
				<path style="fill:#F9E6D4;" d="M402.828,115.752c-2.35-0.066-4.821,0.862-6.533,2.453c-1.712,1.591-2.631,3.813-2.429,5.876
					c2.41,0.29,4.573-0.151,6.441-1.743C402.176,120.746,403.052,117.905,402.828,115.752z"/>
				<path style="fill:#25564D;" d="M474.798,142.97c-0.35,1.555-0.055,3.32,0.78,4.667c0.835,1.347,2.194,2.248,3.593,2.383
					c0.507-1.566,0.496-3.062-0.319-4.514C478.036,144.056,476.26,143.102,474.798,142.97z"/>
				<path style="fill:#19443C;" d="M365.395,54.606c1.987,1.257,4.584,1.722,6.869,1.229c2.285-0.493,4.21-1.934,5.09-3.81
					c-1.924-1.481-4.008-2.206-6.428-1.793C368.506,50.646,366.302,52.641,365.395,54.606z"/>
			</g>
			<g>
				<path style="fill:#AE6E5A;" d="M455,51c-0.088-3.74,3.001-3.231,3-1c0,36.964,5.867,125.279,5.853,162.242
					c-0.003,6.239,1.147,17.191,0.925,24.604c-0.032,1.06-11.55,3.99-11.964,0c-0.466-4.498-0.372-10.872-0.407-12.379
					c-0.433-18.467-0.865-36.934-1.298-55.4C450.614,147.962,455.494,72.105,455,51z"/>
				<path style="fill:#AE6E5A;" d="M454.159,108.151C445.68,97.131,438.262,84.857,431,73c-1.885-3.077-4.272-5.706-3.744-9.276
					c0.112-0.757,20.437,28.6,29.744,40.276"/>
				<path style="fill:#AE6E5A;" d="M456.82,121.035c8.58-10.941,16.111-23.146,23.483-34.936c1.913-3.06,4.325-5.666,3.829-9.241
					c-0.105-0.758-20.701,28.41-30.115,39.999"/>
				
					<path style="opacity:0.57;fill:none;stroke:#753A38;stroke-width:1.5846;stroke-linecap:round;stroke-linejoin:round;stroke-miterlimit:10;" d="
					M453.952,195.07c1.767-1.19,2.919-3.248,3.007-5.377c0.088-2.129-0.889-4.275-2.552-5.607"/>
				
					<path style="opacity:0.57;fill:none;stroke:#753A38;stroke-width:1.5846;stroke-linecap:round;stroke-linejoin:round;stroke-miterlimit:10;" d="
					M453.199,175.627c3.92,2.718,6.698,7.032,7.55,11.726"/>
				
					<path style="opacity:0.57;fill:none;stroke:#753A38;stroke-width:1.5846;stroke-linecap:round;stroke-linejoin:round;stroke-miterlimit:10;" d="
					M459.968,170.167c-3.05-6.821-3.232-14.535-3.203-22.007c0.024-5.959,0.15-11.918,0.378-17.873"/>
				
					<path style="opacity:0.57;fill:none;stroke:#753A38;stroke-width:1.5846;stroke-linecap:round;stroke-linejoin:round;stroke-miterlimit:10;" d="
					M454.455,131.611c0.232-3.201,0.217-6.42-0.044-9.619"/>
				
					<path style="opacity:0.57;fill:none;stroke:#753A38;stroke-width:1.5846;stroke-linecap:round;stroke-linejoin:round;stroke-miterlimit:10;" d="
					M456.991,107.057c-0.01-3.428-0.021-6.856-0.031-10.285"/>
				
					<path style="opacity:0.57;fill:none;stroke:#753A38;stroke-width:1.5846;stroke-linecap:round;stroke-linejoin:round;stroke-miterlimit:10;" d="
					M455.168,49.286c0.557,0.81,1.716,1.139,2.616,0.744"/>
				
					<path style="opacity:0.57;fill:none;stroke:#753A38;stroke-width:1.5846;stroke-linecap:round;stroke-linejoin:round;stroke-miterlimit:10;" d="
					M456.712,87.157c0.112,0.885,0.225,1.769,0.337,2.654"/>
			</g>
		</g>
		<g style="clip-path:url(#SVGID_00000145019096936997935000000009272342881287311752_);">
			<path style="fill:#22754D;" d="M538.124,246.069c1.618-24.878-12.323-52.724-36.704-57.927
				c-20.247-4.321-40.777,8.07-53.828,24.142c-2.885,3.553-5.752,7.477-10.01,9.156c-10.334,4.077-20.746-7.156-31.852-6.93
				c-11.457,0.233-18.772,11.974-23.677,22.331c-4.905,10.357-11.532,22.271-22.932,23.431
				c-11.945,1.216-21.522-10.352-33.383-12.219c-8.193-1.29-16.976,2.674-21.43,9.672c-3.03,4.761-4.122,10.612-7.486,15.142
				c-17.552,23.635-31.941-12.981-47.199-13.991c-6.74-0.445-12.741,3.94-19.224,5.829c-28.998,8.449-29.427-32.067-54.819-29.648
				c-9.658,0.92-18.223,9.18-27.765,7.437c-17.275-3.156-15.869-32.653-32.147-39.241c-10.126-4.099-21.829,3.102-32.393,0.319
				c-15.977-4.208-19.259-27.31-34.104-34.563c-9.062-4.427-20.029-1.639-29.017,2.937c-13.586,6.919-25.8,19.157-27.196,34.34
				c-1.545,16.815-4.511,32.406-4.515,49.292c-0.001,4.568,0.145,9.317,2.213,13.39c4.39,8.647,15.39,11.084,24.989,12.459
				c174.471,24.989,353.425,19.491,525.66-17.922C541.44,256.691,537.682,252.871,538.124,246.069z"/>
			<g>
				<path style="fill:#31996A;" d="M258,330.62c-2.064-15.332-6.7-33.797-21.56-37.944c-8.898-2.483-19.529,1.159-26.986-4.308
					c-5.878-4.309-7.255-12.637-12.285-17.917c-7.25-7.612-19.549-6.719-29.681-3.974c-10.132,2.745-20.786,6.786-30.793,3.615
					c-15.325-4.855-22.639-24.674-38.31-28.248c-7.063-1.611-14.538,0.502-21.652-0.87c-17.909-3.455-24.666-25.581-38.932-36.976
					c-10.861-8.675-26.734-10.486-39.26-4.48c-12.526,6.006-21.089,19.533-21.18,33.459c-0.106,16.293-2.351,29.544-2.003,45.834
					c0.217,10.159,0.67,21.044,6.697,29.212c7.634,10.345,21.645,13.089,34.325,15.059C95.415,335.363,180.377,349.939,258,330.62z"
					/>
				<path style="fill:#31996A;" d="M541.813,295.587c-6.438-19.382-13.085-39.176-24.756-54.978
					c-11.671-15.801-29.536-27.118-47.324-23.941c-10.909,1.948-20.949,9.088-31.985,9.41c-6.033,0.176-11.95-1.713-17.931-2.647
					c-17.548-2.742-35.986,3.14-49.816,15.892c-15.186,14.001-26.329,36.55-45.485,40.394c-15.258,3.062-30.036-7.215-45.436-9.108
					c-14.728-1.811-29.536,4.243-41.961,13.54c-12.425,9.296-22.831,21.694-33.12,33.98
					c72.331,17.789,147.133,23.373,220.699,14.599c12.49-1.49,24.954-3.363,37.492-4.148c18.892-1.183,37.828,0.113,56.709,1.508
					c7.001,0.518,14.375,0.969,20.672-2.599C545.868,323.92,544.323,303.141,541.813,295.587z"/>
				<path style="fill:none;stroke:#175637;stroke-width:1.4;stroke-linecap:round;stroke-linejoin:round;stroke-miterlimit:10;" d="
					M452.257,311.818c6.833-21.389,14.15-42.624,21.943-63.682"/>
				<path style="fill:none;stroke:#175637;stroke-width:1.4;stroke-linecap:round;stroke-linejoin:round;stroke-miterlimit:10;" d="
					M441.759,250.111c2.093,17.573,4.186,35.146,6.279,52.719"/>
				<path style="fill:none;stroke:#175637;stroke-width:1.4;stroke-linecap:round;stroke-linejoin:round;stroke-miterlimit:10;" d="
					M415.233,271.987c5,11.935,9.999,23.87,14.999,35.806"/>
				<path style="fill:none;stroke:#175637;stroke-width:1.4;stroke-linecap:round;stroke-linejoin:round;stroke-miterlimit:10;" d="
					M464.033,275.887c6.682-4.578,13.363-9.157,20.045-13.735"/>
				<path style="fill:none;stroke:#175637;stroke-width:1.4;stroke-linecap:round;stroke-linejoin:round;stroke-miterlimit:10;" d="
					M150.044,289.622c3.953,7.661,8.139,15.202,12.549,22.609"/>
				<path style="fill:none;stroke:#175637;stroke-width:1.4;stroke-linecap:round;stroke-linejoin:round;stroke-miterlimit:10;" d="
					M173.859,288.893c-0.21,8.237,0.381,16.495,1.761,24.618"/>
				<path style="fill:none;stroke:#175637;stroke-width:1.4;stroke-linecap:round;stroke-linejoin:round;stroke-miterlimit:10;" d="
					M174.691,301.462c2.271-4.223,4.963-8.219,8.023-11.91"/>
				<path style="fill:none;stroke:#175637;stroke-width:1.4;stroke-linecap:round;stroke-linejoin:round;stroke-miterlimit:10;" d="
					M-8.571,249.816c12.121,22.872,25.233,45.218,39.287,66.955"/>
				<path style="fill:none;stroke:#175637;stroke-width:1.4;stroke-linecap:round;stroke-linejoin:round;stroke-miterlimit:10;" d="
					M8.26,248.075c-0.566,10.285-0.252,20.619,0.937,30.851"/>
				<path style="fill:none;stroke:#175637;stroke-width:1.4;stroke-linecap:round;stroke-linejoin:round;stroke-miterlimit:10;" d="
					M32.917,244.092c0.306,22.349,2.236,44.676,5.769,66.746"/>
			</g>
		</g>
		<path style="clip-path:url(#SVGID_00000145019096936997935000000009272342881287311752_);fill:#A1B77D;" d="M515,512
			c0,0-529.999,0-530,0c0,0,0-100.303,0-107.135c0-20.554,0-41.108,0-61.663c0-7.353,0.001-14.706,0-22.06
			c-0.002-8.618-1.473-11.751,7.159-14.194c8.594-2.433,22.967,1.134,31.979,1.552c9.82,0.455,19.642,0.892,29.465,1.289
			c20.46,0.827,40.926,1.498,61.4,1.856c40.906,0.716,81.861,0.212,122.681-2.689c51.47-3.658,204.668-10.054,229.385-5.564
			C470.229,303.967,515,311.494,515,308C515,308.307,515,512,515,512z"/>
	</g>
	<g>
		<path style="fill:none;stroke:#738449;stroke-width:1.4;stroke-linecap:round;stroke-linejoin:round;stroke-miterlimit:10;" d="
			M193.385,402.005c0.43,1.331,0.859,2.662,1.289,3.994"/>
		<path style="fill:none;stroke:#738449;stroke-width:1.4;stroke-linecap:round;stroke-linejoin:round;stroke-miterlimit:10;" d="
			M198.664,398.045c-0.183,2.877-0.115,5.77,0.202,8.636"/>
		<path style="fill:none;stroke:#738449;stroke-width:1.4;stroke-linecap:round;stroke-linejoin:round;stroke-miterlimit:10;" d="
			M203.207,401.698c0.119,1.548,0.239,3.095,0.358,4.643"/>
		<path style="fill:none;stroke:#738449;stroke-width:1.4;stroke-linecap:round;stroke-linejoin:round;stroke-miterlimit:10;" d="
			M201.302,465.395c0.315,1.47,0.629,2.941,0.944,4.411"/>
		<path style="fill:none;stroke:#738449;stroke-width:1.4;stroke-linecap:round;stroke-linejoin:round;stroke-miterlimit:10;" d="
			M206.274,461.842c0.378,2.811,0.756,5.621,1.134,8.431"/>
		<path style="fill:none;stroke:#738449;stroke-width:1.4;stroke-linecap:round;stroke-linejoin:round;stroke-miterlimit:10;" d="
			M213.232,464.955c0,1.77,0,3.539,0,5.309"/>
		<path style="fill:none;stroke:#738449;stroke-width:1.4;stroke-linecap:round;stroke-linejoin:round;stroke-miterlimit:10;" d="
			M222.995,464.517c-0.243,2.068-0.125,4.177,0.348,6.205"/>
		<path style="fill:none;stroke:#738449;stroke-width:1.4;stroke-linecap:round;stroke-linejoin:round;stroke-miterlimit:10;" d="
			M448.808,339.979c0.664,1.77,1.327,3.539,1.991,5.309"/>
		<path style="fill:none;stroke:#738449;stroke-width:1.4;stroke-linecap:round;stroke-linejoin:round;stroke-miterlimit:10;" d="
			M456.142,334.002c0.453,3.538,0.906,7.076,1.359,10.613"/>
		<path style="fill:none;stroke:#738449;stroke-width:1.4;stroke-linecap:round;stroke-linejoin:round;stroke-miterlimit:10;" d="
			M464.606,337.998c0.205,2.656,0.409,5.311,0.614,7.967"/>
		<path style="fill:none;stroke:#738449;stroke-width:1.4;stroke-linecap:round;stroke-linejoin:round;stroke-miterlimit:10;" d="
			M472.07,340.649c-0.332,1.781-0.133,3.657,0.563,5.329"/>
		<path style="fill:none;stroke:#738449;stroke-width:1.4;stroke-linecap:round;stroke-linejoin:round;stroke-miterlimit:10;" d="
			M356.688,477.97c0.405,1.338,0.811,2.677,1.217,4.015"/>
		<path style="fill:none;stroke:#738449;stroke-width:1.4;stroke-linecap:round;stroke-linejoin:round;stroke-miterlimit:10;" d="
			M363.976,472.017c0.548,3.557,1.096,7.114,1.644,10.671"/>
		<path style="fill:none;stroke:#738449;stroke-width:1.4;stroke-linecap:round;stroke-linejoin:round;stroke-miterlimit:10;" d="
			M371.779,478.68c0.225,1.105,0.451,2.21,0.676,3.315"/>
		<path style="fill:none;stroke:#738449;stroke-width:1.4;stroke-linecap:round;stroke-linejoin:round;stroke-miterlimit:10;" d="
			M379.813,477.345c-0.224,1.566,0.009,3.194,0.663,4.634"/>
		<path style="fill:none;stroke:#738449;stroke-width:1.4;stroke-linecap:round;stroke-linejoin:round;stroke-miterlimit:10;" d="
			M169.495,337.978c0.259,1.628,0.518,3.256,0.776,4.884"/>
		<path style="fill:none;stroke:#738449;stroke-width:1.4;stroke-linecap:round;stroke-linejoin:round;stroke-miterlimit:10;" d="
			M174.299,334.891c0.247,2.806,0.494,5.612,0.742,8.418"/>
		<path style="fill:none;stroke:#738449;stroke-width:1.4;stroke-linecap:round;stroke-linejoin:round;stroke-miterlimit:10;" d="
			M180.981,339.326c-0.265,1.036-0.155,2.164,0.305,3.13"/>
		<path style="fill:none;stroke:#738449;stroke-width:1.4;stroke-linecap:round;stroke-linejoin:round;stroke-miterlimit:10;" d="
			M190.228,338.873c0,1.032,0,2.064,0,3.097"/>
		<path style="fill:none;stroke:#738449;stroke-width:1.4;stroke-linecap:round;stroke-linejoin:round;stroke-miterlimit:10;" d="
			M30.265,466.026c0.643,3.322,1.287,6.644,1.93,9.966"/>
		<path style="fill:none;stroke:#738449;stroke-width:1.4;stroke-linecap:round;stroke-linejoin:round;stroke-miterlimit:10;" d="
			M38.206,462.718c0.735,4.669,1.471,9.337,2.206,14.006"/>
		<path style="fill:none;stroke:#738449;stroke-width:1.4;stroke-linecap:round;stroke-linejoin:round;stroke-miterlimit:10;" d="
			M47.347,470.703c0.365,1.566,0.73,3.133,1.095,4.699"/>
		<path style="fill:none;stroke:#738449;stroke-width:1.4;stroke-linecap:round;stroke-linejoin:round;stroke-miterlimit:10;" d="
			M60.01,470.724c-0.405,1.553-0.24,3.249,0.458,4.694"/>
		<path style="fill:none;stroke:#738449;stroke-width:1.4;stroke-linecap:round;stroke-linejoin:round;stroke-miterlimit:10;" d="
			M22.297,346.596c0.205,1.993,0.41,3.985,0.614,5.977"/>
		<path style="fill:none;stroke:#738449;stroke-width:1.4;stroke-linecap:round;stroke-linejoin:round;stroke-miterlimit:10;" d="
			M26.745,342.637c0.867,3.544,1.734,7.087,2.601,10.631"/>
		<path style="fill:none;stroke:#738449;stroke-width:1.4;stroke-linecap:round;stroke-linejoin:round;stroke-miterlimit:10;" d="
			M36.053,347.942c0,1.77,0,3.539,0,5.309"/>
	</g>
	<g>
		<g>
			<g>
				<path style="fill:#25564D;" d="M282.552,341.802c-3.74-3.248-8.942-5.89-9.956-10.397c-0.825-3.667,1.533-7.32,4.382-10.12
					c2.85-2.8,6.309-5.192,8.468-8.424c3.117-4.667,2.976-10.835-0.353-15.391c-3.474-4.754-9.872-7.57-12.879-12.559
					c-4.609-7.646,0.343-17.325-2.84-25.501c-1.99-5.111-7.303-9.135-13.406-10.152c-6.102-1.018-12.754,1.011-16.784,5.118
					c-3.209,3.271-4.688,7.539-5.812,11.723c-0.855,3.184-1.557,6.45-1.229,9.707c0.65,6.458,5.294,12.716,3.507,19.01
					c-1.653,5.822-8.166,9.415-12.47,14.105c-5.134,5.594-7.02,13.931-2.633,19.985c3.414,4.712,10.134,7.659,11.622,13.073
					c1.207,4.395-1.552,9.049-3.814,13.435c1.556,0.385,2.895,1.254,4.094,2.499c-1.149,1.725-3.266,2.865-5.599,3.014
					c-0.264,0.017-0.53,0.017-0.796,0.009c-2.672,10.694,7.294,22.623,19.959,23.433c9.994,0.639,19.696,0.61,22.189-7.817
					c1.675-5.665,1.163-9.979,7.919-12.819c5.395-2.268,10.669-2.149,12.053-8.602C289.212,350.293,286.562,345.284,282.552,341.802
					z"/>
				<path style="fill:#173D36;" d="M271.512,294.833c-3.109-0.351-6.352,0.774-8.576,2.974c-2.224,2.201-3.383,5.432-3.064,8.544
					c3.194,0.693,6.042,0.265,8.473-1.92C270.776,302.246,271.862,298.083,271.512,294.833z"/>
				<path style="fill:#173D36;" d="M223.503,321.611c0.555,2.69,2.379,5.09,4.822,6.346c2.443,1.256,5.456,1.341,7.967,0.227
					c-0.293-2.855-1.427-5.115-3.914-6.548C229.891,320.203,226.12,320.432,223.503,321.611z"/>
				<path style="fill:#357266;" d="M245.344,317.847c0.183-2.61-0.871-5.281-2.789-7.061c-1.918-1.781-4.659-2.635-7.249-2.259
					c-0.466,2.694-0.008,5.059,1.904,7.013C239.122,317.494,242.64,318.254,245.344,317.847z"/>
				<path style="fill:#357266;" d="M246.094,362.753c-2.414-1.01-5.282-0.867-7.583,0.379c-2.301,1.246-3.989,3.569-4.462,6.142
					c2.403,1.305,4.789,1.628,7.253,0.443C243.765,368.533,245.613,365.444,246.094,362.753z"/>
				<path style="fill:#357266;" d="M277.478,350.041c-0.614-2.544-2.427-4.771-4.793-5.888c-2.366-1.118-5.237-1.103-7.592,0.038
					c0.37,2.709,1.522,4.824,3.935,6.109C271.441,351.585,275.025,351.247,277.478,350.041z"/>
				<path style="fill:#25564D;" d="M232.635,291.048c-0.757-2.802-2.732-5.394-5.221-6.854s-5.444-1.757-7.811-0.786
					c0.514,2.953,1.802,5.354,4.349,6.998C226.499,292.051,230.169,292.077,232.635,291.048z"/>
				<path style="fill:#357266;" d="M244.1,282.342c1.072-2.698,1.042-5.956-0.079-8.616c-1.12-2.66-3.308-4.666-5.786-5.306
					c-1.357,2.673-1.761,5.367-0.706,8.209C238.584,279.472,241.509,281.69,244.1,282.342z"/>
				<path style="fill:#19443C;" d="M274.832,282.11c2.901-0.111,5.868-1.456,7.848-3.556c1.979-2.1,2.93-4.913,2.513-7.437
					c-2.993-0.16-5.621,0.56-7.793,2.674C275.227,275.905,274.381,279.476,274.832,282.11z"/>
				<path style="fill:#19443C;" d="M278.759,328.939c2.861,0.49,6.043-0.214,8.413-1.861c2.37-1.647,3.88-4.203,3.993-6.759
					c-2.896-0.774-5.616-0.612-8.177,1.009C280.426,322.948,278.861,326.269,278.759,328.939z"/>
				<path style="fill:#25564D;" d="M281.032,332.83c1.373,2.557,3.884,4.634,6.641,5.49c2.756,0.856,5.7,0.475,7.786-1.007
					c-1.171-2.76-2.971-4.805-5.824-5.828C286.781,330.461,283.2,331.268,281.032,332.83z"/>
				<path style="fill:#25564D;" d="M211.846,342.689c1.657,2.383,4.39,4.158,7.226,4.693c2.836,0.535,5.717-0.181,7.619-1.892
					c-1.479-2.608-3.501-4.433-6.453-5.123C217.286,339.677,213.821,340.889,211.846,342.689z"/>
				<path style="fill:none;stroke:#14332D;stroke-width:1.4;stroke-linecap:round;stroke-linejoin:round;stroke-miterlimit:10;" d="
					M263.438,283.429c1.799-1.575,3.002-3.975,3.179-6.346c0.178-2.371-0.672-4.664-2.248-6.064
					c-1.999,1.45-3.308,3.273-3.602,5.753C260.473,279.252,261.783,281.977,263.438,283.429z"/>
				<path style="fill:none;stroke:#14332D;stroke-width:1.4;stroke-linecap:round;stroke-linejoin:round;stroke-miterlimit:10;" d="
					M263.581,326.062c2.185-0.971,4.046-2.906,4.919-5.117c0.873-2.211,0.742-4.654-0.348-6.458
					c-2.339,0.792-4.13,2.144-5.147,4.425C261.988,321.194,262.431,324.185,263.581,326.062z"/>
				<path style="fill:none;stroke:#14332D;stroke-width:1.4;stroke-linecap:round;stroke-linejoin:round;stroke-miterlimit:10;" d="
					M243.712,347.009c0.29-2.374-0.414-4.964-1.862-6.849c-1.448-1.885-3.611-3.027-5.719-3.02
					c-0.523,2.414-0.282,4.645,1.152,6.689C238.718,345.874,241.511,347.031,243.712,347.009z"/>
				<path style="fill:#25564D;" d="M276.417,284.529c1.138,2.057,3.193,3.713,5.434,4.379c2.241,0.666,4.621,0.327,6.295-0.895
					c-0.976-2.223-2.454-3.861-4.776-4.661C281.049,282.552,278.158,283.242,276.417,284.529z"/>
				<path style="fill:#25564D;" d="M216.58,301.219c2.106,1.046,4.738,1.24,6.959,0.514c2.222-0.726,3.988-2.358,4.671-4.314
					c-2.067-1.274-4.214-1.781-6.578-1.12S217.281,299.171,216.58,301.219z"/>
			</g>
			<g>
				<path style="fill:#924F3F;" d="M250,263c-0.088-3.74,4.898-2.879,4.897-0.648c0,36.964-0.029,93.927-0.044,130.891
					c-0.003,6.239,1.147,17.191,0.925,24.604c-0.032,1.06-3.55,3.99-3.964,0c-0.466-4.498-0.372-10.872-0.407-12.379
					c-0.433-18.467-0.865-36.934-1.298-55.4C249.614,328.962,250.494,284.105,250,263z"/>
				
					<path style="opacity:0.67;fill:none;stroke:#5E2421;stroke-width:1.6815;stroke-linecap:round;stroke-linejoin:round;stroke-miterlimit:10;" d="
					M253.046,406.745c-0.324-5.75-0.648-11.499-0.972-17.249"/>
				
					<path style="opacity:0.67;fill:none;stroke:#5E2421;stroke-width:1.6815;stroke-linecap:round;stroke-linejoin:round;stroke-miterlimit:10;" d="
					M252.537,369.144c0.178-2.652,0.355-5.305,0.533-7.957"/>
				
					<path style="opacity:0.67;fill:none;stroke:#5E2421;stroke-width:1.6815;stroke-linecap:round;stroke-linejoin:round;stroke-miterlimit:10;" d="
					M252.192,351.445c-0.301-8.258-0.601-16.516-0.902-24.773"/>
				
					<path style="opacity:0.67;fill:none;stroke:#5E2421;stroke-width:1.6815;stroke-linecap:round;stroke-linejoin:round;stroke-miterlimit:10;" d="
					M250.097,261.405c1.099,0.871,2.767,1.727,3.749,0.726"/>
				
					<path style="opacity:0.67;fill:none;stroke:#5E2421;stroke-width:1.6815;stroke-linecap:round;stroke-linejoin:round;stroke-miterlimit:10;" d="
					M252.103,268.389c0,4.203,0,8.405,0,12.608"/>
				
					<path style="opacity:0.67;fill:none;stroke:#5E2421;stroke-width:1.6815;stroke-linecap:round;stroke-linejoin:round;stroke-miterlimit:10;" d="
					M253.43,288.297c0,0.553,0,1.106,0,1.659"/>
			</g>
		</g>
		<g>
			<path style="fill:#7F3C2F;" d="M282.609,436.423c-0.096-3.796-2.081-7.497-5.191-9.677c-3.109-2.179-6.914-3.212-10.514-2.007
				c-0.21-5.226-4.538-9.985-9.721-10.688c-6.595-0.895-8.129,4.258-12.851,6.637c-4.983,2.511-9.707,0.648-13.692,6.203
				c-4.903,0.579-9.857,6.235-8.707,11.037"/>
			
				<path style="fill:none;stroke:#5E2421;stroke-width:1.6815;stroke-linecap:round;stroke-linejoin:round;stroke-miterlimit:10;" d="
				M246.476,425.384c2.156-0.534,4.607,0.542,5.672,2.491c1.367-1.552,3.959-1.822,5.616-0.584"/>
			
				<path style="fill:none;stroke:#5E2421;stroke-width:1.6815;stroke-linecap:round;stroke-linejoin:round;stroke-miterlimit:10;" d="
				M234.836,431.284c1.56-1.226,4.227-0.488,4.935,1.366"/>
			<g>
				<g>
					<path style="fill:#5E2421;" d="M258.357,420.956c1.448,0,1.45-2.25,0-2.25C256.909,418.706,256.907,420.956,258.357,420.956
						L258.357,420.956z"/>
				</g>
			</g>
			<g>
				<g>
					<path style="fill:#5E2421;" d="M269.859,432.016c1.448,0,1.45-2.25,0-2.25C268.411,429.766,268.409,432.016,269.859,432.016
						L269.859,432.016z"/>
				</g>
			</g>
			<g>
				<g>
					<path style="fill:#5E2421;" d="M264.993,433.785c1.448,0,1.45-2.25,0-2.25C263.545,431.535,263.542,433.785,264.993,433.785
						L264.993,433.785z"/>
				</g>
			</g>
		</g>
		<g>
			<path style="fill:#7F3C2F;" d="M256.713,464.752c-0.184-3.215-0.423-2.378,0.794-5.359c1.669-4.087,6.428-6.651,10.759-5.797
				c1.226,0.242,2.467,0.724,3.689,0.459c2.488-0.54,3.289-3.603,4.84-5.622c2.144-2.792,6.225-3.654,9.568-2.551
				c3.343,1.103,5.949,3.872,7.514,7.025c1.195-2.337,4.685-2.569,6.889-1.143c2.204,1.426,3.425,3.925,4.541,6.301
				c0.655,1.395,1.31,2.789,1.965,4.183"/>
			
				<path style="fill:none;stroke:#5E2421;stroke-width:1.6815;stroke-linecap:round;stroke-linejoin:round;stroke-miterlimit:10;" d="
				M272.386,460.83c1.414-1.842,4.035-2.652,6.242-1.929c-1.109-2.124,0.574-5.129,2.964-5.293"/>
		</g>
	</g>
	<g>
		<path style="fill:#DDA43E;" d="M258.281,59.146c-3.22,36.233,52.74,21.666,33.578-8.608c-4.059-6.413-12.484-9.666-19.827-7.749
			C264.688,44.706,258.953,51.585,258.281,59.146z"/>
		<g>
			<path style="fill:#FFFFFF;" d="M244.907,127.144c-1.011-4.892-4.998-9.041-9.845-10.247c-2.765-0.688-5.682-0.477-8.475-1.041
				c-9.329-1.883-10.745-11.96-19.419-15.17c-5.556-2.057-11.969-1.67-17.238,1.039c-2.064,1.061-4.068,2.493-6.385,2.615
				c-4.064,0.215-7.091-3.527-10.702-5.406c-6.057-3.152-14.502-0.105-17.151,6.188c-4.843,1.063-3.471,6.098-7.985,8.151
				c-1.689,0.768-3.641,0.466-5.496,0.523c-5.985,0.184-11.566,4.742-12.942,10.57c-0.216,0.916,0.277,2.355,1.118,1.933"/>
			<path style="fill:#FFFFFF;" d="M270.284,170.414c1.796-3.75,3.697-7.633,6.951-10.22c3.254-2.588,8.283-3.451,11.503-0.821
				c1.219,0.996,2.105,2.411,3.495,3.148c2.72,1.441,6.156-0.381,7.931-2.896c1.775-2.514,2.514-5.611,4.018-8.296
				c1.654-2.954,4.25-5.372,7.314-6.812c1.499-0.704,3.196-1.182,4.806-0.796c1.249,0.299,2.326,1.093,3.241,1.994
				c2.721,2.678,4.241,6.334,6.614,9.325c2.373,2.992,6.32,5.401,9.898,4.068c1.793-0.668,3.149-2.157,4.827-3.075
				c3.972-2.171,9.19-0.679,12.432,2.48c3.242,3.159,4.862,7.616,5.921,12.017"/>
		</g>
	</g>
	<g>
		<ellipse style="opacity:0.53;fill:#31996A;" cx="383" cy="431.5" rx="65" ry="13.5"/>
		<g>
			<g>
				<path style="fill:#366B61;" d="M472.494,416.932c-6.614-6.352-12.512-11.802-19.495-17.418c-2.635-2.12-6.057-3.007-9.393-2.452
					c-5.459,0.908-11.202,0.286-16.606,1.938c0.542,3.558,0,15-0.241,14.574c11.705-1.841,23.331,1.805,34.241,6.426
					c3.58,1.516,7.029,1.106,10.642,0.201C473.108,419.833,473.585,417.979,472.494,416.932z"/>
				
					<path style="fill:none;stroke:#194C46;stroke-width:1.4031;stroke-linecap:round;stroke-linejoin:round;stroke-miterlimit:10;" d="
					M446.22,397.041c7.969,7.523,15.983,14.998,24.041,22.426"/>
				
					<path style="fill:none;stroke:#194C46;stroke-width:1.4031;stroke-linecap:round;stroke-linejoin:round;stroke-miterlimit:10;" d="
					M462.279,420.609c0.204-2.055,1.261-4.011,2.867-5.308"/>
			</g>
			<path style="fill:#924F3F;" d="M373.668,272.926c1.116,3.692,2.828,7.379,5.857,9.768c3.029,2.388,7.631,3.103,10.736,0.814
				c2.13-1.571,3.213-4.254,3.439-6.891c0.227-2.637-0.297-5.274-0.821-7.869c-1.094-5.413-2.757-11.565-7.744-13.935
				c-2.746-1.305-6.162-1.081-8.715,0.573C370.447,259.256,371.943,267.22,373.668,272.926z"/>
			<path style="fill:#19443C;" d="M424.972,378.74c2.457-6.688,4.224-18.212-2.177-23.287c-6.121-4.853-16.611-2.904-23.698-4.205
				c-1.114-0.204-2.271-0.482-3.359-0.169c-0.911,0.262-1.655,0.906-2.366,1.533c-15.252,13.43-32.885,21.707-50.717,31.579
				c-7.254,4.016-14.804,8.302-19.296,15.272c-4.492,6.97-4.685,17.465,1.839,22.583c36.752,4.089,79.792,5.368,116.712,3.299
				c-0.578-10.831-1.503-21.832-2.081-32.664c-7.298,0.114-21.14-0.463-28.438-0.349
				C417.538,390.878,422.793,384.671,424.972,378.74z"/>
			<g>
				<path style="fill:#23877D;" d="M472.601,434.935c-6.716-7.026-11.172-13.958-18.356-20.277c-1.795-1.579-4.272-2.183-6.583-1.57
					c-6.498,1.725-14.767,2.11-20.662,3.912c0.542,3.558,0,15-0.241,14.574c11.705-1.841,24.331,1.805,35.241,6.426
					c3.344,1.416,6.53,2.346,9.521,1.381C473.413,438.771,473.974,436.371,472.601,434.935z"/>
				
					<path style="fill:none;stroke:#194C46;stroke-width:1.4031;stroke-linecap:round;stroke-linejoin:round;stroke-miterlimit:10;" d="
					M448.668,413.295c7.609,8.312,15.219,16.624,22.828,24.935"/>
				
					<path style="fill:none;stroke:#194C46;stroke-width:1.4031;stroke-linecap:round;stroke-linejoin:round;stroke-miterlimit:10;" d="
					M462.362,438.264c1.111-1.382,2.223-2.764,3.334-4.146"/>
				
					<path style="fill:none;stroke:#194C46;stroke-width:1.4031;stroke-linecap:round;stroke-linejoin:round;stroke-miterlimit:10;" d="
					M457.825,436.518c0.443-0.995,0.886-1.99,1.329-2.985"/>
				
					<path style="fill:none;stroke:#194C46;stroke-width:1.4031;stroke-linecap:round;stroke-linejoin:round;stroke-miterlimit:10;" d="
					M453.528,434.866c0.434-1.109,0.867-2.219,1.301-3.328"/>
				
					<path style="fill:none;stroke:#194C46;stroke-width:1.4031;stroke-linecap:round;stroke-linejoin:round;stroke-miterlimit:10;" d="
					M447.841,433.58c-2.761-2.554-4.443-6.24-4.562-10c0.26-0.361,0.823-1.008,1.164-0.724c0.342,0.284,0.501,0.727,0.645,1.148
					C446.173,427.17,446.757,430.416,447.841,433.58z"/>
				
					<path style="fill:none;stroke:#194C46;stroke-width:1.4031;stroke-linecap:round;stroke-linejoin:round;stroke-miterlimit:10;" d="
					M446.861,432.46c-2.919,0.633-5.432,2.88-6.387,5.71c1.592,0.35,3.267-0.395,4.44-1.527c1.173-1.132,1.939-2.61,2.685-4.06"/>
				
					<path style="fill:none;stroke:#194C46;stroke-width:1.4031;stroke-linecap:round;stroke-linejoin:round;stroke-miterlimit:10;" d="
					M450.495,437.548c-0.99-1.331-1.98-2.662-2.97-3.993c1.659-1.217,2.996-2.804,4.655-4.021"/>
			</g>
			<g>
				<path style="fill:#212323;" d="M352.493,232.095c-3.743-2.618-4.712-8.199-2.673-12.286c2.039-4.087,6.538-6.606,11.088-7.001
					c4.551-0.395,9.107,1.105,13.041,3.426"/>
				<path style="fill:#924F3F;" d="M398.325,218.529c-27.436-28.865-71.556,24.365-36.184,47.148
					c5.917,3.811,16.207,3.977,22.919,2.157C406.492,262.025,414.122,235.149,398.325,218.529z"/>
				<path style="fill:#212323;" d="M401.279,215.277c-1.999-2.165-4.331-4.09-6.985-5.708c-13.307-8.113-33.517-6.539-37.221,11.338
					c-1.868,9.02,4.065,16.182,13.058,16.213c3.954,0.014,7.822-1.062,11.63-2.129c2.122-0.595,3.859-1.02,5.921-0.243
					c3.368,1.269,4.582,5.704,3.511,9.14c-1.071,3.436-3.765,6.081-6.363,8.573c1.465,4.87,3.792,9.48,6.839,13.552
					c15.651-7.551,17.69-18.43,18.221-23.629C410.915,232.355,407.939,222.488,401.279,215.277z"/>
				
					<path style="fill:none;stroke:#5E2421;stroke-width:1.5846;stroke-linecap:round;stroke-linejoin:round;stroke-miterlimit:10;" d="
					M381.119,240.236c-0.477-1.716,1.967-3.101,3.551-2.285c1.583,0.816,2.173,2.811,2.149,4.592"/>
				<path style="fill:#212323;" d="M384.954,189.752c17.791-11.927,34.532,25.115,10.655,27.034
					c-13.467,1.083-25.723-13.743-15.346-25.089c8.81-9.632,23.944-3.292,26.475,8.541c0.417,1.953-3.379,17.154-6.945,14.382
					c-1.15-0.895-1.86-2.331-1.876-3.786c0.06,5.46-13.777-0.526-15.274-2.611C378.814,202.891,379.329,193.523,384.954,189.752z"/>
				<path style="fill:none;stroke:#212323;stroke-width:2.1026;stroke-miterlimit:10;" d="M380.3,212.132
					c-2.936-2.807-5.548-6.166-6.467-10.122s0.207-8.583,3.521-10.932c1.7-1.205,3.809-1.722,5.889-1.831
					c5.4-0.284,10.873,2.183,14.237,6.416"/>
				<path style="fill:none;stroke:#212323;stroke-width:2.1026;stroke-miterlimit:10;" d="M396.062,189.24
					c4.694,1.786,9.029,4.857,11.592,9.175c2.564,4.318,3.127,9.962,0.763,14.393s-7.885,7.163-12.683,5.682"/>
				<path style="fill:none;stroke:#212323;stroke-width:2.1026;stroke-miterlimit:10;" d="M368.059,234.659
					c-4.424,1.485-9.763-0.57-12.05-4.637c-2.287-4.068-1.268-9.697,2.299-12.705"/>
				<path style="fill:none;stroke:#212323;stroke-width:2.1026;stroke-miterlimit:10;" d="M351.12,229.657
					c-3.769-0.723-5.327-5.633-4.165-9.291c1.029-3.24,3.618-5.945,6.81-7.115c3.192-1.169,6.916-0.777,9.795,1.032"/>
				<g>
					<path style="fill:#924F3F;" d="M351.605,240c-2.482,1.411-8.553,4.275-7.479,6.415c0.828,1.649,5.699,1.856,8.3,1.011"/>
					<g>
						<g>
							<path style="fill:#3F1514;" d="M354.554,241.091c1.131,0,1.133-1.757,0-1.757
								C353.423,239.334,353.422,241.091,354.554,241.091L354.554,241.091z"/>
						</g>
					</g>
					<path style="opacity:0.64;fill:#5E2421;" d="M360.319,242.221c-0.446,0.686-0.664,1.537-0.528,2.502
						c0.265,1.879,1.98,3.415,3.87,3.584c4.583,0.41,6.021-5.11,2.359-7.29C364.01,239.822,361.442,240.497,360.319,242.221z"/>
					
						<path style="fill:none;stroke:#5E2421;stroke-width:1.5846;stroke-linecap:round;stroke-linejoin:round;stroke-miterlimit:10;" d="
						M351.269,254.305c2.997,0.753,6.38-0.331,8.381-2.686"/>
				</g>
				<path style="fill:#212323;" d="M371.567,235.431c0.62,2.454,1.476,4.932,3.159,6.822c1.683,1.89,4.362,3.076,6.794,2.376
					c-1.602-3.96-3.099-8.643-4.11-12.792"/>
			</g>
			<g>
				<path style="fill:#25564D;" d="M424.972,389.74c2.457-6.688,4.224-18.212-2.177-23.287c-6.121-4.853-16.611-2.904-23.698-4.205
					c-1.114-0.204-2.271-0.482-3.359-0.169c-0.911,0.262-1.655,0.906-2.366,1.533c-15.252,13.43-32.885,21.707-50.717,31.579
					c-7.254,4.016-14.804,8.302-19.296,15.272c-0.957,1.485-1.719,3.13-2.263,4.85c-2.758,8.725,3.465,17.721,12.571,18.626
					c33.969,3.374,68.157,4.317,102.243,2.407c-0.578-10.831-1.503-21.832-2.081-32.664c-7.298,0.114-15.14-0.463-22.438-0.349
					C417.538,401.878,422.793,395.671,424.972,389.74z"/>
				<path style="fill:none;stroke:#14332D;stroke-width:1.4;stroke-linecap:round;stroke-linejoin:round;stroke-miterlimit:10;" d="
					M410.787,372.487c-0.934,7.009-7.06,12.026-12.896,16.018c-13.607,9.306-28.199,17.171-43.454,23.42"/>
				<path style="fill:none;stroke:#14332D;stroke-width:1.4;stroke-linecap:round;stroke-linejoin:round;stroke-miterlimit:10;" d="
					M353.433,412.063c25.355,4.582,51.336,5.683,76.988,3.263"/>
				<path style="fill:none;stroke:#14332D;stroke-width:1.4;stroke-linecap:round;stroke-linejoin:round;stroke-miterlimit:10;" d="
					M393.296,407.537c7.55-1.165,15.049-2.662,22.468-4.486"/>
				<path style="fill:none;stroke:#14332D;stroke-width:1.4;stroke-linecap:round;stroke-linejoin:round;stroke-miterlimit:10;" d="
					M392.802,404.121c2.209,0.745,4.419,1.49,6.628,2.235"/>
				<path style="fill:none;stroke:#14332D;stroke-width:1.4;stroke-linecap:round;stroke-linejoin:round;stroke-miterlimit:10;" d="
					M352.103,410.753c1.327,0.442,2.654,0.885,3.982,1.327"/>
				<path style="fill:none;stroke:#14332D;stroke-width:1.4;stroke-linecap:round;stroke-linejoin:round;stroke-miterlimit:10;" d="
					M425.849,436.388c-0.818-10.734-1.063-21.511-0.733-32.271"/>
			</g>
			<g>
				<path style="fill:#EFEFEB;" d="M428.64,371.508c-11.814,0.54-23.646,0.686-35.47,0.437c-5.683-0.12-15.136-2.305-20.171-4.944
					c-3-14-3.845-15.418-9-29c-2.857-7.527-4.651-17.314-4.314-25.358C360.1,302.732,369.34,286.145,375,278c8-2,11.477-4.232,19-4
					c3.868,2.896,13.999,13.601,16,18c10.551,23.195,10.382,34.392,17,59C427.988,354.675,431.133,368.632,428.64,371.508z"/>
				<path style="fill:none;stroke:#B7B692;stroke-width:1.4;stroke-linecap:round;stroke-linejoin:round;stroke-miterlimit:10;" d="
					M372.378,282.499c7.797-1.211,15.518-2.912,23.101-5.091"/>
				<g>
					<path style="fill:#924F3F;" d="M336.13,364.171c11.545-4.407,26.614-11.838,40.128-20.74
						c12.756-8.403,19.128-27.116,24.843-36.834c-5.388-4.984-7.79-9.344-13.898-13.414c-3.165,6.501-22.392,32.88-22.392,32.88
						s-6.719,4.471-8.836,5.81c-8.228,5.204-19.904,13.114-26.858,17.194C331.834,353.686,336.13,364.171,336.13,364.171z"/>
					<g>
						<path style="fill:#C68928;" d="M340.869,363.055c-3.18,2.278-10.859,6.41-14.443,7.976c-2.286,0.999-4.876,1.85-7.229,1.023
							c-1.56-0.548-2.779-1.761-3.941-2.936c-1.799-1.82-3.721-3.922-3.717-6.481c0.003-2.059,1.282-3.894,2.698-5.387
							c4.09-4.311,10.964-8.212,16.893-10.63C334.664,351.914,338.167,358.085,340.869,363.055z"/>
						<path style="fill:#C68928;" d="M316.122,352.329c1.648,0.98,8.868,4.229,9.893,0.679c0.963-3.334-6.232-4.864-8.253-4.651
							c-0.788,0.083-1.599,0.286-2.197,0.807c-0.598,0.521-0.915,1.426-0.566,2.137
							C315.227,351.763,315.679,352.066,316.122,352.329z"/>
						<path style="fill:#C68928;" d="M304.891,362.715c-0.62,0.418-1.251,0.863-1.65,1.495c-0.399,0.632-0.513,1.504-0.079,2.113
							c0.368,0.515,1.033,0.73,1.663,0.788c1.807,0.168,3.544-0.673,5.124-1.568c1.725-0.977,14.103-8.336,9.244-10.343
							C316.429,354.058,307.119,361.212,304.891,362.715z"/>
						<path style="fill:#C68928;" d="M304.46,371.9c-0.18,0.839,0.555,1.658,1.387,1.87c0.831,0.212,1.706-0.025,2.52-0.299
							c2.521-0.849,14.652-6.419,9.413-9.259C313.962,362.142,305.167,368.602,304.46,371.9z"/>
						<path style="fill:#C68928;" d="M323.664,368.684c0.902-4.558-9.97,2.092-11.055,3.482c-1.595,2.043-2.246,5.555,1.639,3.986
							c3.279-1.325,6.243-3.42,8.585-6.069C323.197,369.671,323.557,369.222,323.664,368.684z"/>
						
							<path style="fill:none;stroke:#8C5D19;stroke-width:1.4;stroke-linecap:round;stroke-linejoin:round;stroke-miterlimit:10;" d="
							M328.258,347.486c3.474,5.945,6.948,11.889,10.423,17.833"/>
						
							<path style="fill:none;stroke:#8C5D19;stroke-width:1.4;stroke-linecap:round;stroke-linejoin:round;stroke-miterlimit:10;" d="
							M308.351,366.323c3.733-2.085,7.467-4.17,11.2-6.256"/>
						
							<path style="fill:none;stroke:#8C5D19;stroke-width:1.4;stroke-linecap:round;stroke-linejoin:round;stroke-miterlimit:10;" d="
							M312.663,370.96c2.683-2.174,5.69-3.949,8.891-5.246"/>
						
							<path style="fill:none;stroke:#8C5D19;stroke-width:1.4;stroke-linecap:round;stroke-linejoin:round;stroke-miterlimit:10;" d="
							M330.442,350.14c0.617-0.26,1.191-0.623,1.692-1.068"/>
						
							<path style="fill:none;stroke:#8C5D19;stroke-width:1.4;stroke-linecap:round;stroke-linejoin:round;stroke-miterlimit:10;" d="
							M332.042,352.835c0.549-0.3,1.098-0.599,1.648-0.899"/>
						
							<path style="fill:none;stroke:#8C5D19;stroke-width:1.4;stroke-linecap:round;stroke-linejoin:round;stroke-miterlimit:10;" d="
							M333.297,355.637c0.678-0.477,1.356-0.954,2.035-1.431"/>
						
							<path style="fill:none;stroke:#8C5D19;stroke-width:1.4;stroke-linecap:round;stroke-linejoin:round;stroke-miterlimit:10;" d="
							M334.967,358.217c0.782-0.271,1.501-0.721,2.086-1.306"/>
						
							<path style="fill:none;stroke:#8C5D19;stroke-width:1.4;stroke-linecap:round;stroke-linejoin:round;stroke-miterlimit:10;" d="
							M336.596,360.996c0.765-0.204,1.496-0.537,2.153-0.98"/>
					</g>
				</g>
				<g>
					<path style="fill:#EFEFEB;" d="M392.729,333.159c5.331-8.466,9.059-17.938,10.929-27.766c1.033-5.43,1.318-11.624-2.21-15.879
						c-15.29-18.446-30.427,19.615-35.635,27.98C365.814,317.494,392.985,333.233,392.729,333.159z"/>
					
						<path style="fill:none;stroke:#B7B692;stroke-width:1.4;stroke-linecap:round;stroke-linejoin:round;stroke-miterlimit:10;" d="
						M366.906,316.351c1.625-5.759,4.735-10.974,7.913-16.044c4.284-6.835,9.398-14.043,17.158-16.249"/>
					
						<path style="fill:none;stroke:#B7B692;stroke-width:1.4;stroke-linecap:round;stroke-linejoin:round;stroke-miterlimit:10;" d="
						M369.84,310.559c5.656,2.915,11.166,6.667,16.59,9.996c2.128,1.306,4.274,2.653,6.427,3.889
						c0.768,0.441,4.503,2.227,3.085,1.598"/>
					
						<path style="fill:none;stroke:#B7B692;stroke-width:1.4;stroke-linecap:round;stroke-linejoin:round;stroke-miterlimit:10;" d="
						M394.293,331.416c3.505-6.578,6.844-13.245,10.012-19.992"/>
					
						<path style="fill:none;stroke:#B7B692;stroke-width:1.4;stroke-linecap:round;stroke-linejoin:round;stroke-miterlimit:10;" d="
						M401.177,319.31c1.928-1.461,3.855-2.922,5.782-4.383"/>
				</g>
			</g>
		</g>
	</g>
	<g>
		<ellipse style="opacity:0.53;fill:#31996A;" cx="109" cy="438" rx="65" ry="7"/>
		<g>
			<g>
				<path style="fill:#AE6E5A;" d="M78.567,420.409c0.174-7.225,0.653-14.543,0.827-21.768c-6.479-0.677-12.768-0.497-19.275-0.784
					c0.36,7.38,0.886,14.751,1.576,22.107C67.581,420.4,72.668,420.623,78.567,420.409z"/>
				<path style="fill:#EFEFEB;" d="M58.271,412.987c0.237,4.235-0.229,11.042-0.322,16.487c-0.047,2.708,1.912,5.044,4.589,5.454
					c4.475,0.685,9.435,0.892,13.533,0.926c8.4,0.07,16.801,0.14,25.201,0.21c0.363-4.776-3.598-10.126-8.244-11.293
					C82,422,82.042,413.354,81.562,413.058C80.967,412.691,58.355,412.855,58.271,412.987z"/>
				<path style="fill:none;stroke:#14332D;stroke-width:1.4;stroke-linecap:round;stroke-linejoin:round;stroke-miterlimit:10;" d="
					M59.03,431.557c13.561,0.707,27.133,1.215,40.709,1.525"/>
				<path style="fill:none;stroke:#14332D;stroke-width:1.4;stroke-linecap:round;stroke-linejoin:round;stroke-miterlimit:10;" d="
					M92.076,432.116c-0.41-2.386,0.378-4.947,2.058-6.689"/>
				<path style="fill:none;stroke:#14332D;stroke-width:1.4;stroke-linecap:round;stroke-linejoin:round;stroke-miterlimit:10;" d="
					M88.671,425.49c0.652-0.531,1.304-1.061,1.955-1.592"/>
				<path style="fill:none;stroke:#14332D;stroke-width:1.4;stroke-linecap:round;stroke-linejoin:round;stroke-miterlimit:10;" d="
					M84.036,423.293c0.808-0.522,1.615-1.043,2.423-1.565"/>
				<path style="fill:none;stroke:#14332D;stroke-width:1.4;stroke-linecap:round;stroke-linejoin:round;stroke-miterlimit:10;" d="
					M83.798,418.466c-3.787,0.24-7.606-2.073-9.149-5.539c-0.399-0.897,0.297-1.284,1.273-1.386c0.976-0.102,1.863,0.53,2.623,1.15
					C80.422,414.22,82.879,416.227,83.798,418.466z"/>
				<path style="fill:none;stroke:#14332D;stroke-width:1.4;stroke-linecap:round;stroke-linejoin:round;stroke-miterlimit:10;" d="
					M83.123,418.641c-0.381-1.963-0.107-4.047,0.77-5.845c0.521-1.07,1.705-2.162,2.754-1.6
					C86.076,414.21,85.396,416.582,83.123,418.641z"/>
				<path style="fill:none;stroke:#14332D;stroke-width:1.4;stroke-linecap:round;stroke-linejoin:round;stroke-miterlimit:10;" d="
					M80.641,421.63c1.17-0.798,2.033-2.034,2.38-3.406c1.808,0.103,3.624,0.079,5.429-0.07"/>
			</g>
			<g>
				<path style="fill:#AE6E5A;" d="M138.567,420.409C139,420,134,395,134,395c-6.479-0.677-12.374,0.143-18.881-0.143
					C115,395,122,420,121.695,419.964C127.581,420.4,132.668,420.623,138.567,420.409z"/>
				<path style="fill:#EFEFEB;" d="M118.271,412.987c0.255,4.549,1.932,11.755,3.632,17.509c0.669,2.266,2.578,3.926,4.909,4.316
					c4.659,0.778,9.938,1.006,14.26,1.042c8.4,0.07,12.801,0.14,21.201,0.21c0.364-4.776-3.622-10.035-8.244-11.293
					c-5.543-1.509-12.226-2.949-13.469-9.483c-0.557-2.931-1.215-2.432-4.119-2.49C134.948,412.767,118.355,412.855,118.271,412.987
					z"/>
				<path style="fill:none;stroke:#14332D;stroke-width:1.4;stroke-linecap:round;stroke-linejoin:round;stroke-miterlimit:10;" d="
					M122.308,431.498c12.84,0.328,25.667,1.182,38.437,2.558"/>
				<path style="fill:none;stroke:#14332D;stroke-width:1.4;stroke-linecap:round;stroke-linejoin:round;stroke-miterlimit:10;" d="
					M154.62,432.807c0.016-2.398,0.16-5.095,1.939-6.703"/>
				<path style="fill:none;stroke:#14332D;stroke-width:1.4;stroke-linecap:round;stroke-linejoin:round;stroke-miterlimit:10;" d="
					M150.69,427.083c0.388-0.765,0.776-1.53,1.164-2.295"/>
				<path style="fill:none;stroke:#14332D;stroke-width:1.4;stroke-linecap:round;stroke-linejoin:round;stroke-miterlimit:10;" d="
					M145.931,425.473c0.457-0.728,0.914-1.456,1.37-2.185"/>
				<path style="fill:none;stroke:#14332D;stroke-width:1.4;stroke-linecap:round;stroke-linejoin:round;stroke-miterlimit:10;" d="
					M135.414,418.246c-0.338-0.353-0.646-0.767-0.721-1.25c-0.075-0.483,0.153-1.041,0.614-1.204
					c0.401-0.142,0.838,0.038,1.221,0.224c1.13,0.55,6.549,3.136,5.366,4.556C140.681,422.027,136.289,419.162,135.414,418.246z"/>
				<path style="fill:none;stroke:#14332D;stroke-width:1.4;stroke-linecap:round;stroke-linejoin:round;stroke-miterlimit:10;" d="
					M141.74,420.621c-0.194-1.679-0.387-3.388-0.083-5.051c0.305-1.663,1.186-3.303,2.668-4.116c0.675-0.37,1.623-0.506,2.133,0.071
					c1.12,1.266,0.084,3.571-0.857,4.975C144.66,417.903,143.098,419.615,141.74,420.621z"/>
				<path style="fill:none;stroke:#14332D;stroke-width:1.4;stroke-linecap:round;stroke-linejoin:round;stroke-miterlimit:10;" d="
					M141.319,425.052c0.841-1.755,1.162-3.755,0.913-5.684c1.862,0.541,3.88,0.534,5.738-0.022"/>
			</g>
			<g>
				<path style="fill:#965948;" d="M162.98,195.587c1.007,0.626,2.02,1.324,2.638,2.336c0.618,1.012,0.737,2.42-0.02,3.332
					c-3.281,3.951-11.055-3.976-12.164-6.714c-0.328-0.81-0.557-1.756-0.16-2.536C154.425,189.754,161.644,194.756,162.98,195.587z"
					/>
				<path style="fill:#965948;" d="M168.153,184.319c1.168,0.203,2.369,0.47,3.321,1.177s1.59,1.967,1.23,3.096
					c-1.561,4.892-11.74,0.456-13.794-1.667c-0.608-0.628-1.174-1.419-1.098-2.291C158.035,182.117,166.602,184.049,168.153,184.319
					z"/>
			</g>
			<g>
				<path style="fill:#19443C;" d="M141,403c-11.697,5.787-33.851,2.794-34,3c-13-57-23.136-117.889-30.335-175.649
					c9.424-1.716,17.455-3.472,26.879-5.188C119,282,130,350,141,403z"/>
				<path style="fill:none;stroke:#14332D;stroke-width:1.4;stroke-linecap:round;stroke-linejoin:round;stroke-miterlimit:10;" d="
					M94.345,321.687c5.173,28.251,10.837,56.412,16.989,84.467"/>
				<path style="fill:none;stroke:#14332D;stroke-width:1.4;stroke-linecap:round;stroke-linejoin:round;stroke-miterlimit:10;" d="
					M107.876,395.686c10.09-1.126,20.106-2.919,29.959-5.364"/>
			</g>
			<g>
				<path style="fill:#25564D;" d="M96,229c-1.221,57.947-5,116-11.08,178.933C77,408,64,406,53,405
					c-1.465-58.438-6.875-119.27-1.509-177.479C62.079,229.448,85.411,227.073,96,229z"/>
				<path style="fill:none;stroke:#14332D;stroke-width:1.4;stroke-linecap:round;stroke-linejoin:round;stroke-miterlimit:10;" d="
					M58.201,404.039c1-49.139,3.345-104.479,6.299-153.539"/>
				<path style="fill:none;stroke:#14332D;stroke-width:1.4;stroke-linecap:round;stroke-linejoin:round;stroke-miterlimit:10;" d="
					M52.882,394.261c11.056,0.937,22.104,1.977,33.141,3.118"/>
			</g>
			<g>
				<path style="fill:#AE6E5A;" d="M66.26,116.296c1.768-8.686,3.826-17.313,6.168-25.863c6.272,2.206,12.279,4.127,18.551,6.333
					c0.397,0.14,0.823,0.301,1.053,0.655c0.271,0.417,0.183,0.962,0.085,1.45c-1.621,8.055-3.242,16.11-4.863,24.164
					C80.257,120.83,73.257,118.501,66.26,116.296z"/>
				<path style="fill:#AE6E5A;" d="M60.855,82.38c3.235,13.386,17.165,22.965,30.916,22.23c6.002-0.321,12.038-2.461,16.337-6.663
					c2.549-2.492,4.413-5.616,5.799-8.9c4.772-11.305,3.481-25.528-4.973-34.422C89.736,34.428,54.638,56.654,60.855,82.38z"/>
				<g>
					<path style="fill:#AE6E5A;" d="M113.161,78.619c2.732,1.553,9.414,4.706,8.232,7.06c-0.912,1.815-6.273,2.043-9.136,1.113"/>
					<g>
						<g>
							<path style="fill:#3F1514;" d="M111.216,78.169c1.245,0,1.247-1.934,0-1.934C109.972,76.235,109.97,78.169,111.216,78.169
								L111.216,78.169z"/>
						</g>
					</g>
					
						<path style="fill:none;stroke:#5E2421;stroke-width:1.7441;stroke-linecap:round;stroke-linejoin:round;stroke-miterlimit:10;" d="
						M104.853,88.303c1.018,2.376,3.283,4.175,5.828,4.629"/>
					<path style="opacity:0.64;fill:#5E2421;" d="M96.099,76.661c-0.491,0.755-0.731,1.692-0.581,2.754
						c0.292,2.068,2.18,3.759,4.26,3.945c5.045,0.451,6.627-5.624,2.596-8.024C100.161,74.02,97.335,74.763,96.099,76.661z"/>
				</g>
				
					<path style="fill:none;stroke:#5E2421;stroke-width:1.7441;stroke-linecap:round;stroke-linejoin:round;stroke-miterlimit:10;" d="
					M76.345,72.611c0.992-1.716,3.249-2.358,5.205-2.035c1.956,0.323,3.688,1.411,5.36,2.475"/>
				<g>
					<path style="fill:#212323;" d="M62.575,46.88c11.158-12.288,37.574-7.885,44.929,5.722c4.451,8.236-4.132,16.447-13.272,16.479
						c-4.019,0.014-7.95-1.079-11.82-2.164c-2.157-0.604-3.922-1.036-6.018-0.246c-3.423,1.29-4.657,5.797-3.569,9.289
						c1.088,3.493,3.827,6.181,6.467,8.713c-1.489,4.95-6.66,10.456-9.962,11.557c-11.007-6.604-14.967-16.515-15.507-21.798
						C52.782,64.238,55.869,54.266,62.575,46.88z"/>
					<path style="fill:#212323;" d="M93.59,41.904c0.763,1.499,2.848,1.503,4.529,1.486c5.979-0.061,11.942,2.432,16.099,6.73
						c1.694,1.751,3.127,3.861,3.567,6.257c0.439,2.396-0.282,5.102-2.218,6.58c-1.865,1.423-4.498,1.475-6.718,0.719
						c-2.221-0.756-4.125-2.208-5.986-3.636c-2.538-1.948-3.3-2.725-4.877-5.509S94.42,44.994,93.59,41.904z"/>
					<path style="fill:#212323;" d="M94.548,65.29c-0.185,2.749-1.038,5.451-2.465,7.809c-0.655,1.082-1.45,2.112-2.505,2.809
						c-1.056,0.697-2.315,0.488-3.521,0.106c-0.308-3.738-1.791-7.37-4.187-10.255c0.602-3.02,2.286-6.105,5.364-5.984
						C90.31,59.897,94.755,62.217,94.548,65.29z"/>
					<path style="fill:none;stroke:#212323;stroke-width:2.1809;stroke-miterlimit:10;" d="M111.256,62.583
						c4.986,0.236,8.333-6.117,6.6-10.798s-6.75-7.399-11.666-8.269c-2.727-0.482-5.53-0.526-8.271-0.128
						c-2.762,0.401-5.311-0.209-8.063,0.26"/>
					<path style="fill:none;stroke:#212323;stroke-width:2.1809;stroke-miterlimit:10;" d="M67.737,45.152
						c4.222-4.181,9.887-7.177,15.829-7.152c5.942,0.025,12.008,3.529,14.053,9.108"/>
				</g>
			</g>
			<g>
				<path style="fill:#DF854A;" d="M42,245c22.477,5.484,53.865,3.81,77,4c-1.66-35.991-6-101-26-136l-29-6
					c0,0-8.159,11.692-10.322,15.507c-7.361,12.982-8.776,28.383-10.032,43.253C41.592,190.06,44.053,220.701,42,245z"/>
				<path style="fill:none;stroke:#AF5928;stroke-width:1.4;stroke-linecap:round;stroke-linejoin:round;stroke-miterlimit:10;" d="
					M42.936,241.235c23.753,3.232,52.228,5.31,76.064,2.765"/>
				<path style="fill:none;stroke:#AF5928;stroke-width:1.4;stroke-linecap:round;stroke-linejoin:round;stroke-miterlimit:10;" d="
					M88.405,212.505c1.355-1.524,2.709-3.048,4.064-4.572"/>
				<path style="fill:none;stroke:#AF5928;stroke-width:1.4;stroke-linecap:round;stroke-linejoin:round;stroke-miterlimit:10;" d="
					M86.486,205.269c1.327-1.991,2.654-3.982,3.982-5.972"/>
				<path style="fill:none;stroke:#AF5928;stroke-width:1.4;stroke-linecap:round;stroke-linejoin:round;stroke-miterlimit:10;" d="
					M63.319,108.881c10.144,3.521,20.554,6.276,31.111,8.236"/>
			</g>
			<g>
				<g>
					<path style="fill:#DDA43E;" d="M213.768,241.025c0,0-14.189,2.58-33.068-6.672c-14.367-7.042-21.483-15.826-21.518-15.879
						c8.405-10.835,17.268-21.315,26.557-31.403c11.321,5.032,22.416,9.796,33.737,14.828
						C216.187,215.751,216.171,226.992,213.768,241.025z"/>
					<path style="fill:#DDA43E;" d="M206.847,231.853c10-5.753,18.808-9.364,28.808-15.118c-1.13-2.366-1.488-5.029-2.618-7.394
						c-9.643,2.585-19.286,5.171-28.928,7.756"/>
					<path style="fill:#DDA43E;" d="M184.233,194.499c-0.94-2.963-3.863-4.848-6.788-5.898c-3.509-1.26-7.553-1.633-10.87,0.07
						c-4.356,2.236-6.402,7.784-5.34,12.564s4.755,8.689,9.124,10.899c0.509-1.618,1.708-2.99,2.705-4.362
						c-1.657-0.476-3.074-1.582-4.216-2.873c-2.311-2.616-3.533-6.784-1.4-9.547c1.574-2.038,4.506-2.613,7.022-2.064
						c2.516,0.549,4.719,2.017,6.847,3.468C181.58,195.832,183.529,195.148,184.233,194.499z"/>
					<path style="fill:#DDA43E;" d="M243.843,220.622c-4.508-1.83-9.168-3.404-13.957-4.263c2.039-5.024,4.078-10.048,6.116-15.073
						C241,207,244,214,243.843,220.622z"/>
					<path style="fill:none;stroke:#AD7823;stroke-width:1.4;stroke-linecap:round;stroke-miterlimit:10;" d="M161.184,215.175
						c14.658,13.356,34.203,21.225,54.026,21.753"/>
					<path style="fill:none;stroke:#AD7823;stroke-width:1.4;stroke-linecap:round;stroke-miterlimit:10;" d="M236.125,201.948
						c0.767,5.101,2.284,10.089,4.489,14.752c0.594,1.256,1.431,2.636,2.804,2.846"/>
					<path style="fill:none;stroke:#AD7823;stroke-width:1.4;stroke-linecap:round;stroke-miterlimit:10;" d="M186.634,187.39
						c7.209,10.344,19.98,16.547,32.567,15.819"/>
				</g>
				<g>
					<path style="fill:#23877D;" d="M247.786,226.948c-1.479,3.064-5.423,11.166-0.111,13.064c1.788,0.639,3.991-0.303,4.764-2.037
						c0.441-0.988,0.442-2.117,0.294-3.189c-0.409-2.97-1.94-5.771-4.219-7.719"/>
					<path style="fill:#23877D;" d="M260.549,229.738c-0.35,2.66-1.292,9.697,2.154,10.575c1.16,0.296,2.295-0.738,2.456-2.236
						c0.091-0.853-0.1-1.766-0.369-2.614c-0.745-2.35-2.122-4.425-3.793-5.719"/>
					<path style="fill:#23877D;" d="M251.049,213.238c-0.349,2.66-1.292,9.697,2.154,10.575c1.16,0.296,2.296-0.738,2.456-2.236
						c0.091-0.853-0.1-1.766-0.369-2.614c-0.745-2.35-2.122-4.425-3.792-5.719"/>
				</g>
			</g>
			<g>
				<path style="fill:#AE6E5A;" d="M152,196c-22.426-8.607-57.188-25.577-68.922-45.612c5.397-4.974,7.807-9.33,13.922-13.388
					c4.246,8.761,27.955,24.537,36.174,29.757c8.218,5.219,19.88,13.15,26.826,17.243C157.276,188.613,152,196,152,196z"/>
				<path style="fill:#AE6E5A;" d="M153,180c5.915,1.648,19.071,5.309,21.894,10.763c1.106,5.237-2.461,11.966-7.872,11.01
					C165.669,201.535,166,200,163,199c-3.595-1.198-10.765-1.414-13.539-3.995"/>
				
					<path style="fill:none;stroke:#752E2D;stroke-width:1.6815;stroke-linecap:round;stroke-linejoin:round;stroke-miterlimit:10;" d="
					M166.286,194.807c2.188,0.606,4.134,2.046,5.352,3.963c0.17,0.268,0.156,0.601,0.341,0.859"/>
				
					<path style="fill:none;stroke:#752E2D;stroke-width:1.6815;stroke-linecap:round;stroke-linejoin:round;stroke-miterlimit:10;" d="
					M169.101,190.68c1.97,0.602,3.69,1.982,4.705,3.774c0.146,0.259,0.248,0.487,0.399,0.743"/>
			</g>
			<g>
				<path style="fill:#DF854A;" d="M115.048,147.337c-5.942,7.026-15.73,16.781-22.061,23.459
					c-9.645-9.326-28.728-20.874-33.817-36.343c-2.362-7.181,3.454-15.901,9.487-20.456c6.033-4.554,14.819-3.379,20.059,2.069
					C100.174,127.978,107.258,135.449,115.048,147.337z"/>
				<path style="fill:none;stroke:#AF5928;stroke-width:1.4;stroke-linecap:round;stroke-linejoin:round;stroke-miterlimit:10;" d="
					M62.528,135.886c3.279,5.572,26.779,30.463,30.786,35.536"/>
				
					<line style="fill:none;stroke:#AF5928;stroke-width:1.4;stroke-linecap:round;stroke-linejoin:round;stroke-miterlimit:10;" x1="63.125" y1="144.098" x2="73.017" y2="149.308"/>
				<path style="fill:none;stroke:#AF5928;stroke-width:1.4;stroke-linecap:round;stroke-linejoin:round;stroke-miterlimit:10;" d="
					M88.08,164.061c7.467-7.364,14.934-14.729,22.401-22.093"/>
			</g>
		</g>
	</g>
</g>
</svg>
