<svg version="1.1" id="svg2" width="666.66669" height="666.66669" viewBox="0 0 666.66669 666.66669" sodipodi:docname="6409775.eps" xmlns:inkscape="http://www.inkscape.org/namespaces/inkscape" xmlns:sodipodi="http://sodipodi.sourceforge.net/DTD/sodipodi-0.dtd" xmlns="http://www.w3.org/2000/svg" xmlns:svg="http://www.w3.org/2000/svg">
  <defs id="defs6"></defs>
  <sodipodi:namedview id="namedview4" pagecolor="#ffffff" bordercolor="#000000" borderopacity="0.25" inkscape:showpageshadow="2" inkscape:pageopacity="0.0" inkscape:pagecheckerboard="0" inkscape:deskcolor="#d1d1d1"></sodipodi:namedview>
  <g id="g8" inkscape:groupmode="layer" inkscape:label="ink_ext_XXXXXX" transform="matrix(1.3333333,0,0,-1.3333333,0,666.66667)">
    <g id="g10" transform="scale(0.1)">
      
      <path d="M 981.27,699.57 H 1164.5" style="fill: none; stroke: rgb(52, 44, 42); stroke-width: 8.39088; stroke-linecap: butt; stroke-linejoin: miter; stroke-miterlimit: 10; stroke-dasharray: none; stroke-opacity: 1; visibility: visible;" id="path14" data-index="1"></path>
      <path d="M 4300.26,638.91 H 600.27 c 0,0 -116.293,591.91 343.324,1162.85 459.616,570.94 424.166,1758.09 1312.696,1937.44 802.32,161.94 1228.88,-144.39 1333.63,-567.97 173.59,-701.9 1250.34,-1765.19 710.34,-2532.32" style="fill: rgb(197, 234, 204); fill-opacity: 1; fill-rule: nonzero; visibility: visible; opacity: 1;" id="path16" data-index="2"></path>
      <path d="M 588.605,643.91 H 1153.9 c 0,0 39.16,86.711 -8.39,234.942 -64.33,22.367 -307.662,44.75 -307.662,44.75 0,0 -41.957,-68.942 -78.317,-105.301 -72.718,0 -157.176,-69.582 -170.926,-174.391" style="fill: rgb(77, 125, 115); fill-opacity: 1; fill-rule: nonzero; stroke: none; visibility: visible;" id="path18" data-index="3"></path>
      <path d="m 880.41,789 -7.812,6.25 c 43.078,53.93 60.953,101.012 61.129,101.48 l 9.363,-3.5 C 942.359,891.262 924.551,844.27 880.41,789" style="fill: rgb(50, 80, 77); fill-opacity: 1; fill-rule: nonzero; stroke: none; visibility: visible;" id="path20" data-index="4"></path>
      <path d="m 759.531,818.301 c 0,0 4.922,0.429 13.571,0.32 8.621,-0.25 21.031,-0.621 35.746,-2.851 14.668,-2.309 31.832,-5.61 49.582,-11.622 8.8,-3.148 17.957,-6.418 26.789,-10.839 8.922,-4.227 17.679,-9.188 26.109,-14.7 8.301,-5.687 16.36,-11.8 23.559,-18.668 7.402,-6.64 13.676,-14.222 19.515,-21.64 2.723,-3.871 5.395,-7.68 7.844,-11.512 2.192,-3.98 4.336,-7.867 6.422,-11.66 1.77,-3.938 3.496,-7.758 5.164,-11.457 1.512,-3.762 2.711,-7.492 3.996,-11 2.445,-7.082 3.914,-13.82 5.102,-19.742 0.871,-6.008 1.968,-11.149 2.265,-15.481 0.567,-8.617 0.891,-13.539 0.891,-13.539 0,0 -1.023,4.809 -2.809,13.231 -0.781,4.211 -2.453,9.168 -3.961,14.89 -1.855,5.641 -4.035,11.969 -6.765,18.668 -1.488,3.321 -2.887,6.821 -4.586,10.332 -1.844,3.43 -3.746,6.981 -5.707,10.617 -2.238,3.473 -4.539,7.024 -6.887,10.661 -2.59,3.461 -5.234,6.992 -7.922,10.582 -5.75,6.898 -12.078,13.66 -19.094,19.941 -6.878,6.43 -14.621,12.117 -22.57,17.457 -15.863,10.813 -33.461,18.973 -50.324,25.59 -16.977,6.402 -33.348,11.242 -47.641,14.383 -14.289,3.07 -26.343,5.367 -34.867,6.429 -8.504,1.161 -13.422,1.61 -13.422,1.61" style="fill: rgb(50, 80, 77); fill-opacity: 1; fill-rule: nonzero; stroke: none; visibility: visible;" id="path22" data-index="5"></path>
      <path d="m 958.219,795.82 c -1.281,0 -2.559,0.489 -3.535,1.469 -43.606,43.602 -125.114,40.93 -125.875,40.82 -2.735,0.012 -5.086,2.043 -5.2,4.789 -0.113,2.762 2.032,5.094 4.789,5.211 3.497,0.09 86.629,2.973 133.356,-43.75 1.953,-1.961 1.953,-5.117 0,-7.07 -0.977,-0.98 -2.258,-1.469 -3.535,-1.469" style="fill: rgb(255, 255, 255); fill-opacity: 1; fill-rule: nonzero; stroke: none; visibility: visible;" id="path24" data-index="6"></path>
      <path d="m 2106.81,2200.42 c 0,0 -20.44,-260.12 0,-465.69 20.43,-205.58 46.46,-667.08 46.46,-805.531 -63.36,-63.347 -219.01,-25.179 -219.01,-25.179 0,0 -121.67,738.4 -167.82,1317.38 155.23,29.37 340.37,-20.98 340.37,-20.98" style="fill: rgb(244, 107, 74); fill-opacity: 1; fill-rule: nonzero; stroke: none; visibility: visible;" id="path26" data-index="7"></path>
      <path d="m 1920.27,643.91 h 397.17 c 0,0 -16.79,58.75 -81.11,89.512 -64.33,30.758 -65.11,118.82 -83.06,195.777 -87.56,36.36 -219.01,-25.179 -219.01,-25.179 l -13.99,-260.11" style="fill: rgb(100, 202, 176); fill-opacity: 1; fill-rule: nonzero; stroke: none; visibility: visible;" id="path28" data-index="8"></path>
      <path d="m 990.281,3047.9 c 0,0 26.059,601.65 523.029,384.58 88.11,0 181.8,-153.84 181.8,-342.63 0,-188.8 230.75,-104.88 125.87,-348.22 -260.12,-163.62 -990.125,-574.77 -990.125,-574.77 0,0 4.29,87.23 -100.585,145.97 -104.887,58.73 -145.118,227.42 -6.665,365.87 138.446,138.45 241.5,100.69 266.676,369.2" style="fill: rgb(52, 44, 42); fill-opacity: 1; fill-rule: nonzero; stroke: none; visibility: visible;" id="path30" data-index="9"></path>
      <path d="m 1151.95,3040.92 c 0,0 21.65,9.36 52.68,25.89 15.6,8.08 33.26,18.49 51.81,30.11 9.3,5.78 18.61,12.18 28.05,18.69 9.35,6.64 18.76,13.51 27.73,20.9 9.16,7.17 17.89,14.86 26.26,22.63 4.09,3.98 8.16,7.94 12.16,11.84 3.82,4.09 7.6,8.12 11.31,12.1 7.11,8.21 13.84,16.28 19.71,24.34 5.88,8.05 10.87,16.06 15.22,23.61 4.13,7.66 7.83,14.75 10.64,21.28 3.1,6.42 4.8,12.41 6.73,17.17 2.97,9.84 4.66,15.46 4.66,15.46 0,0 -0.81,-5.81 -2.79,-15.98 -1.46,-4.95 -2.62,-11.2 -5.13,-17.98 -1.21,-3.42 -2.5,-7.05 -3.86,-10.88 -1.67,-3.71 -3.43,-7.62 -5.26,-11.68 -7.89,-16.01 -18.87,-33.96 -33.25,-51.1 -7.24,-8.51 -14.99,-17.1 -23.48,-25.17 -8.51,-8.06 -17.36,-16.03 -26.66,-23.43 -18.6,-14.8 -38.26,-28.18 -57.48,-39.31 -19.15,-11.25 -37.8,-20.29 -53.91,-27.64 -16.11,-7.37 -30.03,-12.36 -39.71,-15.88 -9.74,-3.42 -15.43,-4.97 -15.43,-4.97" style="fill: rgb(100, 85, 80); fill-opacity: 1; fill-rule: nonzero; stroke: none; visibility: visible;" id="path32" data-index="10"></path>
      <path d="m 1489.54,3239.55 c 0,0 0.41,8.8 1.38,21.69 0.43,6.44 0.94,13.94 1.48,21.97 0.52,8.01 1.01,16.53 1.24,25.04 0.42,8.51 0.32,16.97 0.3,24.94 -0.16,3.97 -0.3,7.82 -0.44,11.46 -0.36,3.6 -0.58,7.06 -0.77,10.26 -0.4,3.19 -0.76,6.1 -1.09,8.67 -0.22,2.64 -0.82,4.82 -1.11,6.69 -0.63,3.79 -0.99,5.95 -0.99,5.95 0,0 1.04,-1.92 2.87,-5.3 0.82,-1.74 2.12,-3.79 2.93,-6.34 0.93,-2.52 1.99,-5.38 3.03,-8.55 1.8,-6.39 3.42,-14.01 4.35,-22.26 0.89,-8.23 1.14,-17.07 0.91,-25.87 -0.46,-8.78 -1.13,-17.54 -2.51,-25.64 -1.2,-8.13 -2.9,-15.62 -4.56,-21.96 -3.35,-12.7 -7.02,-20.75 -7.02,-20.75" style="fill: rgb(100, 85, 80); fill-opacity: 1; fill-rule: nonzero; stroke: none; visibility: visible;" id="path34" data-index="11"></path>
      <path d="m 829.34,2281.83 406.52,-626.82 c 0,0 287.74,-356.9 715.18,-234.94 40.69,11.61 -102.73,142.64 -102.73,381.79 0,239.14 0,251.71 0,365 85.95,0 145.76,-16.79 258.5,33.56 0,130.06 -13.13,495.06 -210.32,558 -197.18,62.93 -260.11,125.86 -352.41,125.86 -121.67,-25.18 -389.52,-74.6 -389.52,-74.6 0,0 -128.62,-47.77 -207.63,-126.78 -79.016,-79.02 -108.325,-225.89 -117.59,-401.07" style="fill: rgb(251, 194, 43); fill-opacity: 1; fill-rule: nonzero; visibility: visible; opacity: 1; stroke: rgb(251, 194, 43);" id="path36" data-index="12"></path>
      <path d="m 1249.88,2653.46 c 0,0 93.31,-347.24 293.21,-303.33 177.72,39.03 126.99,418.91 64.69,524.12 -42.97,-42.98 -357.9,-220.79 -357.9,-220.79" style="fill: rgb(254, 238, 179); fill-opacity: 1; fill-rule: nonzero; stroke: rgb(254, 238, 179); visibility: visible; opacity: 1;" id="path38" data-index="13"></path>
      <path d="m 1145.51,2200.42 c 0,0 31.52,146.84 59.81,226.55 0,-163.62 26.61,-250.81 92.48,-414.89 65.87,-164.08 279.84,-445.18 468.64,-306.72 -41.96,-92.3 -230.75,-197.19 -490.87,276.9 -109.08,62.94 -239.14,158.07 -239.14,158.07 l 109.08,60.09" style="fill: rgb(217, 141, 40); fill-opacity: 1; fill-rule: nonzero; stroke: none; visibility: visible;" id="path40" data-index="14"></path>
      <path d="m 1848.32,2161.86 c -0.05,0 -0.09,0 -0.14,0 -2.76,0.06 -4.94,2.36 -4.87,5.12 0.06,2.44 6.53,245.06 31.54,349.26 0.65,2.69 3.37,4.35 6.03,3.7 2.68,-0.64 4.34,-3.35 3.7,-6.03 -24.77,-103.18 -31.21,-344.75 -31.27,-347.18 -0.07,-2.72 -2.29,-4.87 -4.99,-4.87" style="fill: rgb(217, 141, 40); fill-opacity: 1; fill-rule: nonzero; stroke: none; visibility: visible;" id="path42" data-index="15"></path>
      <path d="m 1951.04,1420.07 c 0,0 290.88,-446.109 179,-625.121 C 2018.16,615.93 1920.27,643.91 1718.5,643.91 c -175.82,61.539 -377.2,162.231 -572.99,285.289 0,-50.347 0,-50.347 0,-50.347 0,0 -192.99,-53.141 -352.412,41.957 12.582,186.691 3.675,241.061 0,358.001 -60.145,60.15 -205.582,174.82 -121.668,401.38 83.906,226.55 138.453,516.08 465.69,486.67 295.08,-26.53 160.68,-377.59 156.28,-528.63 260.2,-318.68 657.64,-218.16 657.64,-218.16" style="fill: rgb(52, 44, 42); fill-opacity: 1; fill-rule: nonzero; visibility: visible; opacity: 1; stroke: rgb(52, 44, 42);" id="path44" data-index="16"></path>
      <path d="m 788.109,1283.35 c -0.187,2.52 -18.593,255.04 0,493.72 l 9.973,-0.78 c -18.535,-237.93 -0.187,-489.68 0,-492.2 l -9.973,-0.74" style="fill: rgb(74, 63, 60); fill-opacity: 1; fill-rule: nonzero; stroke: none; visibility: visible;" id="path46" data-index="17"></path>
      <path d="m 1718.5,850.879 c 0,0 -195.37,98.922 -509.6,367.801 -14.11,-76.59 -14.11,-76.59 -14.11,-76.59 0,0 333.13,-243.66 523.71,-291.211" style="fill: rgb(39, 33, 31); fill-opacity: 1; fill-rule: nonzero; visibility: visible; opacity: 1;" id="path48" data-index="18"></path>
      <path d="m 1293.4,1638.23 c 0,0 -80.76,-348.22 -147.89,-709.031 56.88,130.011 121.63,424.421 209.49,643.331 -21.17,19.64 -41.79,41.43 -61.6,65.7" style="fill: rgb(39, 33, 31); fill-opacity: 1; fill-rule: nonzero; visibility: visible; opacity: 1;" id="path50" data-index="19"></path>
      <path d="m 1715.98,846.559 c -2.68,1.562 -270.91,159.101 -510.41,368.111 l 6.57,7.54 c 238.81,-208.4 506.21,-365.448 508.89,-367.011 l -5.05,-8.64" style="fill: rgb(74, 63, 60); fill-opacity: 1; fill-rule: nonzero; stroke: none; visibility: visible;" id="path52" data-index="20"></path>
      <path d="m 1293.4,2637.79 c 0,0 70.88,-295.12 243.34,-251.73 154.18,38.82 84.13,410.19 56.86,466.83 -35.66,-35.66 -300.2,-215.1 -300.2,-215.1" style="fill: rgb(244, 107, 74); fill-opacity: 1; fill-rule: nonzero; visibility: visible; opacity: 1; stroke: rgb(244, 107, 74);" id="path54" data-index="21"></path>
      <path d="m 1489.54,3239.55 c 0,0 -22.93,-198.63 -337.59,-198.63 -34.97,-34.97 -57.31,-46.86 -57.31,-46.86 0,0 -5.62,34.69 -40.58,69.66 -27.17,27.17 -63.673,5.85 -72.72,-52.18 -8.289,-53.15 18.515,-139.07 103.48,-124.47 25.18,-78.31 91.45,-262.91 262.07,-262.91 139.84,0 270.48,217.06 270.48,283.8 41.95,0 89.11,24.36 89.11,125.06 0,100.69 -83.52,60.94 -105.89,2.2 -16.99,97.67 -80.29,103.64 -111.05,204.33" style="fill: rgb(244, 107, 74); fill-opacity: 1; fill-rule: nonzero; stroke: none; visibility: visible;" id="path56" data-index="22"></path>
      <path d="m 1342.72,2970.98 c 0,0 -4.13,-13.74 -10.32,-34.35 -3,-10.29 -6.43,-22.29 -9.72,-35.19 -3.2,-12.91 -6.45,-26.72 -8.32,-40.59 -1.96,-13.7 -2.81,-28.03 0.76,-39.48 1.87,-5.6 4.85,-10.41 9.49,-12.73 2.35,-0.97 4.67,-2.21 7.32,-2.35 1.3,-0.2 2.58,-0.38 3.83,-0.58 1.32,0.06 2.6,0.11 3.86,0.16 2.53,-0.05 4.97,0.34 7.31,0.8 2.34,0.43 4.62,0.59 6.67,1.27 4.11,1.22 7.86,1.95 10.74,3.17 5.87,2.13 9.34,3.25 9.34,3.25 0,0 -3.05,-1.9 -8.56,-5.03 -2.71,-1.69 -6.34,-3.02 -10.37,-4.94 -1.99,-1.02 -4.33,-1.58 -6.73,-2.41 -2.39,-0.86 -4.99,-1.51 -7.85,-1.82 -5.51,-1.24 -12.24,-0.83 -18.88,1.79 -6.86,2.76 -11.92,9.5 -14.45,16.4 -5.27,14.13 -4.14,29.4 -2.38,43.88 4.31,29.08 14.19,56.41 22.56,76.32 8.53,19.9 15.7,32.43 15.7,32.43" style="fill: rgb(158, 73, 53); fill-opacity: 1; fill-rule: nonzero; stroke: none; visibility: visible;" id="path58" data-index="23"></path>
      <path d="m 1333.61,2735.48 c 0,0 7.25,1.66 17.2,5.41 5.01,1.8 10.58,4.37 16.37,7.28 5.61,3.24 11.67,6.54 16.87,11 2.86,1.9 5.22,4.39 7.76,6.62 2.5,2.26 4.62,4.83 6.89,7.13 2.18,2.38 3.94,5 5.88,7.29 1.98,2.29 3.31,4.82 4.86,6.99 1.38,2.24 3.03,4.17 3.96,6.13 1.1,1.91 2.05,3.58 2.83,4.95 1.71,2.76 2.68,4.33 2.68,4.33 0,0 -0.23,-1.82 -0.8,-5 -0.33,-1.6 -0.73,-3.54 -1.18,-5.76 -0.36,-2.28 -1.41,-4.61 -2.37,-7.25 -1.06,-2.6 -1.89,-5.61 -3.65,-8.34 -1.65,-2.78 -3.08,-5.97 -5.28,-8.77 -2.28,-2.73 -4.21,-5.98 -6.99,-8.53 -2.74,-2.57 -5.31,-5.44 -8.44,-7.66 -3.02,-2.36 -6.19,-4.5 -9.48,-6.32 -3.14,-2.08 -6.68,-3.27 -9.89,-4.79 -6.65,-2.52 -13.05,-4.24 -18.66,-4.85 -11.17,-1.59 -18.56,0.14 -18.56,0.14" style="fill: rgb(158, 73, 53); fill-opacity: 1; fill-rule: nonzero; stroke: none; visibility: visible;" id="path60" data-index="24"></path>
      <path d="m 1395.84,3061.88 c 0,0 2.92,9.27 12.46,20.07 2.54,2.5 5.05,5.61 8.46,8.08 3.2,2.71 6.94,5.21 11.12,7.42 1.97,1.29 4.28,2.12 6.59,3.01 2.35,0.81 4.6,1.99 7.17,2.38 5.06,1.12 10.28,2.02 15.69,1.59 5.41,0.18 10.58,-1.55 15.63,-2.9 4.88,-1.73 9.24,-4.45 13.42,-6.8 3.68,-3.01 7.09,-6.05 10.19,-8.94 2.77,-3.18 4.95,-6.51 7.03,-9.44 1.01,-1.49 2.03,-2.84 2.88,-4.23 0.67,-1.49 1.31,-2.9 1.91,-4.23 1.23,-2.61 2.11,-4.98 2.86,-6.89 1.44,-3.86 2.06,-6.11 2.06,-6.11 0,0 -2.06,1.35 -5.29,3.77 -1.6,1.23 -3.56,2.68 -5.6,4.45 -1.99,1.81 -4.44,3.6 -7.17,5.36 -2.59,1.79 -5.4,3.74 -8.37,5.8 -3.15,1.6 -6.34,3.29 -9.48,5.16 -3.44,1.09 -6.77,2.61 -10.23,3.59 -3.57,0.41 -6.98,1.79 -10.63,1.43 -3.58,0.47 -7.19,-0.19 -10.84,-0.54 -3.59,-0.75 -7.26,-1.44 -10.76,-2.67 -3.52,-1.15 -6.98,-2.38 -10.22,-3.93 -3.35,-1.26 -6.32,-3.02 -9.31,-4.32 -2.73,-1.67 -5.57,-2.9 -7.87,-4.31 -2.38,-1.38 -4.46,-2.57 -6.17,-3.55 -3.52,-2.06 -5.53,-3.25 -5.53,-3.25" style="fill: rgb(52, 44, 42); fill-opacity: 1; fill-rule: nonzero; stroke: none; visibility: visible;" id="path62" data-index="25"></path>
      <path d="m 1615.94,3008.49 c 0,0 54.14,65.73 54.14,23.78 0,-41.96 -20.19,-79.72 -54.14,-79.72 12.19,23.78 0,55.94 0,55.94" style="fill: rgb(158, 73, 53); fill-opacity: 1; fill-rule: nonzero; stroke: none; visibility: visible;" id="path64" data-index="26"></path>
      <path d="m 1071.43,2984.97 c 0,0 -35.18,55.68 -48.46,42.39 -13.29,-13.28 -10.98,-99.84 48.46,-92.74 -7.69,14.69 -9.79,40.56 0,50.35" style="fill: rgb(158, 73, 53); fill-opacity: 1; fill-rule: nonzero; stroke: none; visibility: visible;" id="path66" data-index="27"></path>
      <path d="m 1474.16,2981.82 c 0,-12.94 -8.76,-23.43 -19.58,-23.43 -10.82,0 -19.58,10.49 -19.58,23.43 0,12.94 8.76,23.42 19.58,23.42 10.82,0 19.58,-10.48 19.58,-23.42" style="fill: rgb(52, 44, 42); fill-opacity: 1; fill-rule: nonzero; stroke: none; visibility: visible;" id="path68" data-index="28"></path>
      <path d="m 1255.44,2981.82 c 0,-12.94 -8.77,-23.43 -19.58,-23.43 -10.82,0 -19.58,10.49 -19.58,23.43 0,12.94 8.76,23.42 19.58,23.42 10.81,0 19.58,-10.48 19.58,-23.42" style="fill: rgb(52, 44, 42); fill-opacity: 1; fill-rule: nonzero; stroke: none; visibility: visible;" id="path70" data-index="29"></path>
      <path d="m 1597.93,2842.23 c 0,0 -2.3,-5.74 -7.08,-15.44 -4.86,-9.64 -11.84,-23.48 -21.64,-39.25 -9.8,-15.76 -21.68,-33.98 -36.28,-52.14 -7.23,-9.13 -15.07,-18.3 -23.48,-27.23 -8.41,-8.9 -17.34,-17.63 -26.74,-25.87 -9.48,-8.12 -19.27,-15.93 -29.54,-22.77 -10.1,-7.1 -20.85,-12.87 -31.33,-18.19 -5.39,-2.36 -10.63,-4.86 -15.94,-6.84 -5.4,-1.75 -10.56,-3.8 -15.79,-5.14 -10.41,-2.91 -20.46,-4.73 -29.78,-5.83 -4.69,-0.35 -9.17,-0.67 -13.44,-0.97 -4.27,0.15 -8.32,0.29 -12.12,0.43 -7.59,0.27 -14.11,1.67 -19.48,2.22 -10.6,2.44 -16.54,4.03 -16.54,4.03 0,0 6.11,-0.76 16.79,-2.09 5.38,-0.06 11.86,-0.85 19.29,-0.44 3.7,0.2 7.64,0.43 11.79,0.65 4.11,0.56 8.44,1.14 12.95,1.74 8.95,1.57 18.53,3.87 28.36,7.22 4.96,1.56 9.82,3.84 14.89,5.78 4.93,2.32 9.97,4.7 15.09,7.12 9.99,5.36 20.03,11.4 29.79,18.26 9.86,6.7 19.29,14.39 28.45,22.35 9.21,7.93 18.01,16.36 26.33,25 8.25,8.71 16.35,17.33 23.67,26.15 14.83,17.46 27.92,34.48 38.37,49.63 10.47,15.13 19.08,27.9 24.64,37.12 5.67,9.15 8.77,14.5 8.77,14.5" style="fill: rgb(158, 73, 53); fill-opacity: 1; fill-rule: nonzero; stroke: none; visibility: visible;" id="path72" data-index="30"></path>
      <path d="m 829.34,2281.83 c 0,0 135.765,-1.7 316.17,-81.41 -20.97,-125.87 -72.62,-434.93 -72.62,-672.68 -49,-48.99 -210.683,-103.47 -210.683,-103.47 0,0 -62.234,534.51 -32.867,857.56" style="fill: rgb(244, 107, 74); fill-opacity: 1; fill-rule: nonzero; stroke: none; visibility: visible;" id="path74" data-index="31"></path>
      <path d="m 1084.98,1539.84 c -16.38,16.38 -224.98,-12.1 -246.375,-115.57 0,-67.13 34.204,-42.34 34.204,-84.3 -18.18,-95.1 7.179,-407.982 200.081,-388.4 61.44,25.172 96.17,132.21 96.17,132.21 0,0 54,94.49 36.26,161.02 -36.26,136.05 -108.61,197.59 -132.43,221.41 21.14,34.73 28.47,57.26 12.09,73.63" style="fill: rgb(100, 202, 176); fill-opacity: 1; fill-rule: nonzero; visibility: visible; opacity: 1;" id="path76" data-index="32"></path>
      <path d="m 978.605,1200.5 c 0,0 2.379,-16.03 5.95,-40.08 1.656,-12 4.179,-25.92 6.695,-40.81 2.727,-14.85 5.414,-30.73 9.02,-46.39 3.17,-15.76 7.25,-31.28 11.35,-45.72 1.91,-7.29 4.44,-14.06 6.43,-20.67 1.94,-6.63 4.78,-12.471 6.87,-18.119 2.06,-5.68 4.88,-10.379 6.83,-14.902 1.06,-2.207 2.06,-4.289 2.98,-6.2 1.12,-1.789 2.16,-3.429 3.09,-4.91 3.68,-6.078 5.78,-9.558 5.78,-9.558 0,0 -2.72,2.968 -7.36,8.429 -1.16,1.371 -2.44,2.891 -3.84,4.551 -1.19,1.789 -2.48,3.731 -3.86,5.801 -2.61,4.226 -6.23,8.738 -8.7,14.367 -2.61,5.543 -6.05,11.352 -8.59,17.901 -2.59,6.53 -5.88,13.28 -8.02,20.64 -2.34,7.31 -5.085,14.78 -6.929,22.61 -2.117,7.77 -4.133,15.68 -5.797,23.67 -1.77,7.97 -3.168,16.01 -4.543,23.91 -1.531,7.88 -2.285,15.75 -3.398,23.3 -1.918,15.15 -2.801,29.38 -3.583,41.53 -0.765,12.17 -0.628,22.37 -0.683,29.47 0.039,7.12 0.308,11.18 0.308,11.18" style="fill: rgb(68, 144, 128); fill-opacity: 1; fill-rule: nonzero; stroke: none; visibility: visible;" id="path78" data-index="33"></path>
      <path d="m 918.605,1187.47 c 0,0 2.356,-12.43 5.899,-31.07 3.363,-18.55 7.855,-43.28 12.344,-68.01 1.222,-6.14 2.449,-12.3 3.66,-18.34 1.34,-6.03 2.015,-12.11 3.531,-17.77 1.266,-5.75 2.488,-11.29 3.652,-16.56 1.231,-5.24 1.965,-10.34 3.192,-14.87 2.472,-9.06 4.117,-16.81 5.472,-22.17 1.266,-5.399 1.864,-8.551 1.864,-8.551 0,0 -1.422,2.82 -3.688,7.891 -2.172,5.09 -5.566,12.29 -9.144,21.17 -1.852,4.41 -3.235,9.37 -4.903,14.57 -1.593,5.23 -3.273,10.74 -5.004,16.45 -1.785,5.7 -3.054,11.7 -4.417,17.81 -1.333,6.11 -2.684,12.31 -4.036,18.51 -2.078,12.52 -4.207,25.03 -5.539,36.85 -1.222,11.83 -2.367,22.85 -2.664,32.37 -0.949,19.02 -0.219,31.72 -0.219,31.72" style="fill: rgb(68, 144, 128); fill-opacity: 1; fill-rule: nonzero; stroke: none; visibility: visible;" id="path80" data-index="34"></path>
      <path d="m 1258.73,946.73 c -32.97,-13.781 -58.88,-19.679 -92.53,-26.718 l -12.52,62.687 -37.54,-5.648 11.67,-64.102 c -57.2,-9.148 -100.88,-10.328 -100.88,-10.328 15.68,-128.871 80.27,-248.711 80.27,-248.711 l 178.16,72.711 c 0,0 -9.85,155.481 -26.63,220.109" style="fill: rgb(232, 204, 116); fill-opacity: 1; fill-rule: nonzero; stroke: none; visibility: visible;" id="path82" data-index="35"></path>
      <path d="m 1083.92,953.219 c 0,0 -76.69,222.291 14.16,282.141 35.48,-1.78 65.56,-112.52 84.21,-261.88 -48.68,-22.761 -98.37,-20.261 -98.37,-20.261" style="fill: rgb(109, 69, 55); fill-opacity: 1; fill-rule: nonzero; stroke: none; visibility: visible;" id="path84" data-index="36"></path>
      <path d="m 2993.23,2550.03 230.99,-251.06 c 0,0 -193.76,-165.69 -407.73,-228.62 -213.96,-62.93 -290.7,-41.95 -525.62,-41.95 -33.57,117.47 -46.15,209.77 -46.15,209.77 0,0 242.97,49.77 419.53,92.29 125.25,30.18 187.4,100.87 328.98,219.57" style="fill: rgb(244, 107, 74); fill-opacity: 1; fill-rule: nonzero; stroke: none; visibility: visible;" id="path86" data-index="37"></path>
      <path d="m 2686.61,1476.01 c 0,0 -4.88,-185.3 58.05,-248.25 -86.7,-53.14 -143.21,-56.63 -175.51,-112.56 -32.3,-55.95 -193.2,-288.098 -412.68,-204.188 -37.62,-3.453 -73.97,19.578 -73.97,46.148 -44.76,12.59 -14.61,58.18 43.18,82.83 57.79,24.63 136.73,110.52 184.63,158.41 -67.13,0 -142.64,-3.41 -142.64,48.98 0,52.41 78.3,18.85 156.62,59.41 78.31,40.54 95.1,57.33 137.06,57.33 79.73,35.4 201.49,88.11 225.26,111.89" style="fill: rgb(100, 202, 176); fill-opacity: 1; fill-rule: nonzero; stroke: none; visibility: visible;" id="path88" data-index="38"></path>
      <path d="m 2082.5,957.16 c 0,0 3.44,0.668 9.26,2.328 2.92,0.793 6.46,1.543 10.42,3.012 3.98,1.359 8.45,2.891 13.35,4.379 4.78,1.891 9.95,3.93 15.43,6.09 2.73,1.062 5.54,2.16 8.41,3.269 2.78,1.321 5.63,2.672 8.53,4.043 5.78,2.731 11.75,5.551 17.82,8.41 6.04,2.911 11.78,6.668 17.73,9.989 5.92,3.39 12,6.52 17.71,10.04 5.46,3.92 11.01,7.53 16.3,11.16 5.35,3.55 10.53,6.99 15.44,10.24 4.88,3.31 8.98,7.11 13.1,10.2 8.03,6.46 15.06,11.54 19.85,15.26 4.86,3.64 7.75,5.64 7.75,5.64 0,0 -2.25,-2.62 -6.4,-7.05 -4.22,-4.36 -10.06,-10.82 -17.47,-18.21 -3.77,-3.63 -7.51,-7.99 -12.21,-11.7 -4.75,-3.67 -9.76,-7.54 -14.94,-11.55 -5.26,-3.91 -10.6,-8.1 -16.2,-12.11 -5.8,-3.721 -11.98,-7.061 -18.01,-10.62 -6.18,-3.308 -12.12,-7.05 -18.38,-9.941 -6.37,-2.68 -12.64,-5.301 -18.7,-7.848 -3.05,-1.222 -5.98,-2.582 -8.97,-3.609 -3.03,-0.891 -6.01,-1.773 -8.9,-2.621 -5.78,-1.711 -11.22,-3.332 -16.32,-4.563 -10.34,-1.976 -18.92,-3.457 -25.06,-3.816 -6.07,-0.633 -9.54,-0.422 -9.54,-0.422" style="fill: rgb(68, 144, 128); fill-opacity: 1; fill-rule: nonzero; stroke: none; visibility: visible;" id="path90" data-index="39"></path>
      <path d="m 2156.47,911.012 c 0,0 2.75,1.269 7.55,3.5 4.84,2.066 11.58,5.386 19.73,9.199 8.21,3.629 17.51,8.449 27.66,13.129 5.15,2.191 10.08,5.242 15.37,7.75 5.23,2.648 10.53,5.332 15.84,8.019 5.19,2.903 10.37,5.789 15.48,8.641 4.99,3.02 10.42,5.211 14.93,8.461 4.71,2.961 9.26,5.82 13.59,8.527 4.24,2.813 8.67,4.981 12.2,7.692 7.06,5.402 13.29,9.609 17.54,12.73 4.31,3.05 6.89,4.71 6.89,4.71 0,0 -1.95,-2.28 -5.56,-6.132 -3.69,-3.769 -8.79,-9.418 -15.33,-15.828 -3.22,-3.281 -7.32,-6.019 -11.42,-9.25 -4.19,-3.14 -8.6,-6.449 -13.16,-9.871 -4.51,-3.539 -9.71,-6.289 -14.83,-9.391 -5.16,-3.007 -10.41,-6.058 -15.66,-9.128 -5.46,-2.629 -10.92,-5.258 -16.29,-7.848 -5.41,-2.524 -10.69,-5.121 -16.01,-7.102 -10.59,-4.101 -20.44,-7.98 -29.19,-10.441 -17.34,-5.418 -29.33,-7.367 -29.33,-7.367" style="fill: rgb(68, 144, 128); fill-opacity: 1; fill-rule: nonzero; stroke: none; visibility: visible;" id="path92" data-index="40"></path>
      <path d="m 2256.29,893 c 0,0 7.35,4.652 18.46,10.988 5.58,3.133 12.03,6.852 19.01,10.653 6.94,3.828 14.35,7.918 21.76,12 7.41,4.031 14.57,8.449 21.62,12.097 6.64,4.223 12.98,7.992 18.56,11.094 10.27,7.207 17.9,11.656 17.9,11.656 0,0 -5.2,-6.797 -14.41,-16.218 -4.9,-4.219 -10.81,-9 -17.3,-13.938 -6.74,-4.473 -14.05,-9.121 -21.53,-13.434 -7.7,-3.867 -15.22,-8.128 -22.72,-11.136 -7.4,-3.223 -14.39,-6.012 -20.56,-7.981 -12.21,-4.25 -20.79,-5.781 -20.79,-5.781" style="fill: rgb(68, 144, 128); fill-opacity: 1; fill-rule: nonzero; stroke: none; visibility: visible;" id="path94" data-index="41"></path>
      <path d="m 3243.21,888.641 -324.45,-19.59 c 0,0 -117.9,-69.93 -285.72,-95.09 -167.8,-25.18 -82.84,-112.219 -65.02,-130.051 132.14,0 749.86,0 749.86,0 0,0 2.25,167.809 -74.67,244.731" style="fill: rgb(45, 73, 60); fill-opacity: 1; fill-rule: nonzero; stroke: none; visibility: visible;" id="path96" data-index="42"></path>
      <path d="m 2902.62,788.84 c -2.36,0 -4.46,1.672 -4.91,4.07 -5.42,28.59 -26.46,41.41 -26.67,41.531 -2.38,1.411 -3.16,4.489 -1.74,6.86 1.41,2.39 4.49,3.148 6.85,1.738 1.03,-0.609 25.14,-15.301 31.39,-48.269 0.52,-2.719 -1.27,-5.329 -3.99,-5.84 -0.31,-0.059 -0.62,-0.09 -0.93,-0.09" style="fill: rgb(255, 255, 255); fill-opacity: 1; fill-rule: nonzero; stroke: none; visibility: visible;" id="path98" data-index="43"></path>
      <path d="m 2834.16,769.609 c -2.31,0 -4.39,1.621 -4.88,3.981 -4.37,21.07 -17.59,37.371 -17.73,37.531 -1.75,2.129 -1.43,5.289 0.7,7.027 2.13,1.782 5.28,1.442 7.03,-0.668 0.6,-0.738 14.9,-18.3 19.78,-41.859 0.57,-2.699 -1.17,-5.351 -3.87,-5.902 -0.35,-0.078 -0.69,-0.11 -1.03,-0.11" style="fill: rgb(255, 255, 255); fill-opacity: 1; fill-rule: nonzero; stroke: none; visibility: visible;" id="path100" data-index="44"></path>
      <path d="m 2755.41,753.359 c -2.5,0 -4.67,1.871 -4.96,4.422 -1.98,17.301 -8.75,30.711 -8.82,30.84 -1.25,2.449 -0.28,5.469 2.18,6.731 2.47,1.23 5.47,0.269 6.73,-2.172 0.3,-0.598 7.64,-15.071 9.85,-34.239 0.31,-2.75 -1.66,-5.23 -4.39,-5.55 -0.2,-0.02 -0.39,-0.032 -0.59,-0.032" style="fill: rgb(255, 255, 255); fill-opacity: 1; fill-rule: nonzero; stroke: none; visibility: visible;" id="path102" data-index="45"></path>
      <path d="m 3759.26,1827.01 c 0,0 602.62,138.46 602.62,-427.93 0,-79.53 -54.95,-180.4 -115.95,-201.37 0,-138.46 29.75,-214.569 -184.21,-214.569 -352.42,-18.18 -648.03,-19.961 -832.63,-19.961 6.3,-44.039 7.37,-38.551 14.12,-74.539 -33.56,-33.571 -162.22,-86.711 -324.45,-19.59 -5.59,32.168 -9.78,56.64 -23.77,95.109 -58.73,0 -241.24,15.371 -297.88,246.12 -25.93,105.66 8.4,207.68 89.5,265.73 -33.55,100.69 -232.12,509.04 25.18,646.09 257.32,137.04 727.21,-209.77 1047.47,-295.09" style="fill: rgb(31, 49, 41); fill-opacity: 1; fill-rule: nonzero; visibility: visible; opacity: 1;" id="path104" data-index="46"></path>
      <path d="m 3383.65,1656 c 0,0 3.05,1.24 8.44,3.18 5.42,1.85 13.09,4.76 22.41,7.75 9.32,3.08 20.24,6.45 31.98,9.86 11.8,3.27 24.56,6.16 37.27,9.21 25.49,5.79 51.17,10.81 70.54,13.93 9.67,1.63 17.8,2.56 23.45,3.41 5.68,0.75 8.94,1.04 8.94,1.04 0,0 -3.1,-1.16 -8.55,-2.94 -5.47,-1.69 -13.24,-4.41 -22.64,-7.12 -18.79,-5.61 -44,-12.2 -69.37,-18.03 -12.71,-2.83 -25.44,-5.56 -37.42,-8 -11.93,-2.71 -23.11,-5.06 -32.75,-6.89 -9.61,-1.91 -17.74,-3.08 -23.37,-4.1 -5.66,-0.91 -8.93,-1.3 -8.93,-1.3" style="fill: rgb(56, 90, 74); fill-opacity: 1; fill-rule: nonzero; stroke: none; visibility: visible;" id="path106" data-index="47"></path>
      <path d="m 3058.61,1669.03 c 0,0 -1.28,4.88 -3.5,13.42 -1.08,4.27 -2.55,9.41 -4.24,15.29 -1.75,5.87 -3.72,12.48 -5.86,19.71 -4.45,14.38 -10.06,31 -16.76,48.51 -3.13,8.83 -6.92,17.74 -10.72,26.8 -3.53,9.18 -8.11,18.05 -12.26,27.11 -4.2,9.04 -9.13,17.69 -13.59,26.41 -5.19,8.29 -9.81,16.77 -14.93,24.55 -5.53,7.47 -10.23,15.22 -15.53,21.91 -5.48,6.52 -10.47,12.92 -15.47,18.47 -5.38,5.15 -10.18,10.04 -14.46,14.41 -4.16,4.51 -8.76,7.24 -12.07,10.13 -6.87,5.57 -10.78,8.74 -10.78,8.74 0,0 4.32,-2.6 11.89,-7.15 3.63,-2.51 8.67,-4.81 13.34,-8.86 4.82,-3.88 10.27,-8.29 16.07,-13.3 5.48,-5.3 11.01,-11.47 17.12,-17.8 5.88,-6.49 11.3,-14 17.16,-21.58 5.45,-7.84 10.72,-16.21 16.04,-24.73 4.67,-8.85 9.83,-17.66 14.22,-26.84 4.12,-9.3 8.68,-18.41 12.18,-27.78 3.82,-9.25 7.13,-18.51 10.07,-27.55 3.25,-8.95 5.53,-17.86 7.9,-26.24 2.35,-8.38 4.14,-16.42 5.99,-23.77 3.35,-14.81 5.28,-27.32 6.58,-36.06 1.28,-8.75 1.61,-13.8 1.61,-13.8" style="fill: rgb(56, 90, 74); fill-opacity: 1; fill-rule: nonzero; stroke: none; visibility: visible;" id="path108" data-index="48"></path>
      <path d="m 3460.26,1319.55 c 0,0 709.63,-48 847.44,-72.13 -17.85,-26.19 -47.14,-43.09 -61.77,-49.71 -109.83,32.9 -644.88,107.5 -785.67,121.84" style="fill: rgb(22, 34, 29); fill-opacity: 1; fill-rule: nonzero; stroke: none; visibility: visible;" id="path110" data-index="49"></path>
      <path d="m 2885.14,1252.89 c 0,0 4.02,3.67 12.16,9.85 8.23,6.03 20.32,14.97 36.91,24.44 16.59,9.38 37.07,20.48 61.93,30.07 24.81,9.54 53.4,19.45 85.76,25.25 32.23,5.86 67.76,10.58 105.46,9.48 9.44,0.31 18.95,-0.44 28.59,-1.15 9.62,-0.75 19.47,-1.13 29.22,-2.24 19.53,-2.14 39.47,-4.34 59.75,-6.58 40.57,-4.61 82.47,-9.37 125.06,-14.22 42.57,-5.04 85.81,-10.16 129.05,-15.28 43.24,-5.22 86.37,-11.21 128.88,-16.76 42.52,-5.46 84.29,-11.4 124.7,-17.25 40.43,-5.73 79.49,-11.36 116.39,-17.69 36.93,-6.12 71.84,-11.92 104.07,-17.27 32.09,-6.17 61.5,-11.82 87.56,-16.83 26.14,-4.65 48.59,-10.44 67.12,-14.85 37.03,-9.01 58.18,-14.15 58.18,-14.15 0,0 -21.31,4.45 -58.61,12.25 -18.62,3.93 -41.14,9.12 -67.39,13.09 -26.13,4.45 -55.62,9.47 -87.8,14.95 -32.28,4.83 -67.25,10.07 -104.23,15.6 -36.95,5.74 -76.09,10.63 -116.49,16.3 -40.41,5.64 -82.18,11.36 -124.71,16.59 -42.51,5.34 -85.66,11.07 -128.9,16.11 -43.19,5.34 -86.38,10.68 -128.91,15.94 -42.55,5.06 -84.43,10.04 -124.95,14.87 -20.27,2.4 -40.2,4.76 -59.7,7.07 -9.75,1.26 -19.33,1.76 -28.84,2.66 -9.49,0.86 -18.88,1.75 -28.17,1.58 -37.18,1.67 -72.32,-2.44 -104.29,-7.73 -7.97,-1.57 -15.76,-3.1 -23.39,-4.61 -7.52,-1.95 -14.87,-3.87 -22.03,-5.74 -7.23,-1.66 -14.01,-4.13 -20.71,-6.22 -6.67,-2.18 -13.23,-4.1 -19.34,-6.63 -24.92,-8.89 -45.56,-19.38 -62.3,-28.3 -33.37,-18.32 -50.03,-32.6 -50.03,-32.6" style="fill: rgb(56, 90, 74); fill-opacity: 1; fill-rule: nonzero; stroke: none; visibility: visible;" id="path112" data-index="50"></path>
      <path d="m 3071.9,953.809 c -103.64,0 -170.84,2.421 -171.79,2.453 -2.76,0.109 -4.91,2.418 -4.82,5.187 0.11,2.75 2.08,4.742 5.19,4.813 1.38,-0.063 139.52,-5.043 325.92,-0.653 2.89,0.129 5.05,-2.129 5.11,-4.89 0.06,-2.758 -2.12,-5.047 -4.88,-5.11 -56.89,-1.328 -109.32,-1.8 -154.73,-1.8" style="fill: rgb(56, 90, 74); fill-opacity: 1; fill-rule: nonzero; stroke: none; visibility: visible;" id="path114" data-index="51"></path>
      <path d="m 2267.09,2270.38 c 53.64,-16.37 69.93,-58.78 44.76,-162.27 -25.18,-103.49 -19.58,-123.06 -95.1,-100.69 -61.54,-36.37 -99.05,-5.9 -168.98,7.97 -69.92,13.86 -143.12,21.66 -134.17,124.94 -15.83,26.53 -13.33,74.43 4.53,95.89 -4.53,31.67 4.64,66.67 33.81,88.33 24.71,56.56 74.61,124.81 130.55,102.42 55.94,-22.38 148.24,-83.82 184.6,-156.59" style="fill: rgb(100, 202, 176); fill-opacity: 1; fill-rule: nonzero; visibility: visible; opacity: 1;" id="path116" data-index="52"></path>
      <path d="m 2188.78,2296.9 c -20.89,24.22 -42.99,47.44 -66.89,68.29 -12.05,10.12 -24.8,20.05 -38.81,25.77 -6.93,2.8 -14.41,4.04 -19.94,1.49 -1.03,-0.52 -3.36,-1.87 -4.75,-2.79 -1.14,-1.14 -2.54,-1.82 -3.55,-3.23 -2.47,-2.33 -3.76,-5.45 -4.93,-8.57 -1.78,-6.54 -1.08,-14.01 0.86,-21.24 1.94,-7.27 5.03,-14.39 8.56,-21.31 7.04,-13.88 16.11,-26.86 25.4,-39.63 18.8,-25.45 40.07,-49.24 62.35,-71.93 l 1.43,-1.47 -0.21,-2.17 -2.08,-21.17 c -0.3,-3.54 -1,-7.07 -0.82,-10.61 v -10.62 l -0.02,-10.64 c 0.1,-3.53 0.73,-7.03 1.08,-10.55 l 1.22,-10.55 c 0.21,-3.58 1.38,-6.94 2.13,-10.39 l 2.53,-10.33 c 0.65,-3.51 2.25,-6.7 3.38,-10.05 l 3.7,-10 c 1.36,-3.29 3.21,-6.34 4.79,-9.53 1.73,-3.11 3.12,-6.44 5.13,-9.39 l 6.04,-8.86 c 3.82,-6.09 8.95,-11.18 13.4,-16.86 -4.86,5.26 -10.58,9.89 -14.82,15.77 l -6.7,8.57 c -2.24,2.86 -3.86,6.14 -5.83,9.2 -1.82,3.14 -3.92,6.15 -5.52,9.43 l -4.46,9.99 c -1.4,3.36 -3.26,6.59 -4.05,10.17 l -3.02,10.55 c -0.93,3.52 -2.27,6.99 -2.63,10.63 l -1.7,10.84 c -0.5,3.63 -1.29,7.23 -1.54,10.87 l -0.42,10.95 -0.42,10.97 c -0.33,3.67 0.23,7.29 0.39,10.93 l 1.69,21.85 1.22,-3.63 c -22.81,22.64 -44.61,46.36 -64.17,72.14 -9.71,12.92 -18.61,26.56 -25.96,41.26 -3.63,7.38 -6.86,15.04 -8.96,23.27 -2.03,8.15 -3.02,17.16 -0.45,26.12 1.57,4.32 3.65,8.72 7.05,11.94 1.42,1.82 3.61,3.15 5.44,4.66 1.98,1.21 3.11,1.91 5.64,3.17 9.48,4.1 18.98,1.29 26.52,-2.01 15.43,-7.07 27.82,-17.74 39.77,-28.56 11.88,-10.94 22.82,-22.74 33.21,-34.97 10.39,-12.22 20.44,-24.72 29.72,-37.77" style="fill: rgb(68, 144, 128); fill-opacity: 1; fill-rule: nonzero; stroke: none; visibility: visible;" id="path118" data-index="53"></path>
      <path d="m 1959.85,2312.83 c 0,0 10.85,-8.34 27.13,-20.85 16.25,-12.41 37.79,-29.04 60.27,-44.01 11.16,-7.58 22.69,-14.54 33.78,-20.38 11.11,-5.76 21.92,-10.27 31.56,-12.24 4.8,-0.91 9.31,-1.53 13.26,-1.22 2.01,0.01 3.86,0.23 5.52,0.7 1.71,0.35 3.28,0.7 4.56,1.37 2.74,1.02 4.74,2.18 6.02,3.15 1.35,0.87 2.07,1.34 2.07,1.34 0,0 -0.6,-0.61 -1.72,-1.76 -1.1,-1.22 -2.76,-2.97 -5.5,-4.47 -1.27,-0.94 -2.85,-1.6 -4.61,-2.26 -1.73,-0.81 -3.68,-1.38 -5.84,-1.76 -4.27,-1.07 -9.26,-1.22 -14.58,-0.77 -5.35,0.42 -11,1.61 -16.83,3.3 -5.77,1.8 -11.81,3.9 -17.73,6.69 -5.96,2.72 -12.05,5.65 -17.92,9.15 -5.95,3.38 -11.81,7.07 -17.6,10.86 -23,15.4 -43.76,33.58 -58.46,48.01 -7.4,7.16 -13.12,13.6 -17.21,17.98 -4.03,4.47 -6.17,7.17 -6.17,7.17" style="fill: rgb(68, 144, 128); fill-opacity: 1; fill-rule: nonzero; stroke: none; visibility: visible;" id="path120" data-index="54"></path>
      <path d="m 1938.45,2211.82 c 0,0 3.25,-1.62 8.96,-4.48 5.64,-2.92 13.9,-6.72 23.7,-11.33 9.86,-4.54 21.36,-9.73 33.87,-14.72 12.51,-4.93 25.96,-9.87 39.69,-13.51 6.84,-1.88 13.75,-3.46 20.58,-4.51 6.84,-0.98 13.59,-1.82 20.09,-1.72 6.5,0.02 12.73,0.64 18.43,2.04 2.82,0.8 5.62,1.47 8.1,2.67 2.63,0.93 5,2.15 7.15,3.54 2.33,1.18 4.16,2.83 6.03,4.29 1.98,1.36 3.49,3.04 4.95,4.6 3.16,2.95 4.95,6.34 6.86,8.84 3.08,5.54 4.84,8.7 4.84,8.7 0,0 -0.26,-0.87 -0.76,-2.5 -0.56,-1.61 -1.09,-4.13 -2.35,-7.1 -1.53,-2.82 -2.86,-6.64 -5.69,-10.26 -2.47,-3.85 -6.02,-7.87 -10.62,-11.29 -4.45,-3.71 -10.18,-6.51 -16.42,-8.65 -6.27,-2.09 -13.15,-3.4 -20.26,-3.68 -7.11,-0.38 -14.44,-0.07 -21.74,0.97 -7.31,1 -14.61,2.53 -21.78,4.41 -28.69,7.9 -54.99,21.41 -73.66,32.84 -18.7,11.52 -29.97,20.85 -29.97,20.85" style="fill: rgb(68, 144, 128); fill-opacity: 1; fill-rule: nonzero; stroke: none; visibility: visible;" id="path122" data-index="55"></path>
      <path d="m 1938.45,2142.15 c 0,0 3.28,-1.17 9.02,-3.23 5.69,-2.12 13.99,-4.74 23.86,-7.87 19.74,-5.98 46.46,-13.6 73.37,-14.99 6.71,-0.52 13.38,-0.21 19.88,0.34 6.4,0.93 12.78,1.78 18.47,4 5.81,1.9 10.94,4.77 15.56,7.9 4.39,3.42 8.28,7.09 11.28,11.05 3.08,3.91 5.31,7.95 7.33,11.59 1.7,3.75 3.12,7.14 4.15,9.97 1.73,5.76 2.87,9.11 2.87,9.11 0,0 -0.26,-3.46 -0.99,-9.59 -0.57,-3.02 -1.44,-6.68 -2.58,-10.88 -1.45,-4.1 -3.1,-8.8 -6.04,-13.45 -2.75,-4.72 -6.61,-9.38 -11.36,-13.64 -4.91,-4.01 -10.59,-7.87 -17.09,-10.29 -12.86,-5.44 -27.71,-6.75 -41.99,-6.09 -28.77,1.61 -55.71,11.19 -74.87,19.63 -19.2,8.66 -30.87,16.44 -30.87,16.44" style="fill: rgb(68, 144, 128); fill-opacity: 1; fill-rule: nonzero; stroke: none; visibility: visible;" id="path124" data-index="56"></path>
      <path d="m 1959.85,2060.56 c 0,0 2.96,-0.02 8.13,-0.06 5.15,-0.14 12.5,0.11 21.25,0.32 17.45,0.67 40.84,1.89 62.71,7.96 5.5,1.39 10.78,3.3 15.84,5.44 4.91,2.39 9.86,4.62 13.94,7.75 4.25,2.93 7.86,6.33 11,9.84 2.93,3.67 5.44,7.4 7.27,11.17 1.82,3.78 3.08,7.45 4.1,10.81 0.88,3.37 1.39,6.42 1.84,8.93 0.47,5.06 0.88,8.05 0.88,8.05 0,0 0.48,-2.89 1.06,-8.11 0.04,-2.61 0.12,-5.82 -0.11,-9.52 -0.36,-3.68 -0.93,-7.88 -2.44,-12.3 -1.41,-4.43 -3.63,-9.05 -6.66,-13.55 -3.16,-4.37 -6.93,-8.77 -11.62,-12.34 -9.15,-7.48 -20.72,-12.56 -32.44,-15.81 -23.65,-6.43 -47.92,-5.88 -65.59,-4.03 -17.75,2.04 -29.16,5.45 -29.16,5.45" style="fill: rgb(68, 144, 128); fill-opacity: 1; fill-rule: nonzero; visibility: visible; opacity: 1;" id="path126" data-index="57"></path>
      <path d="m 3475.25,2963.83 c 0,0 -90.91,4.71 -250.33,-192.84 -23.65,-29.28 -116.16,-105.43 -231.69,-220.96 38.22,-110.7 114.21,-237.2 230.99,-251.06 73.42,-101.36 281.8,-178.27 336.33,-274.77 54.54,-96.49 47.12,-202.34 26.13,-319.82 125.87,25.18 306.92,48.5 366.92,-35.35 158.49,-221.48 370.53,-173.45 408.28,-269.95 94.4,94.4 52.36,102.71 27.19,195 -25.17,92.31 -15.55,204.03 -63.47,374.11 -46.44,164.83 -85.39,269.98 -173.49,462.97 -88.11,192.99 -376.17,625.97 -676.86,532.67" style="fill: rgb(169, 213, 43); fill-opacity: 1; fill-rule: nonzero; stroke: none; visibility: visible;" id="path128" data-index="58"></path>
      <path d="m 3484.15,2102.18 c 33.39,-25.1 61.02,-50.75 76.4,-77.98 2.99,-5.31 6.08,-11.03 8.56,-16.24 46.55,136.31 120.1,391.08 120.1,530.89 -25.17,-111.88 -99.29,-300.68 -99.29,-300.68 l -105.77,-135.99" style="fill: rgb(109, 138, 39); fill-opacity: 1; fill-rule: nonzero; stroke: none; visibility: visible;" id="path130" data-index="59"></path>
      <path d="m 3655.64,1806.76 c 0,0 204.17,125.14 204.17,368.48 25.18,-106.29 -2.79,-297.84 -204.17,-368.48" style="fill: rgb(109, 138, 39); fill-opacity: 1; fill-rule: nonzero; stroke: none; visibility: visible;" id="path132" data-index="60"></path>
      <path d="m 3229.1,2297.9 -9.76,2.15 c 40.77,185.03 82.06,406.71 82.48,408.92 l 9.82,-1.82 c -0.41,-2.23 -41.74,-224.06 -82.54,-409.25" style="fill: rgb(109, 138, 39); fill-opacity: 1; fill-rule: nonzero; stroke: none; visibility: visible;" id="path134" data-index="61"></path>
      <path d="m 1874.92,1234.11 c -1.73,38.21 24.62,289.02 36.22,339.53 9.56,41.67 37.85,150.02 57.31,219.49 7.31,26.13 46.4,239.97 51.61,260.83 40,3.77 60.82,16.64 60.82,16.64 -19.92,-92.49 -40.81,-252.49 -57.77,-306.15 -12.06,-38.14 -29.34,-106.71 -45.25,-171.26 -11.4,-46.23 -19.42,-314.42 -18.01,-345.77 l -84.93,-13.31" style="fill: rgb(45, 73, 60); fill-opacity: 1; fill-rule: nonzero; stroke: none; visibility: visible;" id="path136" data-index="62"></path>
      <path d="m 2816.29,3734.18 c -26.54,-58.4 -87.48,-111.2 -186.28,-161.41 -56.01,-28.46 -148.23,-95.12 -213.33,-144.12 10.35,30.86 21.24,61.37 32.01,91.44 44.62,124.57 90.75,253.37 91.72,394.94 l -59.99,0.41 c -0.9,-131.36 -43.32,-249.77 -88.22,-375.12 -26.49,-73.95 -53.88,-150.44 -72.29,-230.33 -16.61,-72.06 -31.79,-145.86 -46.4,-218.5 -6.37,44.97 -14.79,87.38 -25.42,122.12 -22.36,73.14 -128.92,242.14 -142.69,263.87 -58.46,92.3 -103.02,306.51 -133.62,362.62 l -52.68,-28.73 c 27.34,-50.11 84.94,-279.53 134.62,-364.37 47.38,-80.91 117.01,-185.58 137,-250.94 26.24,-85.82 38.07,-223.76 38.27,-323.74 -35.29,-166.91 -73.28,-323.62 -134.95,-479.46 0,0 26.2,-17.22 46.91,-39.09 8.77,12.72 37.12,90.08 50.9,132.69 158.42,84.99 379.19,310.12 402.13,343.26 l -35.52,34.15 c -19.44,-28.08 -228.19,-247.7 -343.2,-300.97 44.18,152.66 75.68,310.06 106.45,463.86 17.8,88.96 36.21,180.95 56.66,269.76 2.59,11.22 5.42,22.4 8.37,33.55 36.62,28.61 194.07,150.39 270.46,189.22 111.4,56.61 181.31,118.78 213.72,190.06 l -54.63,24.83" style="fill: rgb(45, 73, 60); fill-opacity: 1; fill-rule: nonzero; stroke: none; visibility: visible;" id="path138" data-index="63"></path>
      <path d="m 2004.95,3786.92 c -30.54,-57.18 -151.2,-149.02 -242.19,-58.04 -153.79,-90.16 -329.34,47.78 -287.15,172.26 -72.64,50.77 -70.62,214.38 35.2,238.1 0,96.37 123.72,301.54 365.86,177.19 116.23,116.23 298.68,35.36 281.03,-132.51 153.29,-49.75 127.46,-282.78 -26.77,-296.5 28.69,-77.72 -52.53,-121.25 -125.98,-100.5" style="fill: rgb(66, 189, 124); fill-opacity: 1; fill-rule: nonzero; stroke: none; visibility: visible;" id="path140" data-index="64"></path>
      <path d="m 1643.01,3866.22 c 0,0 101.84,-98.75 215.59,15 -37.5,-75 -146.19,-112.5 -215.59,-15" style="fill: rgb(53, 149, 103); fill-opacity: 1; fill-rule: nonzero; stroke: none; visibility: visible;" id="path142" data-index="65"></path>
      <path d="m 1891.1,3976.22 c 0,0 132.5,-67.5 210,35 -15,-57.5 -123.75,-121.25 -210,-35" style="fill: rgb(53, 149, 103); fill-opacity: 1; fill-rule: nonzero; stroke: none; visibility: visible;" id="path144" data-index="66"></path>
      <path d="m 1523.6,4030.78 c 0,0 -15.33,80.44 92.34,127.94 -72.34,0 -114.84,-75.89 -92.34,-127.94" style="fill: rgb(53, 149, 103); fill-opacity: 1; fill-rule: nonzero; stroke: none; visibility: visible;" id="path146" data-index="67"></path>
      <path d="m 1706.48,4078.72 c 0,0 8.44,105 136.53,80 -61.91,30 -136.53,17.5 -136.53,-80" style="fill: rgb(53, 149, 103); fill-opacity: 1; fill-rule: nonzero; stroke: none; visibility: visible;" id="path148" data-index="68"></path>
      <path d="m 2163.6,4094.75 c 0,0 -15,88.97 -135,88.97 52.5,20 135,2.05 135,-88.97" style="fill: rgb(53, 149, 103); fill-opacity: 1; fill-rule: nonzero; stroke: none; visibility: visible;" id="path150" data-index="69"></path>
      <path d="m 1475.61,3901.14 c 0,0 49.3,105.8 167.4,32.94 -24.41,49.64 -145.4,61.97 -167.4,-32.94" style="fill: rgb(53, 149, 103); fill-opacity: 1; fill-rule: nonzero; stroke: none; visibility: visible;" id="path152" data-index="70"></path>
      <path d="m 1876.67,4316.43 c 0,0 -62.85,-78.97 64.43,-107.71 -52.5,0 -142.79,29.35 -64.43,107.71" style="fill: rgb(53, 149, 103); fill-opacity: 1; fill-rule: nonzero; stroke: none; visibility: visible;" id="path154" data-index="71"></path>
      <path d="m 2500,3499.72 c 43.6,82.29 255.03,82.29 275.33,-47.55 203.2,44.8 348.55,-171.52 256.93,-294.57 62.4,-82.51 -62.61,-265.02 -188.66,-253.31 -17.95,-103.5 -310,-246.4 -376.66,-61 -170.88,-87.26 -336.63,51.54 -256.67,231.61 -158.55,89.5 -68.57,358 99.2,333.61 -3.92,96.63 131.36,150.38 190.53,91.21" style="fill: rgb(66, 189, 124); fill-opacity: 1; fill-rule: nonzero; stroke: none; visibility: visible;" id="path156" data-index="72"></path>
      <path d="m 2309.47,3408.51 c 0,0 140.94,-39.27 58.79,-155.78 67.84,43.49 59.58,155.78 -58.79,155.78" style="fill: rgb(53, 149, 103); fill-opacity: 1; fill-rule: nonzero; stroke: none; visibility: visible;" id="path158" data-index="73"></path>
      <path d="m 2210.27,3074.9 c 0,0 64.09,78.29 149.96,19.81 0,49.01 -129.44,63.92 -149.96,-19.81" style="fill: rgb(53, 149, 103); fill-opacity: 1; fill-rule: nonzero; stroke: none; visibility: visible;" id="path160" data-index="74"></path>
      <path d="m 2360.23,2942.5 c 0,0 51.23,95.73 166.05,28.48 -35.18,55.24 -141.92,52.8 -166.05,-28.48" style="fill: rgb(53, 149, 103); fill-opacity: 1; fill-rule: nonzero; stroke: none; visibility: visible;" id="path162" data-index="75"></path>
      <path d="m 2463.59,3376.22 c 0,0 80.01,105 185.01,0 -32.5,75 -152.53,102.5 -185.01,0" style="fill: rgb(53, 149, 103); fill-opacity: 1; fill-rule: nonzero; stroke: none; visibility: visible;" id="path164" data-index="76"></path>
      <path d="m 2466.94,2843.29 c 0,0 40.23,115.02 169.16,62.93 -27.08,27.08 -155.83,57.61 -169.16,-62.93" style="fill: rgb(53, 149, 103); fill-opacity: 1; fill-rule: nonzero; stroke: none; visibility: visible;" id="path166" data-index="77"></path>
      <path d="m 2816.33,2890.02 c 0,0 -95.23,39.53 -140.23,-37.13 0,38.33 52.95,90.92 140.23,37.13" style="fill: rgb(53, 149, 103); fill-opacity: 1; fill-rule: nonzero; stroke: none; visibility: visible;" id="path168" data-index="78"></path>
      <path d="m 2712.77,3951.67 c 92.81,30.22 95.81,165.95 0.69,165.42 20.45,55.39 -35.27,147.07 -106.05,118.68 -6.36,63.42 -117.03,86.68 -157.85,-8.16 -64.14,15.64 -137.17,-59.97 -104.71,-113.37 -58.39,14.24 -109.67,-87.12 -47.69,-135.75 -32.76,-44.78 10.25,-144.44 91.55,-116.03 29.63,-48.76 100.67,-72.71 132.54,-9.62 38.96,-64.1 217.34,-72.7 191.52,98.83" style="fill: rgb(66, 189, 124); fill-opacity: 1; fill-rule: nonzero; stroke: none; visibility: visible;" id="path170" data-index="79"></path>
      <path d="m 2344.85,4114.24 c 0,0 93.75,64.48 136.25,-35.52 0,72.5 -75.37,96.4 -136.25,35.52" style="fill: rgb(53, 149, 103); fill-opacity: 1; fill-rule: nonzero; stroke: none; visibility: visible;" id="path172" data-index="80"></path>
      <path d="m 2712.77,3951.67 c 0,0 -13.33,114.77 -105.53,76.41 37.54,28.36 105.53,27.53 105.53,-76.41" style="fill: rgb(53, 149, 103); fill-opacity: 1; fill-rule: nonzero; stroke: none; visibility: visible;" id="path174" data-index="81"></path>
      <path d="m 2521.25,3852.84 c 0,0 -30.43,100.05 85.99,116.41 -66.97,5.66 -121.97,-52.69 -85.99,-116.41" style="fill: rgb(53, 149, 103); fill-opacity: 1; fill-rule: nonzero; stroke: none; visibility: visible;" id="path176" data-index="82"></path>
      <path d="m 2297.16,3978.49 c 0,0 81.21,68.4 113.83,-61.93 0,69.66 -48.42,127.33 -113.83,61.93" style="fill: rgb(53, 149, 103); fill-opacity: 1; fill-rule: nonzero; stroke: none; visibility: visible;" id="path178" data-index="83"></path>
      <path d="m 2713.46,4117.09 c 0,0 -58.19,76.86 -137.36,8.83 31.14,46.35 123.34,63.85 137.36,-8.83" style="fill: rgb(53, 149, 103); fill-opacity: 1; fill-rule: nonzero; stroke: none; visibility: visible;" id="path180" data-index="84"></path>
      <path d="m 2799.08,3703.49 c -64.62,-64.61 52.57,-147.17 91.08,-108.68 28.44,-42.36 120.86,-49.76 136.81,14.18 47.64,-27.64 119.96,38.09 74.2,114.71 64.15,29.19 46.28,126.43 -7.57,130.73 40.29,61.93 -69.63,203.75 -176.62,96.76 -56.95,34.89 -142.65,-33.69 -114.6,-87.96 -64.62,5.16 -136.51,-90.98 -3.3,-159.74" style="fill: rgb(66, 189, 124); fill-opacity: 1; fill-rule: nonzero; stroke: none; visibility: visible;" id="path182" data-index="85"></path>
      <path d="m 2802.38,3863.23 c 0,0 113.72,5 83.72,-87.25 27.62,27.62 28.65,108.04 -83.72,87.25" style="fill: rgb(53, 149, 103); fill-opacity: 1; fill-rule: nonzero; stroke: none; visibility: visible;" id="path184" data-index="86"></path>
      <path d="m 3093.6,3854.43 c 0,0 -63.24,-52.41 -100.37,12.19 12.87,-60.4 72.87,-66.48 100.37,-12.19" style="fill: rgb(53, 149, 103); fill-opacity: 1; fill-rule: nonzero; stroke: none; visibility: visible;" id="path186" data-index="87"></path>
      <path d="m 3026.97,3608.99 c 0,0 -83.37,42.23 -15.87,109.73 -55,-20 -55.76,-89.45 15.87,-109.73" style="fill: rgb(53, 149, 103); fill-opacity: 1; fill-rule: nonzero; stroke: none; visibility: visible;" id="path188" data-index="88"></path>
      <path d="m 2890.16,3594.81 c 0,0 66.55,67.43 0,95.67 38.44,0 74.05,-62.07 0,-95.67" style="fill: rgb(53, 149, 103); fill-opacity: 1; fill-rule: nonzero; stroke: none; visibility: visible;" id="path190" data-index="89"></path>
      <path d="m 2956.1,3748.72 c 0,0 92.5,55 117.5,-45 0,52.5 -51.55,103.24 -117.5,45" style="fill: rgb(53, 149, 103); fill-opacity: 1; fill-rule: nonzero; stroke: none; visibility: visible;" id="path192" data-index="90"></path>
      <path d="m 1737.07,1302.6 c 21.23,48.99 84.65,-23.79 183.2,-23.79 98.55,0 140.69,13.95 140.69,-34.01 0,-47.95 -71.32,-522.441 -161.94,-522.441 -90.63,0 -128.39,15.231 -199.71,43.911 -71.32,28.679 -99.91,6.289 -62.54,84.609 37.37,78.32 45.75,325.861 100.3,451.721" style="fill: rgb(109, 69, 55); fill-opacity: 1; fill-rule: nonzero; visibility: visible; opacity: 1;" id="path194" data-index="91"></path>
      <path d="m 1766.44,1200.5 c 0,0 -12.84,-89.28 52.16,-89.28 65,0 34.17,-105.53 97.09,-90.26 -35.91,-35.909 -75.05,11.44 -75.05,55.87 0,44.42 -32.04,11.97 -57.04,11.97 -25,0 -34.33,73.48 -17.16,111.7" style="fill: rgb(78, 48, 40); fill-opacity: 1; fill-rule: nonzero; stroke: none; visibility: visible;" id="path196" data-index="92"></path>
      <path d="m 1871.1,1218.68 c 0,0 47.5,-51.48 67.5,-115.72 0,45.76 2.5,115.72 -67.5,115.72" style="fill: rgb(78, 48, 40); fill-opacity: 1; fill-rule: nonzero; stroke: none; visibility: visible;" id="path198" data-index="93"></path>
      <path d="m 1726.94,911.012 c 0,0 75.37,-20.141 113.7,18.187 0,-34.648 -81.92,-49.969 -113.7,-18.187" style="fill: rgb(78, 48, 40); fill-opacity: 1; fill-rule: nonzero; stroke: none; visibility: visible;" id="path200" data-index="94"></path>
      <path d="m 1938.61,982.699 c 0,0 -15.01,-86.48 -67.51,-116.48 -52.5,-30 -79.16,-71.668 -129.16,-36.668 25,-45 66.67,-11.66 108.33,6.668 41.67,18.332 88.34,52.953 88.34,146.48" style="fill: rgb(78, 48, 40); fill-opacity: 1; fill-rule: nonzero; stroke: none; visibility: visible;" id="path202" data-index="95"></path>
      <path d="m 1986.53,1221.53 c 8.03,15.91 23.34,-25 15.14,-41.25 -8.2,-16.25 -28.07,15.63 -15.14,41.25" style="fill: rgb(78, 48, 40); fill-opacity: 1; fill-rule: nonzero; stroke: none; visibility: visible;" id="path204" data-index="96"></path>
      <path d="m 1744.48,957.301 c 9.05,-8.02 -14.22,-23.332 -23.46,-15.129 -9.25,8.199 8.89,28.058 23.46,15.129" style="fill: rgb(78, 48, 40); fill-opacity: 1; fill-rule: nonzero; stroke: none; visibility: visible;" id="path206" data-index="97"></path>
      <path d="m 1815.2,1143.4 c -5.67,-7.94 -19.91,9.41 -14.13,17.52 5.79,8.1 23.26,-4.74 14.13,-17.52" style="fill: rgb(78, 48, 40); fill-opacity: 1; fill-rule: nonzero; stroke: none; visibility: visible;" id="path208" data-index="98"></path>
      <path d="m 1781.91,1249.45 c -5.66,-7.94 -19.9,9.42 -14.12,17.52 5.78,8.11 23.25,-4.73 14.12,-17.52" style="fill: rgb(78, 48, 40); fill-opacity: 1; fill-rule: nonzero; stroke: none; visibility: visible;" id="path210" data-index="99"></path>
      <path d="m 1980.83,961.719 c -9.56,-1.918 -8.08,20.492 1.69,22.441 9.77,1.949 13.72,-19.371 -1.69,-22.441" style="fill: rgb(78, 48, 40); fill-opacity: 1; fill-rule: nonzero; stroke: none; visibility: visible;" id="path212" data-index="100"></path>
      <path d="m 1955.61,930 c -7.88,-1.578 -6.66,16.879 1.39,18.5 8.05,1.609 11.31,-15.969 -1.39,-18.5" style="fill: rgb(78, 48, 40); fill-opacity: 1; fill-rule: nonzero; stroke: none; visibility: visible;" id="path214" data-index="101"></path>
      <path d="m 1918.68,765.152 c -7.88,-1.593 -6.66,16.879 1.39,18.489 8.06,1.609 11.31,-15.961 -1.39,-18.489" style="fill: rgb(78, 48, 40); fill-opacity: 1; fill-rule: nonzero; stroke: none; visibility: visible;" id="path216" data-index="102"></path>
      <path d="m 1896.37,797.789 c -7.88,-1.578 -6.66,16.891 1.39,18.5 8.05,1.609 11.3,-15.969 -1.39,-18.5" style="fill: rgb(78, 48, 40); fill-opacity: 1; fill-rule: nonzero; stroke: none; visibility: visible;" id="path218" data-index="103"></path>
      <path d="m 2616.58,3071.66 c 0,0 264.12,-250.03 662.69,-7.4 -4.47,130.47 26.06,308.79 -37.57,372.42 -63.63,63.62 -117.47,110.47 -239.14,110.47 -121.67,0 -172.01,0 -247.53,-37.77 -75.52,-37.76 -208.97,-169.59 -251.73,-212.34 -42.76,-42.76 -133.4,-50.32 -46.15,-137.58 25.17,-61.22 62.93,-131.15 159.43,-87.8" style="fill: rgb(52, 44, 42); fill-opacity: 1; fill-rule: nonzero; stroke: none; visibility: visible;" id="path220" data-index="104"></path>
      <path d="m 2616.58,3071.66 c 0,0 82.51,9.8 226.55,153.85 47.55,-47.55 149.63,-56.65 225.15,-56.65 -13.97,35.66 -21.7,90.13 22.38,111.18 61.55,29.36 162.22,-58.74 134.26,-151.04 32.08,-32.09 113.27,-142.8 250.33,-165.17 -138.45,-54.39 -168.52,-255.77 -168.52,-255.77 0,0 -83.52,64.37 -170.23,92.34 -45.83,-60.18 -78.7,-76.26 -112.26,-76.26 -33.58,0 -86.58,35.56 -123.77,63.63 -11.89,-16.78 -42.95,-75.23 -74.82,-6.99 -44.4,95.1 -38.28,129.18 -55.94,146.84 -29.36,29.36 -106.98,69.93 -153.13,144.04" style="fill: rgb(244, 107, 74); fill-opacity: 1; fill-rule: nonzero; stroke: none; visibility: visible;" id="path222" data-index="105"></path>
      <path d="m 3224.92,3129 c 0,0 0.48,-4.13 -1.62,-9.8 -0.4,-1.49 -1.21,-2.86 -2.01,-4.4 -0.86,-1.47 -1.54,-3.26 -2.85,-4.6 -1.21,-1.43 -2.38,-3.02 -3.76,-4.45 -1.27,-1.56 -3.01,-2.61 -4.56,-3.9 -1.65,-1.15 -3.31,-2.28 -4.95,-3.4 -1.73,-0.94 -3.64,-1.5 -5.36,-2.22 -1.71,-0.71 -3.45,-1.23 -5.06,-1.74 -1.6,-0.57 -3.29,-0.48 -4.76,-0.64 -5.96,-0.46 -9.82,0.19 -9.82,0.19 0,0 3.27,2.68 8.01,5.26 1.17,0.73 2.52,1.21 3.77,2.12 1.24,0.89 2.53,1.86 3.92,2.68 1.39,0.84 2.76,1.79 4.24,2.57 l 3.97,3.14 c 1.36,1.01 2.94,1.77 4.05,3.02 1.18,1.18 2.52,2.15 3.75,3.21 1.3,0.97 2.3,2.16 3.42,3.18 1.01,1.09 2.29,1.94 3.13,2.97 3.77,3.81 6.49,6.81 6.49,6.81" style="fill: rgb(158, 73, 53); fill-opacity: 1; fill-rule: nonzero; stroke: none; visibility: visible;" id="path224" data-index="106"></path>
      <path d="m 3117.25,3166.77 c 0,0 -25.18,69.92 11.18,69.92 36.36,0 75.51,-58.74 36.36,-83.92 -13.98,26.58 -30.07,31.47 -47.54,14" style="fill: rgb(158, 73, 53); fill-opacity: 1; fill-rule: nonzero; stroke: none; visibility: visible;" id="path226" data-index="107"></path>
      <path d="m 3136.5,2800.4 c 0,0 1.12,2.14 3.06,5.88 2.11,3.58 4.47,9.12 7.74,15.41 1.66,3.14 3.08,6.75 4.91,10.37 1.7,3.68 3.69,7.45 5.37,11.55 1.8,4.05 3.5,8.27 5.49,12.45 2.08,4.15 3.58,8.62 5.3,12.99 3.66,8.67 7.14,17.41 9.9,25.8 1.42,4.18 2.97,8.18 4.42,11.99 1.55,3.77 2.49,7.49 3.59,10.87 2.05,6.79 4.21,12.41 5.52,16.39 1.4,3.97 2.35,6.23 2.35,6.23 0,0 -0.07,-2.4 -0.44,-6.59 -0.47,-4.17 -0.85,-10.2 -1.84,-17.38 -0.51,-3.6 -0.83,-7.55 -2,-11.53 -0.97,-4.02 -1.99,-8.29 -3.21,-12.64 -1.28,-4.34 -2.19,-8.98 -3.88,-13.43 -1.71,-4.44 -3.43,-8.96 -5.16,-13.48 -1.88,-4.45 -3.54,-9 -5.77,-13.21 -2.08,-4.29 -4.36,-8.39 -6.43,-12.42 -1.94,-4.08 -4.54,-7.67 -6.71,-11.2 -2.25,-3.5 -4.3,-6.83 -6.51,-9.72 -4.32,-5.83 -8.23,-10.44 -11.07,-13.58 -2.79,-3.18 -4.63,-4.75 -4.63,-4.75" style="fill: rgb(158, 73, 53); fill-opacity: 1; fill-rule: nonzero; stroke: none; visibility: visible;" id="path228" data-index="108"></path>
      <path d="m 2973.19,2770.99 c 0,0 3.66,4.63 7.61,11.72 1.01,1.75 1.94,3.71 2.88,5.76 1.04,2 1.61,4.31 2.5,6.51 1.28,4.58 2.21,9.46 1.97,14.39 0.01,2.45 -0.44,4.92 -0.75,7.34 -0.82,2.34 -1.06,4.81 -1.92,7.08 -0.98,2.22 -1.76,4.46 -2.54,6.61 -1.12,1.99 -2.09,3.97 -2.98,5.82 -1.66,3.79 -3.84,6.54 -4.92,8.83 -1.2,2.21 -1.85,3.55 -1.85,3.55 0,0 1.23,-0.74 3.31,-2.2 1.95,-1.58 5.28,-3.41 8.1,-6.8 1.5,-1.62 3.14,-3.41 4.77,-5.39 1.36,-2.17 2.86,-4.49 4.22,-6.99 1.25,-2.55 2.26,-5.42 3.22,-8.31 0.54,-3.01 1.23,-6.13 1.33,-9.27 -0.12,-3.18 -0.15,-6.34 -0.95,-9.36 -0.42,-3.09 -1.81,-5.84 -2.84,-8.54 -2.6,-5.18 -5.73,-9.52 -9.04,-12.55 -6.39,-6.3 -12.12,-8.2 -12.12,-8.2" style="fill: rgb(158, 73, 53); fill-opacity: 1; fill-rule: nonzero; stroke: none; visibility: visible;" id="path230" data-index="109"></path>
      <path d="m 2755.03,2982.24 c 0,0 -2.38,8.22 -0.48,20.6 0.64,3.04 1.05,6.48 2.32,9.87 1.03,3.49 2.51,7.08 4.44,10.65 1.72,3.66 4.37,7.1 6.97,10.57 3.06,3.19 5.98,6.64 9.85,9.16 1.9,1.28 3.72,2.67 5.71,3.78 2.04,1.01 4.16,1.89 6.22,2.79 4.02,2.11 8.57,2.32 12.64,3.25 4.14,0.69 8.17,0.15 11.88,0.09 3.74,-0.01 7.05,-1.45 10.12,-2.15 6.18,-1.33 10.6,-4.42 13.73,-6.14 3.08,-1.88 4.7,-3.11 4.7,-3.11 0,0 -2.13,-0.38 -5.64,-0.76 -1.74,-0.16 -3.84,-0.41 -6.14,-0.48 -2.32,0.03 -4.92,-0.6 -7.64,-0.96 -2.7,-0.58 -5.65,-0.48 -8.51,-1.45 -2.86,-0.92 -5.94,-1.23 -8.79,-2.38 -2.77,-1.39 -5.91,-1.85 -8.51,-3.66 -1.36,-0.75 -2.69,-1.53 -4.11,-2.18 -1.34,-0.8 -2.53,-1.88 -3.82,-2.77 -2.75,-1.54 -4.82,-4.12 -7.35,-6.07 -2.12,-2.44 -4.56,-4.58 -6.5,-7.17 -2.05,-2.48 -4.03,-4.97 -5.76,-7.53 -1.9,-2.44 -3.41,-5.01 -5.08,-7.28 -6.15,-10 -10.25,-16.67 -10.25,-16.67" style="fill: rgb(52, 44, 42); fill-opacity: 1; fill-rule: nonzero; stroke: none; visibility: visible;" id="path232" data-index="110"></path>
      <path d="m 2851.05,2978.58 c 9.75,-8.5 11.89,-22.01 4.78,-30.15 -7.1,-8.16 -20.78,-7.85 -30.53,0.64 -9.74,8.52 -11.88,22.01 -4.76,30.16 7.1,8.14 20.77,7.86 30.51,-0.65" style="fill: rgb(52, 44, 42); fill-opacity: 1; fill-rule: nonzero; stroke: none; visibility: visible;" id="path234" data-index="111"></path>
      <path d="m 2463.59,3144.39 c 0,0 1.23,0.03 3.53,0.08 2.27,0.33 5.59,0.81 9.81,1.43 4.17,0.49 9.12,2.4 14.81,3.87 5.76,1.28 11.86,4.06 18.6,6.82 3.35,1.37 6.85,2.79 10.47,4.28 1.81,0.74 3.64,1.49 5.51,2.25 1.77,0.99 3.57,2 5.4,3.01 7.29,4.07 14.94,8.39 22.97,12.61 8.23,3.83 15.59,9.91 23.68,14.97 7.97,5.27 16.06,10.64 24.16,16 8.08,5.38 15.43,11.84 23.07,17.61 7.59,5.85 15.07,11.61 22.31,17.18 3.64,2.76 7.23,5.48 10.73,8.14 3.44,2.75 6.6,5.67 9.8,8.4 6.34,5.49 12.33,10.71 17.86,15.51 11.01,9.67 20.64,17.29 27.2,22.84 6.7,5.41 10.52,8.5 10.52,8.5 0,0 -3.33,-3.59 -9.17,-9.88 -5.99,-6.14 -14.27,-15.23 -24.74,-25.61 -5.23,-5.21 -10.87,-10.87 -16.85,-16.84 -3.02,-2.96 -6,-6.14 -9.27,-9.14 -3.41,-2.85 -6.91,-5.75 -10.45,-8.7 -7.15,-5.85 -14.55,-11.9 -22.05,-18.04 -7.67,-5.94 -15.02,-12.56 -23.18,-18.12 -8.3,-5.36 -16.61,-10.72 -24.78,-16 -8.29,-5.13 -16.02,-10.78 -24.6,-14.52 -8.33,-4.15 -16.5,-7.9 -24.19,-11.51 -1.93,-0.9 -3.82,-1.79 -5.69,-2.66 -1.97,-0.66 -3.91,-1.3 -5.82,-1.94 -3.82,-1.25 -7.5,-2.47 -11.04,-3.63 -3.53,-1.15 -6.91,-2.25 -10.13,-3.29 -3.2,-1.08 -6.52,-1.23 -9.47,-1.85 -6.01,-0.83 -11.07,-2.17 -15.47,-2.19 -4.38,-0.11 -7.75,-0.12 -10.04,-0.03 -2.28,0.3 -3.49,0.45 -3.49,0.45" style="fill: rgb(100, 85, 80); fill-opacity: 1; fill-rule: nonzero; stroke: none; visibility: visible;" id="path236" data-index="112"></path>
      <path d="m 4245.93,1197.71 c 0,0 -49.57,-143.84 -184.21,-214.569 -50.74,-87.512 -98.12,-195.032 -138.85,-209.18 -39.63,-13.77 -129.27,-29.359 -129.27,-130.051 167.83,0 263.53,0 263.53,0 0,0 206.47,132.531 383.28,342.5 -19.93,101.7 -89.31,186.7 -194.48,211.3" style="fill: rgb(45, 73, 60); fill-opacity: 1; fill-rule: nonzero; stroke: none; visibility: visible;" id="path238" data-index="113"></path>
      <path d="m 4041.1,811.859 c -1.28,0 -2.56,0.481 -3.53,1.461 -16.01,16.012 -48.97,9.942 -49.27,9.871 -2.77,-0.511 -5.34,1.25 -5.86,3.981 -0.52,2.699 1.26,5.316 3.97,5.848 1.57,0.312 38.46,7.14 58.23,-12.629 1.95,-1.95 1.95,-5.121 0,-7.071 -0.98,-0.98 -2.26,-1.461 -3.54,-1.461" style="fill: rgb(255, 255, 255); fill-opacity: 1; fill-rule: nonzero; stroke: none; visibility: visible;" id="path240" data-index="114"></path>
      <path d="m 4076.1,875.609 c -1.28,0 -2.56,0.481 -3.53,1.461 -18.83,18.828 -49.75,10.071 -50.05,9.989 -2.71,-0.77 -5.43,0.75 -6.21,3.39 -0.78,2.641 0.73,5.422 3.38,6.199 1.49,0.434 36.85,10.59 59.95,-12.507 1.95,-1.95 1.95,-5.121 0,-7.071 -0.98,-0.98 -2.26,-1.461 -3.54,-1.461" style="fill: rgb(255, 255, 255); fill-opacity: 1; fill-rule: nonzero; stroke: none; visibility: visible;" id="path242" data-index="115"></path>
      <path d="m 4117.35,944.359 c -1.28,0 -2.56,0.481 -3.53,1.461 -18.78,18.782 -50.71,7.692 -51.04,7.578 -2.6,-0.929 -5.46,0.422 -6.38,3.032 -0.93,2.59 0.43,5.449 3.02,6.379 1.56,0.562 38.25,13.312 61.47,-9.918 1.95,-1.95 1.95,-5.121 0,-7.071 -0.98,-0.98 -2.26,-1.461 -3.54,-1.461" style="fill: rgb(255, 255, 255); fill-opacity: 1; fill-rule: nonzero; stroke: none; visibility: visible;" id="path244" data-index="116"></path>
      <path d="m 2686.61,1476.01 c 0,0 357.18,104.61 697.04,179.99 51.14,105.75 144.18,369.04 206.27,582.17 -81.32,49.37 -271.32,88.69 -365.7,60.8 -68.52,-272.38 -82.75,-437.83 -137.29,-568.45 -180.4,-105.46 -277.23,-166.14 -400.32,-254.51" style="fill: rgb(244, 107, 74); fill-opacity: 1; fill-rule: nonzero; stroke: none; visibility: visible;" id="path246" data-index="117"></path>
      <path d="m 759.531,643.91 c 0,0 160.004,67.121 267.399,86.711 107.4,19.578 83.13,95.391 181.97,61.668 98.83,-33.699 84.85,-69.93 174.35,-69.93 89.51,0 165.03,33.7 237.75,0 72.72,-33.699 260.96,-53.277 338.85,-25.308 77.89,27.98 161.8,25.488 228.93,-13.832 67.13,-39.309 167.81,47.39 290.89,-39.309 -72.73,0 -1720.139,0 -1720.139,0" style="fill: rgb(109, 69, 55); fill-opacity: 1; fill-rule: nonzero; stroke: none; visibility: visible;" id="path248" data-index="118"></path>
      <path d="m 1096.1,683.719 c 0,0 82.5,65 170,22.5 -23.75,23.75 -115,55 -170,-22.5" style="fill: rgb(78, 48, 40); fill-opacity: 1; fill-rule: nonzero; stroke: none; visibility: visible;" id="path250" data-index="119"></path>
      <path d="m 1438.6,683.719 c 0,0 125,25 200,0 -25,25 -135,39.82 -200,0" style="fill: rgb(78, 48, 40); fill-opacity: 1; fill-rule: nonzero; stroke: none; visibility: visible;" id="path252" data-index="120"></path>
      <path d="m 453.605,643.91 c 0,0 62.333,1.051 171.422,2.899 54.543,0.742 120.778,1.632 196.75,2.652 75.973,1.059 161.68,2.269 255.183,2.848 93.51,0.781 194.8,1.613 301.94,2.48 107.14,0.852 220.13,2.063 337.01,2.102 233.76,0.64 483.1,1.32 732.44,2 249.35,-0.672 498.69,-1.34 732.45,-1.981 116.89,-0.039 229.86,-1.18 337,-2.07 107.14,-0.879 208.44,-1.719 301.95,-2.5 93.5,-0.578 179.21,-1.758 255.18,-2.848 75.98,-1.031 142.21,-1.922 196.75,-2.66 109.09,-1.863 171.43,-2.922 171.43,-2.922 0,0 -62.34,-1.07 -171.43,-2.918 -54.54,-0.754 -120.77,-1.633 -196.75,-2.672 -75.97,-1.078 -161.68,-2.269 -255.18,-2.851 -93.51,-0.778 -194.81,-1.617 -301.95,-2.5 -107.14,-0.887 -220.11,-2.02 -337,-2.071 -233.76,-0.636 -483.1,-1.308 -732.45,-1.968 -249.34,0.672 -498.68,1.351 -732.44,1.992 -116.88,0.047 -229.87,1.25 -337.01,2.098 -107.14,0.882 -208.43,1.71 -301.94,2.48 -93.503,0.582 -179.21,1.789 -255.183,2.852 -75.972,1.019 -142.207,1.91 -196.75,2.66 -109.089,1.84 -171.422,2.898 -171.422,2.898" style="fill: rgb(109, 69, 55); fill-opacity: 1; fill-rule: nonzero; stroke: none; visibility: visible;" id="path254" data-index="121"></path>
    </g>
  </g>
</svg>